<svg width="36" height="36" viewBox="0 0 36 36" fill="none" xmlns="http://www.w3.org/2000/svg">
<g clip-path="url(#clip0_1003_15)">
<path d="M14.7676 8.38574C16.9686 8.32635 19.1088 9.11205 20.749 10.5811L21.0049 10.8096L21.2598 10.5811C22.9006 9.11218 25.0417 8.32785 27.2432 8.38867C29.4446 8.44957 31.5395 9.3509 33.0967 10.9082C34.6526 12.4639 35.5551 14.5565 35.6182 16.7559C35.681 18.9523 34.9012 21.0891 33.4404 22.7305L21.001 35.1875L8.56445 22.7305C7.10216 21.0883 6.32316 18.9492 6.38672 16.751C6.45039 14.5501 7.35381 12.4569 8.91211 10.9014C10.4706 9.34577 12.5664 8.44526 14.7676 8.38574Z" fill="#E02121" stroke="white" stroke-width="0.765452"/>
</g>
<defs>
<clipPath id="clip0_1003_15">
<rect width="36" height="36" fill="white"/>
</clipPath>
</defs>
</svg>
