<svg width="36" height="36" viewBox="0 0 36 36" fill="none" xmlns="http://www.w3.org/2000/svg">
<g opacity="0.2">
<path d="M11.7646 4.88354C13.9657 4.82416 16.1059 5.60986 17.7461 7.07886L18.002 7.30737L18.2568 7.07886C19.8977 5.60999 22.0388 4.82565 24.2402 4.88647C26.4417 4.94737 28.5365 5.8487 30.0938 7.40601C31.6497 8.9617 32.5522 11.0543 32.6152 13.2537C32.678 15.4502 31.8982 17.5869 30.4375 19.2283L17.998 31.6853L5.56152 19.2283C4.09923 17.5861 3.32024 15.447 3.38379 13.2488C3.44746 11.0479 4.35088 8.95472 5.90918 7.39917C7.46771 5.84358 9.56343 4.94306 11.7646 4.88354Z" fill="#E02121" stroke="white" stroke-width="0.765452"/>
</g>
</svg>
