<svg width="35" height="127" viewBox="0 0 35 127" fill="none" xmlns="http://www.w3.org/2000/svg">
<path d="M31.8125 126.622C31.6691 126.752 31.4478 126.741 31.3181 126.598L29.2053 124.261C29.0757 124.118 29.0868 123.896 29.2302 123.767C29.3736 123.637 29.5949 123.648 29.7245 123.792L31.6026 125.868L33.6793 123.99C33.8227 123.861 34.044 123.872 34.1737 124.015C34.3033 124.159 34.2922 124.38 34.1489 124.51L31.8125 126.622ZM0.3125 0.150391L0.628376 -0.000347805C13.8077 27.6172 22.1811 48.3484 26.9845 67.6095C31.7895 86.877 33.0189 104.66 31.9273 126.38L31.5777 126.363L31.2282 126.345C32.3171 104.677 31.09 86.9652 26.3053 67.7789C21.519 48.5863 13.1695 27.9053 -0.00337645 0.301129L0.3125 0.150391Z" fill="white"/>
</svg>
