<svg width="20" height="59" viewBox="0 0 20 59" fill="none" xmlns="http://www.w3.org/2000/svg">
<path d="M4.60495 58.5598C4.78201 58.6373 4.98842 58.5567 5.06598 58.3796L6.3299 55.4943C6.40746 55.3172 6.32681 55.1108 6.14975 55.0333C5.97269 54.9557 5.76629 55.0364 5.68872 55.2134L4.56524 57.7781L2.00052 56.6547C1.82346 56.5771 1.61705 56.6577 1.53949 56.8348C1.46193 57.0119 1.54259 57.2183 1.71965 57.2958L4.60495 58.5598ZM19.1172 0.222656L18.8475 -0.00040538C9.09914 11.7866 3.33264 20.8892 1.08996 29.8022C-1.15704 38.7324 0.144008 47.4255 4.41939 58.3666L4.74539 58.2392L5.07138 58.1118C0.82533 47.2458 -0.429553 38.7098 1.7688 29.973C3.97146 21.2191 9.65158 12.217 19.3869 0.445718L19.1172 0.222656Z" fill="white"/>
</svg>
