<svg width="52" height="175" viewBox="0 0 52 175" fill="none" xmlns="http://www.w3.org/2000/svg">
<path d="M8.2246 174.528C8.3879 174.631 8.60413 174.583 8.70755 174.419L10.3929 171.758C10.4963 171.595 10.4478 171.379 10.2845 171.275C10.1212 171.172 9.90494 171.22 9.80152 171.384L8.30343 173.749L5.9379 172.251C5.77459 172.148 5.55837 172.196 5.45494 172.359C5.35152 172.523 5.40007 172.739 5.56338 172.842L8.2246 174.528ZM51.5156 0.229492L51.2514 -6.93952e-05C25.584 29.5403 10.4133 53.7009 3.85438 80.2043C-2.70429 106.707 -0.640893 135.509 8.07036 174.309L8.41186 174.232L8.75336 174.155C0.0511931 135.396 -1.98631 106.72 4.53388 80.3725C11.0538 54.0263 26.1417 29.9656 51.7798 0.459054L51.5156 0.229492Z" fill="white"/>
</svg>
