<svg width="68" height="19" viewBox="0 0 68 19" fill="none" xmlns="http://www.w3.org/2000/svg">
<path d="M67.782 0.407804C67.7852 0.214531 67.6311 0.055271 67.4378 0.0520894L64.2882 0.000225398C64.095 -0.00295795 63.9357 0.151142 63.9325 0.344414C63.9293 0.537688 64.0834 0.696947 64.2767 0.70013L67.0763 0.746232L67.0302 3.54585C67.0271 3.73912 67.1811 3.89838 67.3744 3.90157C67.5677 3.90475 67.727 3.75065 67.7301 3.55738L67.782 0.407804ZM0.0546875 16.4766L0.00280982 16.8227C17.0352 19.3755 29.3074 19.8422 39.6501 17.4083C50.0068 14.9711 58.3941 9.63422 67.6754 0.65357L67.432 0.402042L67.1887 0.150514C57.9639 9.07636 49.6844 14.3279 39.4898 16.7269C29.2813 19.1293 17.1179 18.68 0.106565 16.1304L0.0546875 16.4766Z" fill="white"/>
</svg>
