<svg width="461" height="115" viewBox="0 0 461 115" fill="none" xmlns="http://www.w3.org/2000/svg">
<path d="M402.978 114.019C399.463 114.019 395.685 113.975 391.642 113.888C387.6 113.8 384.041 113.053 380.965 111.647C377.978 110.329 375.429 108.571 373.32 106.374C371.299 104.177 369.761 101.673 368.707 98.8608C367.652 96.1366 367.125 93.3246 367.125 90.4247C367.125 87.4369 367.608 84.537 368.575 81.7249C369.542 78.9129 370.991 76.4523 372.925 74.3433C374.946 72.1464 377.494 70.3889 380.57 69.0708C383.734 67.6647 387.512 66.9178 391.906 66.8299C395.948 66.742 399.727 66.6981 403.242 66.6981C406.757 66.6981 410.184 66.6981 413.524 66.6981C416.863 66.6981 420.29 66.6981 423.805 66.6981C427.32 66.6981 431.099 66.742 435.141 66.8299C439.447 66.8299 443.182 67.5329 446.345 68.9389C449.509 70.2571 452.057 72.0146 453.99 74.2115C456.012 76.4084 457.506 78.9129 458.472 81.7249C459.439 84.537 459.922 87.4369 459.922 90.4247C459.922 93.3246 459.395 96.1366 458.34 98.8608C457.286 101.673 455.704 104.177 453.595 106.374C451.574 108.571 449.025 110.329 445.95 111.647C442.874 113.053 439.315 113.8 435.273 113.888C431.231 113.975 427.452 114.019 423.937 114.019C420.422 114.107 416.951 114.151 413.524 114.151C410.096 114.151 406.581 114.107 402.978 114.019ZM384.92 103.738C387.029 104.617 389.621 105.1 392.697 105.188C395.773 105.188 399.068 105.188 402.583 105.188C406.186 105.276 409.833 105.32 413.524 105.32C417.214 105.32 420.817 105.276 424.332 105.188C427.935 105.188 431.275 105.188 434.35 105.188C437.426 105.1 439.974 104.617 441.995 103.738C444.104 102.859 445.774 101.717 447.004 100.311C448.322 98.9926 449.245 97.4547 449.772 95.6972C450.388 94.0276 450.695 92.314 450.695 90.5565C450.695 88.7111 450.432 86.9096 449.904 85.1521C449.465 83.3946 448.63 81.8128 447.4 80.4068C446.169 79.0008 444.456 77.8584 442.259 76.9796C440.15 76.1008 437.47 75.6615 434.218 75.6615C431.143 75.6615 427.803 75.6615 424.2 75.6615C420.685 75.5736 417.126 75.5297 413.524 75.5297C409.921 75.5297 406.318 75.5736 402.715 75.6615C399.2 75.6615 395.904 75.6615 392.829 75.6615C389.489 75.6615 386.765 76.1008 384.656 76.9796C382.547 77.8584 380.878 79.0008 379.647 80.4068C378.417 81.8128 377.538 83.3946 377.011 85.1521C376.572 86.9096 376.352 88.7111 376.352 90.5565C376.352 92.314 376.616 94.0276 377.143 95.6972C377.758 97.4547 378.681 98.9926 379.911 100.311C381.229 101.717 382.899 102.859 384.92 103.738ZM450.959 0.922852H460.186V61.2937H450.959V34.2718H431.714V61.2937H422.487V0.922852H431.714V25.5721H450.959V0.922852ZM390.324 10.4135H383.734L367.916 58.5256H358.03L376.484 1.71374H397.179L415.633 58.5256H405.746L390.324 10.4135Z" fill="black"/>
<path d="M329.375 0.922695H338.602V82.1202H329.375V0.922695ZM341.37 114.019H250.154V75.5295H259.381V105.319H341.37V114.019ZM299.716 14.4996C300.683 17.3116 301.079 20.3433 300.903 23.5947C300.727 27.9007 300.288 32.0748 299.585 36.1171C298.97 40.0715 298.31 43.5865 297.607 46.6622C296.729 50.4409 295.323 53.5605 293.389 56.021C291.544 58.3937 289.303 60.283 286.667 61.689C284.118 63.095 281.262 64.0617 278.099 64.5889C274.935 65.1162 271.64 65.3798 268.213 65.3798C258.634 65.3798 251.516 63.139 246.859 58.6573C242.202 54.0877 240.224 47.6728 240.927 39.4124C241.015 38.1822 241.147 36.7761 241.323 35.1944C241.499 33.5247 241.674 31.8111 241.85 30.0536C242.114 28.2961 242.377 26.5386 242.641 24.7811C242.992 22.9357 243.388 21.2221 243.827 19.6403C244.882 15.598 246.42 12.3027 248.441 9.75425C250.462 7.20584 252.835 5.22863 255.559 3.82261C258.283 2.32872 261.183 1.31814 264.258 0.790883C267.422 0.263628 270.586 0 273.749 0C278.758 0 283.02 0.615133 286.535 1.8454C290.05 3.07566 292.862 4.78925 294.971 6.98615C297.168 9.09518 298.75 11.5996 299.716 14.4996ZM284.558 51.5393C286.052 50.0454 287.194 48.0243 287.985 45.4759C288.337 44.2456 288.688 42.7957 289.04 41.126C289.391 39.4564 289.699 37.6988 289.962 35.8534C290.314 34.008 290.577 32.1626 290.753 30.3173C290.929 28.4719 291.061 26.8022 291.149 25.3083C291.236 21.6175 290.797 18.7176 289.83 16.6086C288.952 14.4117 287.677 12.742 286.008 11.5996C284.338 10.3694 282.405 9.57849 280.208 9.22699C278.011 8.87548 275.682 8.69973 273.222 8.69973C271.376 8.69973 269.443 8.83155 267.422 9.09518C265.401 9.35881 263.424 9.97394 261.49 10.9406C259.645 11.8193 257.975 13.1375 256.481 14.895C254.988 16.5646 253.889 18.8934 253.186 21.8811C252.922 23.1114 252.615 24.5614 252.263 26.231C252 27.9007 251.736 29.6582 251.472 31.5036C251.209 33.2611 250.989 34.9747 250.813 36.6443C250.638 38.314 250.55 39.8079 250.55 41.126C250.462 44.5532 250.901 47.2773 251.868 49.2985C252.835 51.3196 254.153 52.9014 255.822 54.0438C257.58 55.0983 259.557 55.8013 261.754 56.1528C264.039 56.5043 266.367 56.6801 268.74 56.6801C270.41 56.6801 272.211 56.5922 274.145 56.4164C276.078 56.1528 277.923 55.6695 279.681 54.9665C281.526 54.1756 283.152 53.0332 284.558 51.5393Z" fill="black"/>
<path d="M218.599 61.0301V111.119H197.245V0.922852H218.599V42.7079H233.362V61.0301H218.599ZM170.883 109.801L163.896 74.0797C160.381 56.3287 158.053 42.7519 156.91 33.3491C151.55 58.0423 145.882 83.5264 139.906 109.801H116.443L144.52 1.05467H170.619L190.655 109.801H170.883Z" fill="black"/>
<path d="M82.6475 59.1847V0.922852H104.001V59.1847H82.6475ZM56.4164 18.4541L68.9388 57.6029H49.5621C48.1561 53.0334 47.1455 49.6062 46.5304 47.3214C46.1789 46.2669 45.2122 43.0594 43.6305 37.699C42.0487 32.3386 40.3351 27.3736 38.4897 22.804C37.5231 25.7918 36.8201 27.769 36.3807 28.7356L23.5947 57.9984H0L17.9267 18.4541H1.44996V1.05467H70.1251V18.4541H56.4164ZM10.4133 114.019V63.93H31.7672V71.9707H82.6475V63.93H104.001V114.019H10.4133ZM82.6475 88.8429H31.7672V97.1472H82.6475V88.8429Z" fill="black"/>
</svg>
