<svg width="52" height="39" viewBox="0 0 52 39" fill="none" xmlns="http://www.w3.org/2000/svg">
<path d="M25.8275 2.19503C25.9501 2.19402 26.071 2.19464 26.1933 2.19761C27.9516 2.24041 29.3271 3.74439 29.1999 5.5037C29.129 6.48706 28.7479 7.13139 28.0306 7.77985C28.8261 9.67394 30.2934 12.0151 31.5878 13.6015C32.3196 14.5037 33.1298 15.3392 34.0091 16.0981C34.8114 16.7968 34.7579 16.6577 35.7138 16.232C37.9586 15.2327 39.869 13.8158 41.5945 12.0767C41.5752 12.038 41.5559 11.9993 41.5369 11.9604C41.1576 11.1828 41.0639 10.3396 41.3541 9.51334C41.6136 8.77249 42.162 8.16822 42.8742 7.83824C43.6339 7.49029 44.5005 7.45693 45.2846 7.74544C46.026 8.01623 46.629 8.57048 46.9616 9.28614C47.298 10.034 47.33 10.8835 47.0505 11.6546C46.7095 12.5685 46.0912 13.0436 45.2394 13.4313C45.1284 13.9278 45.0334 14.5998 44.9436 15.1121L44.3619 18.4364L42.814 27.2467C43.5372 27.481 44.0348 27.9028 44.0097 28.731C43.9934 29.2657 43.9028 29.8718 43.8198 30.4017C43.7324 30.9588 43.7081 31.7014 43.5453 32.2232C43.4757 32.452 43.3511 32.6604 43.182 32.8296C43.0601 32.9504 42.8336 33.105 42.6731 33.1525C42.0379 33.3404 41.1959 33.4719 40.5396 33.574C35.8994 34.2951 31.1039 34.5041 26.4127 34.5109C21.4608 34.515 16.4581 34.3565 11.5591 33.5857C10.9419 33.4884 9.87091 33.3691 9.31899 33.1452C8.95555 32.9979 8.65883 32.7222 8.51144 32.3555C8.34107 31.9317 8.02183 29.2901 8.01612 28.8087C8.01328 28.5677 8.02739 28.3283 8.12634 28.1056C8.33739 27.6306 8.69837 27.4257 9.16345 27.2495C9.06793 26.8516 8.97589 26.199 8.89936 25.7684L8.3348 22.5526L6.73699 13.4489C5.88245 13.0313 5.29404 12.6789 4.92177 11.7166C4.62762 10.9341 4.654 10.0671 4.99514 9.30397C5.33312 8.57726 5.94597 8.01463 6.69886 7.73988C7.46565 7.46155 8.3854 7.50441 9.12094 7.85785C9.82584 8.19087 10.3657 8.79542 10.6171 9.5334C10.9267 10.4477 10.7888 11.2342 10.375 12.0741C10.5948 12.333 10.962 12.6608 11.2193 12.8946C12.6673 14.2121 14.3064 15.3027 16.0809 16.1294C16.4342 16.292 16.9435 16.5221 17.3253 16.585C17.6172 16.4348 18.2317 15.8649 18.4943 15.62C20.8856 13.3903 22.6031 10.6975 23.9802 7.7576C23.3274 7.11253 22.9417 6.52486 22.8724 5.56819C22.8112 4.72292 23.0565 3.8982 23.6248 3.25765C24.188 2.62405 24.9809 2.24153 25.8275 2.19503ZM24.6045 20.3101L24.6062 24.6398C24.6063 25.0323 24.5796 26.3082 24.6346 26.6188C24.5394 27.137 24.8089 27.5988 25.339 27.6633C25.8892 27.7301 26.5224 27.6494 27.0805 27.6826C27.472 27.706 27.9021 27.6433 28.1246 27.2863C28.2203 27.1339 28.3109 26.957 28.2172 26.7835C28.3807 26.2597 28.3097 24.6067 28.3094 24.0068L28.3081 19.7724L28.3094 17.5634C28.3099 17.0719 28.3353 16.5622 28.2581 16.0823C28.2066 15.7619 27.8064 15.4617 27.4987 15.4543C26.9934 15.4423 26.1573 15.3756 25.6835 15.481C25.1691 15.5954 24.4837 16.3512 23.9746 16.5849C23.6757 16.7582 23.3338 16.9438 23.0306 17.0944C22.7156 17.2509 22.2403 17.414 22.0832 17.748C21.8892 18.1605 21.9135 19.6042 22.016 19.9899C21.9202 20.4446 22.1179 20.7568 22.5722 20.9369C23.0547 21.1283 24.3836 20.2209 24.6045 20.3101Z" fill="#221E0F"/>
<path d="M24.6249 8.38344C24.6584 8.313 24.6945 8.23145 24.7315 8.16406C25.3718 8.40459 25.7891 8.45291 26.4754 8.39085C26.7991 8.34101 26.969 8.29236 27.2704 8.17521C27.5949 8.84311 27.9306 9.50555 28.2771 10.1623C28.6699 10.8015 29.0338 11.4529 29.4451 12.0818C30.5237 13.732 31.8191 15.2905 33.2908 16.6041C33.6153 16.8937 34.0855 17.3728 34.522 17.468C35.3223 17.6426 38.0845 15.9762 38.8539 15.4664C39.3901 15.1111 39.8979 14.7245 40.3986 14.3212C40.6165 14.1459 40.8247 13.9565 41.0466 13.787C41.3376 13.4767 41.8682 13.0165 42.2047 12.6855C42.4002 12.8592 42.5637 12.964 42.7838 13.0945C43.0921 13.2681 43.2398 13.3154 43.5719 13.4145C43.8543 13.4784 44.0569 13.502 44.3469 13.5258C44.2481 14.3303 44.0427 15.343 43.8995 16.1604L43.0761 20.8501L42.3207 25.1417C42.1981 25.8458 42.0592 26.8079 41.904 27.481C41.8868 27.6387 41.7908 28.0698 41.8464 28.1599L41.8873 28.1711C42.2217 28.1236 42.5972 28.0299 42.8892 28.244C43.1573 28.4408 43.1433 28.7767 43.106 29.0638C42.9869 29.983 42.8463 30.8953 42.7175 31.8124C42.6376 32.3771 41.8868 32.4367 41.4556 32.4873C40.991 32.5921 40.2067 32.6843 39.7258 32.7457C38.6098 32.8877 37.4911 33.007 36.3704 33.104C35.7575 33.1573 35.1438 33.203 34.5296 33.2411C34.3018 33.2558 33.8458 33.296 33.6272 33.2894C33.4721 33.3213 32.8083 33.3409 32.6139 33.3503C31.781 33.3927 30.9477 33.4249 30.1141 33.447C26.5744 33.5494 23.0319 33.5191 19.4943 33.3566C16.6743 33.2251 13.3798 32.9684 10.5914 32.4893C10.2417 32.4383 9.66022 32.4121 9.42939 32.098C9.24277 31.8441 8.87776 29.0192 8.92092 28.6294C8.93902 28.4659 9.01469 28.3402 9.14822 28.2417C9.43884 28.0271 9.85299 28.1208 10.1828 28.164C10.1609 27.9335 10.1179 27.7001 10.0799 27.4713L10.0297 27.1555L7.62793 13.526L8.006 13.4952C8.1442 13.4713 8.27209 13.4428 8.40889 13.4121C8.74799 13.3158 8.88492 13.26 9.18846 13.096C9.4003 12.976 9.58511 12.8317 9.77648 12.6828C11.264 14.1893 12.9678 15.4656 14.8319 16.4695C15.3611 16.749 16.981 17.6213 17.5512 17.4258C18.036 17.2294 18.4931 16.7652 18.8768 16.4191C21.4265 14.1196 23.0934 11.4147 24.6249 8.38344ZM24.6045 20.3101L24.6062 24.6397C24.6062 25.0323 24.5795 26.3082 24.6346 26.6187C24.5394 27.137 24.8089 27.5988 25.3389 27.6633C25.8891 27.7301 26.5224 27.6493 27.0805 27.6826C27.472 27.706 27.9021 27.6432 28.1245 27.2863C28.2203 27.1339 28.3109 26.9569 28.2172 26.7835C28.3807 26.2597 28.3096 24.6067 28.3094 24.0067L28.3081 19.7724L28.3094 17.5634C28.3099 17.0719 28.3353 16.5622 28.2581 16.0823C28.2065 15.7619 27.8064 15.4616 27.4987 15.4543C26.9934 15.4422 26.1573 15.3756 25.6835 15.481C25.1691 15.5954 24.4836 16.3512 23.9746 16.5849C23.6757 16.7582 23.3338 16.9438 23.0306 17.0944C22.7155 17.2509 22.2402 17.414 22.0832 17.748C21.8891 18.1605 21.9135 19.6042 22.016 19.9899C21.9202 20.4445 22.1179 20.7568 22.5722 20.9369C23.0547 21.1282 24.3836 20.2209 24.6045 20.3101Z" fill="#FED20D"/>
<path d="M10.08 27.4714C10.4296 27.5131 10.7795 27.5514 11.1298 27.5862C11.8217 27.6972 12.7362 27.7385 13.443 27.8043C13.7913 27.8368 14.604 27.913 14.9175 27.9076C15.3266 27.9699 16.0932 27.9919 16.531 28.0156C17.6015 28.0747 18.6726 28.1225 19.7441 28.159C22.8855 28.2756 26.0296 28.304 29.1725 28.2436C30.4908 28.2202 32.0779 28.2085 33.3845 28.1194C34.357 28.0803 35.3292 28.0316 36.3009 27.9734C37.8221 27.8802 39.3412 27.7563 40.8573 27.6014L41.9041 27.4811C41.8868 27.6388 41.7909 28.0699 41.8465 28.16L41.8873 28.1712C42.2217 28.1237 42.5973 28.03 42.8893 28.2441C43.1574 28.4409 43.1434 28.7768 43.1061 29.0639C42.987 29.9831 42.8464 30.8954 42.7176 31.8125C42.6376 32.3772 41.8868 32.4368 41.4557 32.4874C40.9911 32.5922 40.2067 32.6844 39.7258 32.7458C38.6099 32.8878 37.4912 33.0071 36.3705 33.1041C35.7575 33.1574 35.1439 33.2031 34.5297 33.2412C34.3019 33.2559 33.8459 33.296 33.6273 33.2894C33.4721 33.3214 32.8084 33.341 32.6139 33.3504C31.7811 33.3928 30.9478 33.425 30.1142 33.4471C26.5745 33.5494 23.032 33.5192 19.4944 33.3567C16.6744 33.2252 13.3799 32.9685 10.5915 32.4894C10.2417 32.4383 9.66029 32.4122 9.42947 32.0981C9.24285 31.8442 8.87783 29.0193 8.921 28.6295C8.9391 28.466 9.01476 28.3403 9.14829 28.2418C9.43891 28.0272 9.85306 28.1209 10.1828 28.1641C10.161 27.9335 10.118 27.7002 10.08 27.4714Z" fill="#F7BE05"/>
<path d="M41.8873 28.1712C42.2217 28.1237 42.5972 28.03 42.8892 28.244C43.1573 28.4408 43.1434 28.7767 43.106 29.0639C42.987 29.983 42.8463 30.8953 42.7176 31.8124C42.6376 32.3771 41.8868 32.4368 41.4556 32.4873C40.991 32.5922 40.2067 32.6843 39.7258 32.7458C38.6099 32.8877 37.4912 33.0071 36.3704 33.1041C35.7575 33.1574 35.1438 33.2031 34.5296 33.2412C34.3018 33.2559 33.8458 33.296 33.6272 33.2894C33.5439 33.2858 33.4551 33.2848 33.373 33.2716C33.416 33.2445 35.4795 33.164 35.8052 33.0934C35.8895 33.0264 35.8649 33.0393 35.908 32.9212C35.935 32.8453 36.001 32.2895 36.0142 32.1803C36.1267 31.3135 36.2094 30.4431 36.2625 29.5707C36.457 29.5387 37.0511 29.5021 37.2515 29.4976C37.0501 29.445 36.5979 29.5324 36.3438 29.5161L36.3265 29.492C36.3257 29.3404 36.294 28.8516 36.3184 28.7615C36.3907 28.6858 36.7368 28.7082 36.9046 28.681L36.7574 28.6632C36.9643 28.6208 37.7864 28.5871 38.0744 28.5652C38.9902 28.4979 39.9048 28.4129 40.8173 28.3095C41.0989 28.2763 41.628 28.223 41.8873 28.1712Z" fill="#FCC102"/>
<path d="M41.8872 28.1712C42.2216 28.1237 42.5971 28.03 42.8891 28.244C43.1572 28.4408 43.1433 28.7767 43.1059 29.0639C42.9869 29.983 42.8462 30.8953 42.7175 31.8124C42.6375 32.3771 41.8867 32.4368 41.4556 32.4873C41.3804 32.4162 41.5269 32.1524 41.5401 32.0163C41.5848 31.5519 42.07 29.4658 41.9674 29.1314C41.8052 28.9923 40.8033 29.168 40.5329 29.1987C39.7206 29.2932 38.9068 29.3752 38.0921 29.4445C37.9214 29.4587 37.3925 29.5207 37.2514 29.4976C37.05 29.445 36.5978 29.5324 36.3437 29.5161L36.3264 29.492C36.3256 29.3404 36.2939 28.8516 36.3183 28.7615C36.3906 28.6858 36.7367 28.7082 36.9045 28.681L36.7573 28.6632C36.9642 28.6208 37.7864 28.5871 38.0743 28.5652C38.9901 28.4979 39.9047 28.4129 40.8172 28.3095C41.0988 28.2763 41.628 28.223 41.8872 28.1712Z" fill="#FEE821"/>
<path d="M10.0796 27.4714C10.4291 27.5131 10.7791 27.5514 11.1294 27.5862C11.8213 27.6972 12.7358 27.7385 13.4426 27.8043C13.7909 27.8368 14.6035 27.913 14.9171 27.9076C15.3262 27.9699 16.0928 27.9919 16.5306 28.0156C17.6011 28.0747 18.6722 28.1225 19.7437 28.159C22.8851 28.2756 26.0292 28.304 29.1721 28.2436C30.4904 28.2202 32.0775 28.2085 33.3841 28.1194C34.3566 28.0803 35.3288 28.0316 36.3005 27.9734C37.8216 27.8802 39.3408 27.7563 40.8568 27.6014L41.9037 27.4811C41.8864 27.6388 41.7905 28.0699 41.8461 28.16L41.8869 28.1712C41.6277 28.223 41.0986 28.2763 40.817 28.3096C39.9044 28.4129 38.9899 28.498 38.074 28.5653C37.7861 28.5871 36.9639 28.6209 36.757 28.6633C34.8474 28.741 32.9644 28.8702 31.0426 28.925C29.6073 28.9154 28.0996 28.9954 26.6419 28.9972C25.854 29 25.0659 28.9964 24.2779 28.9867C23.7408 28.9779 23.0025 28.9489 22.4752 28.9667C22.3321 28.9383 21.4513 28.9299 21.2555 28.9245C20.4189 28.9004 19.5825 28.8702 18.7463 28.8339C15.9672 28.7148 12.9326 28.5467 10.1824 28.1641C10.1606 27.9335 10.1176 27.7002 10.0796 27.4714Z" fill="#835201"/>
<path d="M10.5915 32.4894C10.2417 32.4383 9.66029 32.4122 9.42947 32.0981C9.24285 31.8442 8.87783 29.0192 8.921 28.6295C8.9391 28.466 9.01476 28.3403 9.14829 28.2418C9.43891 28.0272 9.85306 28.1209 10.1828 28.1641C12.933 28.5467 15.9676 28.7148 18.7467 28.8339C19.5829 28.8702 20.4193 28.9004 21.2559 28.9245C21.4517 28.9299 22.3325 28.9382 22.4757 28.9667C23.0029 28.9489 23.7412 28.9779 24.2783 28.9867C25.0663 28.9964 25.8544 28.9999 26.6423 28.9972C28.1 28.9954 29.6077 28.9154 31.043 28.925C30.6121 29.0515 29.757 28.9471 29.2822 29.021C29.1684 29.0385 28.929 29.2432 28.8203 29.3044C28.6995 29.3905 28.5743 29.4494 28.4953 29.5621C28.4184 29.672 28.4745 29.7284 28.3475 29.7901C28.3343 29.7965 28.3209 29.8025 28.3074 29.8084L28.3046 29.8361C28.8873 29.8505 29.335 29.766 29.9169 29.8366C29.711 29.8797 28.5992 29.8653 28.3194 29.8734C26.1479 29.9374 23.9715 29.8455 21.8064 29.8287C21.5587 29.8564 21.1694 29.8246 20.9142 29.8147L19.1949 29.7363C17.1489 29.6347 15.1044 29.5024 13.0623 29.3397C12.4229 29.2836 11.7788 29.2059 11.1398 29.1437C10.9645 29.1274 10.7856 29.0969 10.611 29.0782C10.3432 29.0495 9.96227 28.9301 10.0226 29.3519C10.1442 30.2022 10.2755 31.0525 10.4303 31.8973C10.4683 32.1047 10.5539 32.3043 10.5915 32.4894Z" fill="#FED70E"/>
<path d="M22.4754 28.9668C23.0027 28.949 23.741 28.9779 24.2781 28.9868C25.066 28.9965 25.8542 29 26.6421 28.9972C28.0997 28.9955 29.6074 28.9155 31.0428 28.9251C30.6119 29.0516 29.7567 28.9472 29.2819 29.0211C29.1682 29.0386 28.9287 29.2433 28.8201 29.3045C28.6992 29.3905 28.574 29.4494 28.4951 29.5622C28.4181 29.6721 28.4742 29.7285 28.3473 29.7902C28.3341 29.7965 28.3206 29.8026 28.3072 29.8085L28.3044 29.8361C28.8871 29.8506 29.3347 29.7661 29.9167 29.8366C29.7108 29.8798 28.5989 29.8653 28.3191 29.8735C26.1477 29.9375 23.9713 29.8455 21.8062 29.8288C22.0467 29.777 22.6424 29.8135 22.9167 29.8252C23.3758 29.8448 23.811 29.8247 24.2728 29.8372C24.769 29.8504 25.3164 29.8811 25.8153 29.8473C25.9898 29.779 26.1477 29.6551 26.3277 29.5926C26.4986 29.5236 26.686 29.5058 26.8599 29.4642C26.9838 29.4347 27.4302 29.2887 27.5147 29.212C27.7534 28.9962 27.8242 29.1067 28.0614 29.0328C27.9598 28.9871 26.9742 29.0445 26.785 29.0452C25.5221 29.0503 24.2508 29.0257 22.9883 28.9975C22.8468 28.9944 22.5891 29.0097 22.4767 28.9947L22.4754 28.9668Z" fill="#FEF24A"/>
<path d="M31.0431 28.9251C32.9649 28.8703 34.8479 28.741 36.7575 28.6633L36.9047 28.6811C36.7369 28.7083 36.3908 28.6859 36.3185 28.7616C36.2941 28.8517 36.3258 29.3405 36.3266 29.4921L36.3439 29.5162C36.598 29.5325 37.0502 29.4451 37.2516 29.4977C37.0512 29.5022 36.4571 29.5388 36.2626 29.5708C35.1812 29.6462 34.0991 29.7049 33.0159 29.7465C32.7216 29.7584 31.6654 29.7729 31.4727 29.8082C30.9542 29.8216 30.4357 29.831 29.917 29.8366C29.335 29.766 28.8874 29.8506 28.3047 29.8361L28.3075 29.8084C28.3209 29.8026 28.3344 29.7965 28.3476 29.7902C28.4745 29.7285 28.4184 29.6721 28.4954 29.5622C28.5743 29.4494 28.6995 29.3905 28.8204 29.3044C28.929 29.2433 29.1685 29.0386 29.2822 29.0211C29.757 28.9472 30.6122 29.0516 31.0431 28.9251Z" fill="#FFFCA7"/>
<path d="M31.4727 29.8082C31.6654 29.7729 32.7216 29.7584 33.0159 29.7465C34.0991 29.7049 35.1812 29.6462 36.2626 29.5708C36.2095 30.4432 36.1268 31.3136 36.0143 32.1804C36.0011 32.2896 35.9351 32.8454 35.9081 32.9213C35.885 32.7482 35.9889 32.1566 36.0074 31.9504C36.0737 31.2189 36.2108 30.3879 36.1973 29.6541C36.1001 29.6157 35.7426 29.6137 35.658 29.6868C35.5837 29.9156 35.7205 30.0083 35.7733 30.269C35.6083 30.3917 35.5567 30.5196 35.558 30.7345C35.623 31.2164 35.0078 31.2385 34.7282 31.1473C34.3423 31.0214 34.353 30.8573 33.9632 30.9269C33.6664 30.98 33.7299 30.0766 33.5143 29.792C33.3968 29.747 32.3012 29.8237 32.0937 29.8265C31.9015 29.8288 31.6834 29.8229 31.4727 29.8082Z" fill="#FEE821"/>
<path d="M42.7838 13.0945C43.092 13.2681 43.2398 13.3154 43.5719 13.4145C43.8542 13.4784 44.0569 13.5019 44.3468 13.5257C44.248 14.3302 44.0426 15.343 43.8994 16.1604L43.076 20.85L42.3206 25.1417C42.198 25.8458 42.0591 26.8079 41.904 27.481L40.8571 27.6013C39.3411 27.7562 37.8219 27.8801 36.3008 27.9733C36.3447 27.7872 36.3952 27.1824 36.4186 26.9683L36.6476 24.8495C36.8276 23.1733 36.9879 21.4952 37.1283 19.8153C37.1922 19.0409 37.2765 18.2215 37.3073 17.4477C38.8899 16.6207 40.3331 15.4834 41.6463 14.2836L41.5871 14.2588L41.777 14.0687C41.9124 13.9593 42.0909 13.7865 42.2077 13.6615L42.2402 13.704C42.3641 13.59 42.4293 13.5159 42.5388 13.3866C42.6078 13.337 42.736 13.1713 42.7838 13.0945Z" fill="#FFCF03"/>
<path d="M43.5717 13.4146C43.854 13.4784 44.0567 13.502 44.3466 13.5258C44.2478 14.3303 44.0424 15.3431 43.8992 16.1605L43.0758 20.8501L42.3204 25.1418C42.1978 25.8459 42.0589 26.8079 41.9038 27.481L40.8569 27.6014C40.88 27.285 41.0842 26.3872 41.1576 26.0175L41.7357 23.0246L43.0243 16.3332C43.2101 15.3676 43.3691 14.3735 43.5717 13.4146Z" fill="#FEE821"/>
<path d="M42.2075 13.6616L42.24 13.7041C42.0488 13.8955 41.8467 14.1049 41.6461 14.2837L41.5869 14.259L41.7768 14.0688C41.9122 13.9594 42.0907 13.7867 42.2075 13.6616Z" fill="#FFFCA7"/>
<path d="M9.18846 13.0959C9.42922 13.4836 10.491 14.3882 10.8592 14.7462L10.8113 14.7767C10.7548 14.7369 10.7346 14.72 10.6832 14.6733C10.6386 15.0294 11.007 15.835 10.892 16.2264C10.8694 16.3032 10.7412 16.4183 10.7193 16.5386C10.6786 16.7617 10.7646 16.9826 10.8967 17.1618C10.9574 17.0895 10.9204 16.8879 10.9954 16.77C11.0864 16.8191 11.1311 17.0399 11.2246 17.1464C11.4072 17.3542 11.9988 17.6895 12.1318 17.8672C12.1543 17.9541 12.1535 17.9571 12.1332 18.0462C12.0468 18.1339 12.0545 18.0941 11.918 18.1374L11.9231 18.182C11.9527 18.1842 12.089 18.1878 12.0989 18.2126C12.2127 18.4983 12.2929 19.0329 12.2295 19.3311C12.1485 19.3806 11.921 19.4502 11.8356 19.4336C11.7838 19.3816 11.7129 19.2949 11.647 19.2809C11.5664 19.3876 11.7255 19.7553 11.7656 19.8888C11.8146 20.052 11.8397 20.1912 11.8615 20.3595C11.931 20.3182 11.9554 20.3219 12.0361 20.323C12.1306 20.3702 12.7303 21.8544 12.7992 22.0266C12.8457 22.1428 12.91 22.8399 12.9138 23.0068C12.9162 23.1135 12.8918 23.4656 12.9307 23.5643C13.0065 23.7566 13.1893 23.9758 13.2893 24.165C13.3567 24.2927 13.3164 24.4261 13.3585 24.5706C13.3787 24.64 13.6168 24.8631 13.6266 24.8988C13.6606 25.0228 13.7491 25.9197 13.7348 25.99L13.6979 26.0055L13.631 25.9057L13.59 25.9116C13.5106 26.0174 13.5991 26.543 13.677 26.6233C13.7312 26.6116 13.7614 26.6062 13.8164 26.5996C13.9084 26.6908 13.9177 26.9551 14.0026 27.0602C14.0316 27.096 14.1729 27.1306 14.1681 27.2146C14.1608 27.34 14.1513 27.5533 14.0543 27.6452C13.9932 27.7029 13.9401 27.7102 13.9061 27.7793L13.9209 27.809C14.1575 27.8098 14.7188 27.8115 14.9174 27.9075C14.6039 27.9128 13.7912 27.8367 13.443 27.8042C12.7361 27.7384 11.8216 27.697 11.1298 27.5861C10.7794 27.5513 10.4295 27.5129 10.0799 27.4713L10.0297 27.1554L7.62793 13.5259L8.006 13.4952C8.1442 13.4712 8.27209 13.4428 8.40889 13.4121C8.74799 13.3158 8.88492 13.2599 9.18846 13.0959Z" fill="#F7BE05"/>
<path d="M8.006 13.4952C8.1442 13.4713 8.27209 13.4429 8.40889 13.4121C8.45853 13.5445 8.67501 14.7233 8.7162 14.9346L9.45821 18.7855L10.6526 24.7612L11.0041 26.5027C11.0649 26.8028 11.1659 27.2436 11.1971 27.5374C11.1612 27.5823 11.1832 27.5671 11.1298 27.5861C10.7794 27.5513 10.4295 27.513 10.0799 27.4714L10.0297 27.1555L7.62793 13.526L8.006 13.4952Z" fill="#FEF24A"/>
<path d="M8.00586 13.4952C8.14406 13.4713 8.27195 13.4429 8.40876 13.4121C8.4584 13.5445 8.67488 14.7233 8.71606 14.9346L9.45808 18.7855L10.6525 24.7612L11.004 26.5027C11.0648 26.8028 11.1657 27.2436 11.197 27.5374C11.1611 27.5823 11.183 27.5671 11.1296 27.5861C10.7793 27.5513 10.4293 27.513 10.0798 27.4714L10.0296 27.1555C10.1071 27.2461 10.0886 27.2885 10.1289 27.4122C10.2402 27.4521 10.4555 27.4782 10.5724 27.4589C10.5837 27.4216 10.3139 25.7618 10.2846 25.5891C10.0321 24.1256 9.76566 22.6644 9.48542 21.2058L8.52271 15.9772L8.24763 14.5025C8.21432 14.3193 8.11776 13.5945 8.00586 13.4952Z" fill="#FED70E"/>
<path d="M33.3481 17.8727C34.0416 18.3402 34.2754 18.7269 35.2103 18.4064C35.9641 18.1481 36.6068 17.8168 37.307 17.4478C37.2763 18.2216 37.192 19.041 37.128 19.8154C36.9876 21.4953 36.8274 23.1734 36.6474 24.8496L36.4184 26.9684C36.395 27.1825 36.3445 27.7873 36.3006 27.9734C35.3289 28.0315 34.3566 28.0803 33.3842 28.1194C33.4218 27.8614 33.4152 27.4557 33.4159 27.1863L33.4187 25.883L33.3809 20.0387C33.3778 19.477 33.3037 18.3867 33.3481 17.8727Z" fill="#FFF053"/>
<path d="M26.4751 8.39094C26.7988 8.34109 26.9687 8.29245 27.2701 8.17529C27.5946 8.84319 27.9302 9.50563 28.2768 10.1623C28.6696 10.8016 29.0335 11.453 29.4448 12.0819C30.5234 13.7321 31.8188 15.2906 33.2905 16.6042C33.6149 16.8938 34.0852 17.3729 34.5216 17.4681C35.322 17.6427 38.0842 15.9763 38.8535 15.4665C39.3898 15.1111 39.8976 14.7246 40.3983 14.3213C40.6162 14.1459 40.8244 13.9566 41.0463 13.7871C41.3372 13.4768 41.8679 13.0166 42.2043 12.6856C42.3998 12.8593 42.5634 12.9641 42.7835 13.0946C42.7358 13.1715 42.6075 13.3372 42.5385 13.3867C42.429 13.516 42.3638 13.5901 42.2399 13.7041L42.2074 13.6616C42.0906 13.7866 41.9121 13.9594 41.7768 14.0688L41.5868 14.2589L41.646 14.2837C40.3328 15.4835 38.8896 16.6208 37.307 17.4478C36.6067 17.8168 35.9641 18.1481 35.2102 18.4064C34.2754 18.7269 34.0415 18.3402 33.3481 17.8728C30.986 15.9755 28.6892 12.9182 27.3031 10.2257C27.1038 9.83848 26.7483 9.14219 26.6246 8.74473L26.6064 8.71713C26.5635 8.62339 26.5145 8.4896 26.4751 8.39094Z" fill="#FFF75E"/>
<path d="M26.625 8.74463C26.7316 8.87189 26.9975 9.49043 27.0955 9.67928C27.406 10.2679 27.7323 10.8481 28.0738 11.4193C29.4715 13.7348 31.2047 15.9021 33.272 17.6566C34.4113 18.6234 34.6449 18.5814 35.9924 17.9766C37.4797 17.3018 38.8805 16.4512 40.1653 15.443C40.6493 15.0604 41.1233 14.6656 41.5872 14.2588L41.6463 14.2836C40.3331 15.4834 38.8899 16.6207 37.3073 17.4477C36.6071 17.8168 35.9644 18.148 35.2106 18.4063C34.2757 18.7268 34.0419 18.3401 33.3484 17.8727C30.9863 15.9754 28.6895 12.9181 27.3034 10.2256C27.1041 9.83838 26.7487 9.14209 26.625 8.74463Z" fill="#FEFEF1"/>
<path d="M42.2045 12.6855C42.4 12.8592 42.5635 12.964 42.7836 13.0945C42.7359 13.1714 42.6077 13.3371 42.5386 13.3867C42.4292 13.516 42.3639 13.5901 42.24 13.704L42.2075 13.6615C42.0907 13.7866 41.9122 13.9593 41.7769 14.0687C41.6471 13.7363 41.0878 13.8725 40.9017 14.0863C40.8791 14.1122 40.7371 14.1381 40.6968 14.148C40.81 14.0414 41.0104 13.9248 41.0464 13.7871C41.3374 13.4767 41.868 13.0165 42.2045 12.6855Z" fill="#FEE821"/>
<path d="M42.2075 13.6615C42.2908 13.5661 42.4129 13.4099 42.5386 13.3867C42.4292 13.516 42.3639 13.5901 42.24 13.7041L42.2075 13.6615Z" fill="#FEF24A"/>
<path d="M26.4751 8.39094C26.7988 8.34109 26.9687 8.29245 27.2701 8.17529C27.5946 8.84319 27.9302 9.50563 28.2768 10.1623C28.191 10.105 28.191 10.0585 28.1237 10.0015C27.7647 9.69662 27.5857 9.25759 27.283 8.91294C27.1741 8.78893 26.9164 8.5592 26.7387 8.62075C26.6894 8.67546 26.6757 8.69263 26.6064 8.71713C26.5635 8.62339 26.5145 8.4896 26.4751 8.39094Z" fill="#FEE821"/>
<path d="M24.6249 8.38358C24.6939 8.33651 24.7103 8.32023 24.7488 8.24609C24.9301 8.27489 25.2723 8.34743 25.4012 8.47948C25.4078 8.4987 25.4146 8.51793 25.4212 8.53715C25.26 8.88396 24.9999 9.56062 24.845 9.86472C23.427 12.6496 21.4709 15.292 19.1318 17.3708C18.7514 17.7089 18.1691 18.2058 17.6954 18.386C17.3831 18.5048 16.9471 18.4267 16.6472 18.2927C15.4696 17.916 13.274 16.6874 12.2806 15.8698C11.9935 15.7227 11.1883 14.9675 10.8592 14.7464C10.491 14.3884 9.42923 13.4838 9.18848 13.0961C9.40031 12.9761 9.58513 12.8319 9.7765 12.6829C11.264 14.1895 12.9678 15.4658 14.8319 16.4697C15.3611 16.7492 16.981 17.6215 17.5513 17.4259C18.036 17.2295 18.4931 16.7653 18.8768 16.4192C21.4265 14.1197 23.0934 11.4149 24.6249 8.38358Z" fill="#FEE821"/>
<path d="M12.2803 15.8697L12.3297 15.8279C12.3779 15.8508 12.3807 15.8549 12.4197 15.8853C12.797 16.1782 13.23 16.4228 13.6245 16.6879C13.953 16.9087 14.1132 17.0305 14.4665 17.2209C14.8959 17.454 15.3339 17.6708 15.7796 17.8709C15.9477 17.9446 16.5798 18.1696 16.6469 18.2925C15.4693 17.9159 13.2736 16.6873 12.2803 15.8697Z" fill="#FEF24A"/>
<path d="M22.0157 19.9898C21.9132 19.6041 21.8888 18.1604 22.0829 17.7479C22.24 17.414 22.7153 17.2508 23.0303 17.0944C23.3335 16.9438 23.6754 16.7581 23.9743 16.5849C24.4834 16.3512 25.1688 15.5953 25.6832 15.4809C26.157 15.3755 26.9931 15.4422 27.4984 15.4542C27.8061 15.4616 28.2063 15.7619 28.2578 16.0823C28.335 16.5622 28.3096 17.0719 28.3091 17.5633L28.3078 19.7724L28.3091 24.0067C28.3094 24.6066 28.3804 26.2597 28.2169 26.7835C28.3106 26.9569 28.22 27.1339 28.1243 27.2862C27.9018 27.6432 27.4717 27.7059 27.0802 27.6825C26.5221 27.6493 25.8889 27.73 25.3386 27.6632C24.8086 27.5988 24.5391 27.1369 24.6343 26.6187C24.5793 26.3082 24.606 25.0323 24.6059 24.6397L24.6042 20.31C24.3833 20.2209 23.0544 21.1282 22.5719 20.9369C22.1176 20.7567 21.9199 20.4445 22.0157 19.9898ZM25.1217 26.5052C25.3619 26.881 25.7416 26.7873 26.1435 26.771C26.4457 26.7588 27.3907 26.8431 27.6109 26.6981C27.7056 26.6362 27.7706 26.5379 27.7909 26.4267C27.8343 26.1921 27.7183 25.975 27.6908 25.7488C27.6827 25.6823 27.7873 25.5888 27.7886 25.4987C27.7985 24.87 27.7932 24.2409 27.7924 23.6121C27.7924 23.4973 27.7927 23.3703 27.781 23.257C27.7315 23.6601 27.8325 24.9759 27.7261 25.2464C27.541 25.4131 27.2135 25.2544 27.0048 25.2574C26.7036 25.2617 26.6699 25.2986 26.3832 25.1553C26.288 25.0002 26.0064 24.6563 25.9767 24.5777C26.078 24.598 26.139 24.5646 26.2159 24.5896C26.2674 24.5534 26.2451 24.5771 26.2621 24.4925C26.0498 24.3854 25.4247 24.2251 25.1924 24.2154L25.1643 24.2145C25.0424 23.9171 25.2206 22.6668 25.118 22.234C25.114 23.0089 25.0783 23.8123 25.1463 24.5813C25.1566 24.6979 25.1073 24.8645 25.1195 24.9885C25.1201 25.4913 25.107 26.0032 25.1217 26.5052Z" fill="#221E0F"/>
<path d="M24.6346 26.6187C24.7322 26.8787 24.8725 27.0917 25.1333 27.2115C25.4121 27.3392 27.4251 27.3499 27.7374 27.2275C27.9514 27.1437 28.0982 26.9736 28.2172 26.7834C28.3109 26.9569 28.2203 27.1338 28.1246 27.2862C27.9021 27.6432 27.472 27.7059 27.0805 27.6825C26.5224 27.6493 25.8892 27.73 25.339 27.6632C24.8089 27.5987 24.5394 27.1369 24.6346 26.6187Z" fill="#F7BE05"/>
<path d="M22.0158 19.9898C22.1411 20.2345 22.2557 20.3916 22.5305 20.4889C23.0646 20.678 24.1119 20.0785 24.6049 19.8247L24.6043 20.31C24.3834 20.2209 23.0545 21.1282 22.572 20.9369C22.1177 20.7567 21.92 20.4445 22.0158 19.9898Z" fill="#F7BE05"/>
<path d="M25.1156 18.9371C24.6818 19.1936 23.1643 20.1029 22.6949 19.9844C22.6243 19.9666 22.5644 19.9291 22.5276 19.865C22.4359 19.7052 22.4332 18.2667 22.5048 18.0571C22.5353 17.9681 22.5838 17.9188 22.6606 17.8657C22.8916 17.7063 23.1739 17.5995 23.4248 17.4742C23.8442 17.2646 24.2682 17.0263 24.658 16.7653C24.983 16.5477 25.366 16.1749 25.7088 16.0246C25.9576 15.9154 27.3137 15.92 27.5737 16.0242C27.6389 16.0504 27.6902 16.0806 27.7304 16.1387C27.8164 16.4963 27.786 17.4199 27.786 17.8286V20.6578L27.7857 22.3956C27.7857 22.6199 27.7981 23.051 27.7814 23.257C27.7319 23.6601 27.8329 24.976 27.7265 25.2465C27.5414 25.4132 27.2139 25.2544 27.0052 25.2574C26.7041 25.2617 26.6703 25.2987 26.3836 25.1553C26.2884 25.0002 26.0068 24.6564 25.9771 24.5778C26.0784 24.5981 26.1394 24.5646 26.2163 24.5897C26.2679 24.5535 26.2455 24.5772 26.2625 24.4925C26.0503 24.3854 25.4251 24.2252 25.1929 24.2155L25.1647 24.2146C25.0429 23.9171 25.221 22.6668 25.1184 22.234L25.1156 18.9371Z" fill="#FFFFFE"/>
<path d="M25.1184 22.2341C25.221 22.6669 25.0428 23.9172 25.1646 24.2147L25.1928 24.2156C25.4251 24.2253 26.0502 24.3855 26.2625 24.4926C26.2455 24.5773 26.2678 24.5536 26.2163 24.5898C26.1393 24.5647 26.0784 24.5982 25.9771 24.5779C26.0068 24.6565 26.2884 25.0003 26.3836 25.1554C26.6703 25.2988 26.704 25.2618 27.0052 25.2575C27.2139 25.2545 27.5414 25.4133 27.7265 25.2466C27.8329 24.9761 27.7318 23.6602 27.7814 23.2571C27.793 23.3705 27.7928 23.4974 27.7928 23.6122C27.7935 24.2411 27.7989 24.8701 27.789 25.4989C27.7877 25.589 27.6831 25.6824 27.6912 25.749C27.7186 25.9752 27.8347 26.1923 27.7913 26.4269C27.7709 26.5381 27.7059 26.6364 27.6112 26.6983C27.3911 26.8433 26.4461 26.759 26.1439 26.7712C25.742 26.7874 25.3623 26.8811 25.122 26.5053C25.1074 26.0034 25.1205 25.4915 25.1199 24.9887C25.1076 24.8646 25.157 24.698 25.1467 24.5814C25.0787 23.8125 25.1144 23.009 25.1184 22.2341Z" fill="#F1E8B4" fill-opacity="0.643137"/>
<path d="M25.883 2.98537C27.1663 2.90285 28.2756 3.87115 28.3673 5.15373C28.4592 6.43632 27.4989 7.55267 26.2169 7.65364C24.9219 7.75566 23.7916 6.78338 23.6989 5.48767C23.6063 4.19196 24.5866 3.06871 25.883 2.98537Z" fill="#FFD80A"/>
<path d="M26.5452 3.91002C26.957 3.82296 27.3623 4.08466 27.4519 4.49601C27.5418 4.90734 27.2828 5.3141 26.8722 5.40672C26.4576 5.50024 26.046 5.23823 25.9554 4.82294C25.8645 4.40765 26.1293 3.99792 26.5452 3.91002Z" fill="#FFFCA7"/>
<path d="M6.40449 8.76525C7.20335 8.16441 8.30533 8.17177 9.0961 8.78325C9.84918 9.36561 10.147 10.3634 9.83629 11.2632C9.52558 12.1631 8.6756 12.7645 7.72366 12.7582C6.77171 12.7518 5.92984 12.139 5.63122 11.2351C5.33257 10.3312 5.64368 9.33748 6.40449 8.76525Z" fill="#FED70E"/>
<path d="M6.40479 8.76525C7.20365 8.16441 8.30563 8.17177 9.0964 8.78325L9.0806 8.80425C9.07491 8.87273 9.36614 9.26824 9.44023 9.39928C9.25326 9.21817 9.00321 8.89652 8.78142 8.7766C8.56022 8.65701 8.1382 8.55692 7.92759 8.3884C7.87186 8.34382 7.48122 8.55047 7.36003 8.56357C7.19134 8.58186 6.98603 8.54387 6.81662 8.56695C6.70262 8.59067 6.54794 8.80511 6.40479 8.76525Z" fill="#FEE821"/>
<path d="M8.13478 9.16538C8.51617 9.06016 8.91061 9.28413 9.01571 9.66555C9.12077 10.047 8.89667 10.4414 8.51521 10.5463C8.13394 10.6512 7.73983 10.4272 7.63479 10.046C7.52977 9.66476 7.75359 9.27054 8.13478 9.16538Z" fill="#FFFCA7"/>
<path d="M43.9911 8.32956C45.2106 8.20088 46.3029 9.08658 46.4289 10.3063C46.5548 11.526 45.6669 12.6163 44.4469 12.7397C43.2307 12.8627 42.1444 11.978 42.0188 10.762C41.8931 9.54603 42.7754 8.45783 43.9911 8.32956Z" fill="#FED70E"/>
<path d="M44.6267 9.17419C44.8717 9.09988 45.1375 9.16297 45.3232 9.33936C45.5088 9.51575 45.5852 9.77826 45.5235 10.0267C45.4615 10.2752 45.2711 10.4712 45.0246 10.5401C44.649 10.645 44.259 10.4282 44.1501 10.0539C44.0412 9.67965 44.2537 9.28736 44.6267 9.17419Z" fill="#FFFCA7"/>
</svg>
