<svg width="20" height="24" viewBox="0 0 20 24" fill="none" xmlns="http://www.w3.org/2000/svg">
<path d="M8.62587 7.34309e-06C8.9059 -0.00103731 9.13023 0.109505 9.36626 0.250913C9.90221 0.572095 12.7083 2.61505 12.7894 3.13201C12.8124 3.27888 12.7283 3.40234 12.6404 3.51112C12.2415 4.00462 9.29951 6.21943 8.7418 6.24274C8.63889 6.24701 8.54417 6.20152 8.469 6.13201C8.12052 5.80964 8.21957 4.86537 8.2176 4.41997C7.28029 4.6477 6.39191 5.04605 5.59591 5.59539C2.0802 8.02434 1.18468 12.8792 3.60982 16.4164C4.07437 17.0568 4.98159 17.8442 4.4557 18.6882C4.30259 18.9331 4.05815 19.1051 3.77774 19.1655C3.49277 19.2287 3.11947 19.1626 2.90253 18.9822C1.49992 17.8159 0.488239 15.6229 0.166651 13.8995C-0.314909 11.2614 0.256812 8.53803 1.75687 6.32441C3.26623 4.10648 5.5889 2.58808 8.21022 2.10555C8.21285 1.48056 8.08513 0.375274 8.62587 7.34309e-06Z" fill="#111111"/>
<path d="M16.3866 4.90722C17.1143 4.87565 17.5387 5.49764 17.9457 6.01094C20.6298 9.39613 20.6506 14.3359 18.2021 17.8575C16.6852 20.0425 14.3793 21.5383 11.7812 22.0227C11.7931 23.9637 11.7909 24.6969 9.85339 23.2097C9.40925 22.8687 8.92689 22.5158 8.47617 22.1788C7.25539 21.2976 6.56319 20.9588 8.20493 19.877C8.89723 19.4208 10.7769 17.6524 11.5416 17.9413C11.8596 18.2085 11.7716 19.205 11.8333 19.7057C13.8699 19.0889 15.3527 18.1284 16.5415 16.2998C18.1185 13.8739 18.1822 10.5276 16.6465 8.0642C16.3244 7.42274 15.5615 6.88674 15.4109 6.18169C15.2635 5.49132 15.7952 5.02788 16.3866 4.90722Z" fill="#111111"/>
</svg>
