<svg width="64" height="67" viewBox="0 0 64 67" fill="none" xmlns="http://www.w3.org/2000/svg">
<path d="M13.4492 0.0443434C16.7221 -0.16011 18.9561 0.325749 21.8354 1.8502C22.0115 1.94341 24.77 1.61239 25.1616 1.58817C27.2125 1.46161 29.1658 1.69638 31.179 2.05848C33.8734 2.42388 36.2488 3.83942 38.8186 4.55411C41.3564 5.25981 43.6337 6.75262 45.4846 8.62255C47.3603 10.5175 49.5637 12.6154 51.0757 14.8139C51.8686 14.069 52.5994 13.355 53.4402 12.6518C53.9368 12.2365 54.7961 11.6847 55.2177 11.2525C56.5729 9.86294 57.8 7.47208 59.6058 6.64184C60.0636 6.4502 60.9504 6.37247 61.3938 6.6277C63.5823 7.88731 61.8798 11.0425 61.1275 12.5538C62.0326 13.2471 62.8147 14.1608 63.114 15.2809C63.6995 17.4725 62.7478 19.8625 60.5319 20.6869C60.1423 20.8319 59.7272 20.936 59.3254 21.0443C59.0182 21.4078 58.5749 22.1889 58.3019 22.6125C57.6724 23.5899 57.0637 24.5925 56.4046 25.5521C54.2925 28.5723 51.9986 31.4611 49.5352 34.2022C47.8782 36.0322 45.9882 37.7313 44.0962 39.311C43.9091 39.4672 42.6594 40.466 42.6318 40.6463C42.3111 42.7456 42.7 44.9695 42.3379 47.0915C42.0907 48.8157 41.9043 50.3432 41.2411 51.9878C40.9025 52.8276 40.5049 53.6473 40.2265 54.5067C39.9273 55.8309 39.8176 57.5356 39.6674 58.9145C40.3636 60.4192 40.7806 61.0637 40.356 62.7223C39.2692 66.6731 31.1078 66.0848 28.2175 64.7739C26.823 64.1411 26.4425 63.2332 25.9806 61.8653C25.7466 62.7403 25.4853 63.8942 24.7835 64.5051C21.9029 67.0106 14.2207 66.6707 11.5448 64.1043C9.95911 62.584 10.294 58.8395 10.3525 56.8215C7.10059 57.2598 3.15402 55.9504 1.48474 52.9825C0.947414 52.0275 0.541774 50.4572 0.893376 49.3954C1.64151 47.1362 4.21241 48.0424 5.82809 48.5423C5.24276 47.2002 4.80159 46.1783 4.71545 44.687C4.45369 40.1549 6.63716 36.6417 10.2165 34.0886C6.26138 29.5998 5.74872 24.8153 7.42559 19.1422C7.70739 18.1889 8.14294 17.2214 8.51466 16.2966C8.00802 16.3931 7.49786 16.4701 6.98536 16.5277C3.83752 16.8945 0.425118 16.1392 0.0316333 12.3492C-0.215039 9.97333 1.01657 7.49473 2.48342 5.692C5.15823 2.40473 9.25583 0.442547 13.4492 0.0443434Z" fill="#111111"/>
<path d="M14.2243 1.37367C17.1423 1.2025 18.9895 1.95531 21.4548 3.28656C22.1454 3.2882 23.1135 3.14602 23.8216 3.08633C27.3556 2.78828 30.9098 3.08828 34.2599 4.31672C34.9807 4.58102 35.6897 4.94305 36.4097 5.21703C37.6474 5.68797 38.9783 5.92992 40.1822 6.50211C43.5575 8.06617 46.5422 11.5802 48.9974 14.2945C50.4116 16.0086 51.5534 18.0319 51.2958 20.3147C51.0502 22.4913 49.4984 23.7498 47.3497 23.4559C45.6918 23.2292 44.6806 22.2225 43.6945 20.9553C43.6386 19.8426 42.9566 15.2426 41.5884 15.1498C41.3155 15.202 41.176 15.3724 40.972 15.5642C41.7724 17.2748 42.3774 20.408 42.4574 22.2648C42.6349 26.3848 41.8255 29.5489 39.1115 32.6466C31.912 40.2055 11.4471 39.8191 8.30696 28.0855C7.33056 24.437 8.18782 19.6363 10.0183 16.3574C10.3393 15.7825 10.7787 15.1145 11.0004 14.5098C10.9565 14.247 10.7204 13.998 10.4858 14.0717C8.9947 14.5397 7.73805 15.2493 6.12493 15.3125C-0.533953 15.5737 0.680898 9.53594 3.88927 6.13352C6.70118 3.15156 10.2258 1.61406 14.2243 1.37367Z" fill="#FDF8F1"/>
<path d="M25.763 23.1696C26.91 22.9971 29.9038 23.2011 30.9029 23.7046C32.8918 24.7067 32.3879 28.1972 31.4929 29.8119C30.5554 31.5031 29.6241 31.993 27.8418 32.5341L27.7164 32.5542C24.4103 33.0766 21.7021 30.9784 21.2951 27.6889C20.8129 23.7905 22.6515 23.5219 25.763 23.1696Z" fill="#111111"/>
<path d="M34.1244 17.283C34.8537 17.1233 35.6042 17.4415 35.9965 18.0767C36.3536 18.6553 36.3452 19.3878 35.975 19.9579C35.7108 20.3647 35.2903 20.6442 34.813 20.7305C33.8699 20.9008 32.9642 20.2845 32.7766 19.3447C32.5888 18.405 33.1883 17.4881 34.1244 17.283Z" fill="#111111"/>
<path d="M18.6812 18.0535C19.6333 17.8979 20.5322 18.5411 20.6923 19.4925C20.8524 20.4439 20.2134 21.3458 19.2628 21.5102C18.3058 21.6758 17.3967 21.0317 17.2355 20.074C17.0744 19.1163 17.7228 18.2102 18.6812 18.0535Z" fill="#111111"/>
<path d="M60.1287 7.74694C62.7959 7.47272 59.8874 12.598 58.7566 13.2931C58.3201 13.1168 57.8677 12.7688 57.4068 12.8668C56.4347 13.5923 57.9443 14.028 58.4121 14.5355C59.4313 15.6413 58.8071 16.3304 57.7637 16.8824C57.2019 16.5969 56.3615 15.9673 56.0135 16.7103C55.7791 17.2108 57.1319 17.7115 57.1589 17.7749C57.5951 18.7995 57.4352 19.2298 58.3741 20.0405C58.2622 20.2032 58.1548 20.3829 58.0519 20.5526C54.9784 25.6193 51.4149 30.3681 47.2826 34.6144C46.0649 35.845 44.791 37.0187 43.4651 38.1319C42.8579 38.6368 41.2687 39.5208 41.2666 40.3056C41.2566 44.0905 41.3482 47.8908 40.024 51.5155C39.7102 52.3743 39.2771 53.1735 39.0009 54.0407C38.6321 55.5454 38.5481 57.2977 38.3276 58.8407C38.3005 59.8813 39.2221 60.493 39.2456 61.593C39.2998 64.1297 35.9455 64.418 34.0706 64.4633C32.3496 64.5055 29.3561 64.2696 27.9999 63.0313C26.9914 62.111 27.1109 59.3618 27.1116 58.061C27.8865 58.0321 29.7632 58.1899 29.9594 57.2751C29.6199 55.8313 27.8076 56.811 26.7241 56.6829C26.5169 56.6587 25.3569 56.8055 25.2942 56.9063C24.1392 58.7626 25.3846 61.9657 23.7909 63.6399C21.7405 65.5704 13.4616 65.286 12.1178 62.6751C11.1146 60.7266 11.8105 55.4774 11.934 53.0969C12.3048 53.1274 12.8235 53.1305 13.2048 53.1423C13.9416 53.1462 14.4391 53.0719 15.1426 52.8229C16.4579 52.3706 17.5315 51.4011 18.1149 50.1386C18.7198 48.8347 18.7837 47.3444 18.2929 45.9934C17.7695 44.5487 16.6203 43.2745 15.2467 42.5112C14.6969 42.2057 14.3032 42.4476 14.0654 43.0048C14.1326 43.4548 15.8323 44.6556 16.3505 45.3445C17.6841 46.7985 17.4755 49.93 15.6998 50.939C10.5117 53.8876 4.97139 47.605 6.10124 42.4542C6.91476 38.7454 8.50429 37.0061 11.2599 34.9849C13.9523 37.5971 19.3112 38.8686 22.9785 39.0991C31.0307 39.6052 40.7005 36.9086 43.1973 28.2504C43.6127 26.8101 43.6437 25.3801 43.9994 23.9431C44.0869 23.8665 44.1609 23.8019 44.2211 23.7492C44.4705 23.753 45.7226 24.5066 46.2455 24.6518C51.839 26.2048 54.193 20.4368 51.7776 16.0353C52.55 15.3802 53.3835 14.3659 54.2464 13.6821C54.7712 13.2662 55.7084 12.706 56.0672 12.3147C57.3035 10.9662 58.6013 8.74022 60.1287 7.74694Z" fill="#FDF8F1"/>
<path d="M2.8639 49.2286C3.37233 49.2172 6.16593 50.0197 6.99999 50.1848C7.93757 51.1685 9.37405 52.3336 10.7153 52.6679C10.5155 53.5068 10.5263 54.592 10.2562 55.3412C10.2397 55.3873 10.067 55.3998 9.99163 55.4139C7.19804 56.0061 3.41429 54.4068 2.32647 51.6924C1.91132 50.6565 1.68684 49.743 2.8639 49.2286Z" fill="#FDF8F1"/>
<path d="M59.8752 13.5791C62.2135 13.8373 63.0269 18.5924 59.8722 19.5547C59.4457 19.7757 58.9342 19.4157 58.6881 19.0717L58.6569 19.0275C58.3813 18.6425 58.3328 18.3157 58.2266 17.8589C60.2543 16.9245 59.9492 15.7248 59.5291 13.9655C59.5013 13.8495 59.7892 13.651 59.8752 13.5791Z" fill="#FDF8F1"/>
</svg>
