<svg width="30" height="27" viewBox="0 0 30 27" fill="none" xmlns="http://www.w3.org/2000/svg">
<path d="M13.6856 0.0364814C14.1997 -0.0214405 15.057 0.0014345 15.5753 0.0246376C19.6797 0.208364 23.436 1.93818 26.1834 5.02638C28.4004 7.52814 29.5317 10.8088 29.3281 14.1453C29.2688 15.1469 29.0578 16.1958 28.7313 17.1443C26.5107 23.5963 20.1163 27.0242 13.5137 26.6152C12.7768 26.5639 12.046 26.4467 11.33 26.265C10.5606 26.0774 9.74424 25.8484 8.97205 25.6126C7.13502 25.0513 1.68314 29.361 2.55916 24.8579C2.7447 23.9038 3.22822 22.5484 3.52939 21.5931C1.49556 19.8313 0.362439 17.3782 0.0726735 14.7355C-0.45592 9.9147 1.94095 5.33079 5.89666 2.63077C8.31931 0.977153 10.7922 0.286692 13.6856 0.0364814Z" fill="#111111"/>
<path d="M13.3461 1.44324C13.8332 1.34751 15.1792 1.37876 15.6935 1.40926C19.326 1.63934 22.6938 3.21073 25.1009 5.92943C29.3935 10.7775 28.7688 17.7699 23.8951 21.955C20.9307 24.5004 17.3055 25.5352 13.4262 25.2351C11.3881 24.9913 10.4587 24.8113 8.59283 23.935C7.25924 24.3496 4.9608 25.3979 3.67541 25.6215C3.98494 24.5647 4.69478 22.2097 5.06244 21.3055C4.51892 20.737 3.85807 20.109 3.38596 19.4981C-0.560216 14.3929 1.56275 7.08802 6.75768 3.74613C8.96807 2.32415 10.8132 1.73057 13.3461 1.44324Z" fill="white"/>
<path d="M11.8545 7.58221C13.0572 7.4644 13.4286 8.41432 13.7812 9.32369L15.7779 14.5848C16.1104 15.4587 16.4506 16.331 16.756 17.2146C17.1929 18.4785 16.9253 18.7254 15.7835 19.1473C15.6806 19.1076 15.579 19.0646 15.4789 19.0185C14.5966 18.6074 14.4741 17.5278 14.1402 16.6055C13.523 16.5861 12.871 16.5897 12.2505 16.5828C11.5188 16.5682 10.769 16.5913 10.036 16.6053C9.86535 17.4442 9.66402 18.4024 8.90848 18.9445C8.1884 19.4611 7.02942 18.509 7.30801 17.7246C8.42895 14.5687 9.61309 11.4131 10.8338 8.29596C10.942 8.01963 11.5912 7.71721 11.8545 7.58221Z" fill="#6D59F8"/>
<path d="M12.1162 11.1387C12.3129 11.3951 13.039 13.7449 13.3703 14.3914L12.0468 14.3764C11.6618 14.3543 11.269 14.3617 10.8828 14.3633C11.1359 13.7005 11.8359 11.6673 12.1162 11.1387Z" fill="white"/>
<path d="M19.8904 7.59375C21.045 7.73469 21.1203 8.46399 21.1163 9.44797C21.1036 12.167 21.1548 14.8905 21.1042 17.6085C21.0866 18.5514 20.8999 18.8138 20.0186 19.1053C18.8514 18.9603 18.7844 18.338 18.776 17.3192C18.7592 14.5498 18.7417 11.7745 18.7849 9.0057C18.7995 8.07524 19.0611 7.86648 19.8904 7.59375Z" fill="#6D59F8"/>
</svg>
