<svg width="25" height="12" viewBox="0 0 25 12" fill="none" xmlns="http://www.w3.org/2000/svg">
<path d="M18.4102 0C19.6582 0 20.1111 0.130042 20.5674 0.374023C21.0237 0.618053 21.3819 0.976321 21.626 1.43262C21.87 1.88887 22 2.34185 22 3.58984V7.91016C22 9.15815 21.87 9.61113 21.626 10.0674C21.3819 10.5237 21.0237 10.8819 20.5674 11.126C20.1111 11.37 19.6582 11.5 18.4102 11.5H3.58984C2.34185 11.5 1.88887 11.37 1.43262 11.126C0.976321 10.8819 0.618053 10.5237 0.374023 10.0674C0.130042 9.61113 0 9.15815 0 7.91016V3.58984C0 2.34185 0.130042 1.88887 0.374023 1.43262C0.618053 0.976321 0.976321 0.618053 1.43262 0.374023C1.88887 0.130042 2.34185 0 3.58984 0H18.4102ZM3.58984 1C2.60305 1 2.25812 1.06668 1.9043 1.25586C1.62227 1.40669 1.40669 1.62227 1.25586 1.9043C1.06668 2.25812 1 2.60305 1 3.58984V7.91016C1 8.89695 1.06668 9.24188 1.25586 9.5957C1.40669 9.87773 1.62227 10.0933 1.9043 10.2441C2.25812 10.4333 2.60305 10.5 3.58984 10.5H18.4102C19.397 10.5 19.7419 10.4333 20.0957 10.2441C20.3777 10.0933 20.5933 9.87773 20.7441 9.5957C20.9333 9.24188 21 8.89695 21 7.91016V3.58984C21 2.60305 20.9333 2.25812 20.7441 1.9043C20.5933 1.62227 20.3777 1.40669 20.0957 1.25586C19.7419 1.06668 19.397 1 18.4102 1H3.58984ZM23 3.69043C23.0184 3.69985 24.5 4.46155 24.5 5.69043C24.4997 6.92675 23 7.69043 23 7.69043V3.69043Z" fill="black" fill-opacity="0.36"/>
<rect x="2" y="1.91797" width="18" height="7.66667" rx="1.6" fill="black"/>
</svg>
