<svg width="259" height="70" viewBox="0 0 259 70" fill="none" xmlns="http://www.w3.org/2000/svg">
<path d="M5.86811 5.01696C15.0759 -4.02199 30.2856 -0.475825 34.6031 12.6706C35.1178 14.2378 35.388 16.8545 35.654 18.5446C50.2512 18.2209 66.4955 18.9653 81.2275 19.0975L174.931 20.125C190.022 20.4016 208.494 21.2284 223.427 20.9277C223.816 15.9263 225.589 11.3201 229.277 7.93659C232.571 4.91929 236.957 3.36385 241.483 3.6073C245.936 3.88795 250.609 6.20956 253.647 9.56442C256.767 13.0048 258.423 17.5141 258.248 22.0873C257.975 29.3943 254.33 32.4809 249.467 36.8698C253.544 41.6389 256.885 45.1831 257.042 51.8441C257.175 57.4743 255.161 60.8797 251.448 64.7018C248.289 67.2826 245.591 68.759 241.334 69.0501C236.845 69.358 232.363 67.8634 228.87 64.8938C223.951 60.6434 222.957 55.6844 222.409 49.6662L35.2286 46.6212C34.6553 52.0945 33.8764 56.315 29.8836 60.3643C26.44 63.8565 22.2874 65.7586 17.264 65.664C12.7275 65.5469 8.36815 63.6264 5.14436 60.3249C0.467325 55.4884 -1.19421 48.7691 0.879293 42.5175C2.441 37.8087 5.54037 35.4741 8.94233 32.1486C5.07149 27.9308 1.64375 24.1083 1.20132 18.1351C0.809652 12.8443 2.52061 8.857 5.86811 5.01696Z" fill="#FF928E"/>
</svg>
