<svg width="46" height="46" viewBox="0 0 46 46" fill="none" xmlns="http://www.w3.org/2000/svg">
<path d="M26.5414 3.2961C24.9903 3.06926 23.4967 2.79761 21.9213 2.80739C19.8136 2.82047 17.8153 3.17171 15.7905 3.72811C13.3811 4.39022 10.9868 5.56421 8.98756 7.03063C3.20378 11.273 -0.0919571 19.0679 1.3844 26.1424C2.24173 31.7537 5.67714 36.2918 10.4546 39.2037C11.3207 39.7316 7.54652 46.112 12.8024 44.7828C14.2258 44.4228 15.3017 43.9699 16.4827 43.0335C16.7111 42.8524 17.2734 42.3451 17.5238 42.3399L17.5526 42.3391C17.9661 42.3305 18.5184 42.4882 18.9373 42.5248C20.1714 42.6326 21.4665 42.8749 22.6965 42.9248C23.6159 42.9298 24.5739 42.8089 25.4858 42.6762C26.3593 42.5491 27.3829 42.5287 28.2275 42.3089C29.7003 41.9256 31.3831 41.3135 32.7767 40.6861C34.7741 39.7869 36.6611 38.3316 38.2413 36.8349C40.1492 34.9061 41.6198 32.5289 42.5415 29.9883C42.9782 28.7845 43.2378 28.2458 43.4048 26.9066C43.4339 26.568 43.4797 26.2162 43.5408 25.8817C43.7603 24.6808 43.7499 23.4499 43.7168 22.2366C43.4866 18.7364 42.5462 15.4426 40.5322 12.5332C40.1827 12.0022 39.5634 11.293 39.2865 10.8353C39.1529 10.7042 39.0204 10.524 38.8943 10.3799C35.9427 7.00674 31.9214 4.64919 27.5793 3.5705C27.5701 3.56678 27.5609 3.56305 27.5517 3.55932C27.281 3.50621 26.7916 3.38283 26.5414 3.2961Z" fill="#272114"/>
<path d="M23.0973 4.28622C21.6799 4.08407 19.68 4.41709 18.2736 4.6404C14.7313 5.20296 11.3949 6.75869 8.6679 9.10299C5.10636 12.206 2.92141 16.5952 2.59262 21.3075C2.1598 27.0426 4.09634 31.9085 8.24119 35.874C9.00944 36.6091 11.0429 37.8677 11.5239 38.3147C12.2188 38.9606 11.2779 42.5234 11.1651 43.6116C12.4615 43.7926 13.5758 43.301 14.6814 42.6919C15.6745 42.1448 16.3378 41.4241 17.3318 40.867C17.7587 40.8724 18.1437 40.9607 18.5588 41.0451C19.2251 41.1631 19.8968 41.2485 20.5713 41.3011C26.2456 41.7669 31.6009 40.6691 36.0353 36.905C39.6428 33.8725 41.8887 29.5239 42.2732 24.8268C42.6791 19.8189 41.2867 15.357 38.0266 11.527C35.4381 8.52722 32.0472 6.32857 28.2524 5.18921C27.0198 4.82606 24.4026 4.39099 23.0973 4.28622Z" fill="#FEF8ED"/>
<rect x="30.6333" y="11.7573" width="1.29855" height="4.53367" rx="0.649276" transform="rotate(40.1166 30.6333 11.7573)" fill="#897859"/>
<rect x="35.522" y="17.1436" width="1.29855" height="4.92177" rx="0.649276" transform="rotate(83.209 35.522 17.1436)" fill="#F9ECDB"/>
<rect x="24.1123" y="9.17334" width="1.32583" height="4.42183" rx="0.662915" transform="rotate(10.0325 24.1123 9.17334)" fill="#C4AF8E"/>
<rect x="17.5835" y="9.86279" width="1.39456" height="4.60862" rx="0.697281" transform="rotate(-21.344 17.5835 9.86279)" fill="#C4AF8E"/>
<path d="M21.5842 16.3692C19.8478 16.2665 19.5781 16.9752 18.7265 18.2592C18.0923 18.1742 17.5399 18.0046 16.9109 17.8928C15.293 17.6052 13.5758 18.2258 12.9708 19.8525C12.7093 20.5558 12.6173 21.3822 12.4701 22.1193C12.154 23.7026 11.8728 25.2918 11.606 26.8836C11.3299 28.5367 10.9906 31.0489 12.9528 31.85C14.5205 32.4901 16.4389 32.6618 18.0968 33.0056C19.4925 33.2951 20.8512 33.5503 22.2677 33.7658C24.163 34.0341 26.218 34.506 28.1246 34.5243C28.4062 34.527 28.8127 34.3958 29.0599 34.2576C29.9599 33.7542 30.2849 33.0303 30.5501 32.0691C30.971 30.5437 31.2231 28.9549 31.4829 27.3939C31.6689 26.2769 32.0856 24.6035 32.0485 23.5157C32.0298 22.9759 31.8779 22.4491 31.6064 21.9822C31.0488 21.005 30.5074 20.7572 29.4497 20.4764C28.7687 20.2956 28.0683 20.1016 27.3865 19.9164C27.2285 17.6354 26.2441 16.9891 24.0971 16.7149C23.2716 16.6094 22.4223 16.4562 21.5842 16.3692Z" fill="#272114"/>
<path d="M21.262 17.5357C20.3097 17.3958 20.1025 18.8691 18.9469 19.5046C16.9702 19.5223 14.4247 18.0937 13.9203 21.049C13.7087 22.2888 13.5136 23.5432 13.2404 24.7715C13.1592 25.1366 13.0953 25.5066 13.0184 25.8726C12.912 27.0178 12.2958 29.1307 12.8916 30.1214C13.375 30.9252 15.3007 31.0954 16.1335 31.3152C18.2532 31.7941 20.4213 32.1312 22.5567 32.5569C23.38 32.7305 24.3842 32.806 25.2244 32.9441C25.8335 33.0442 26.4086 33.1556 26.9971 33.2792C27.4892 33.3826 28.1849 33.399 28.5793 33.0682C28.6991 32.9853 29.0104 32.7419 29.0494 32.5986C29.4656 31.0704 29.8335 29.3908 30.1269 27.8403C30.3027 26.9035 30.4732 25.9656 30.6382 25.0268C30.7927 24.15 30.9996 23.6501 30.6308 22.7936C29.9324 21.1717 27.5628 21.7901 26.4212 20.7312C26.0152 20.3547 26.113 19.0217 25.7397 18.5542C25.3707 18.0596 24.0729 17.9521 23.4676 17.8642C22.7317 17.7599 21.9965 17.6504 21.262 17.5357Z" fill="#A49C7C"/>
<path d="M22.2156 21.3647C19.5049 21.0674 17.0714 23.0365 16.7965 25.7497C16.5218 28.4628 18.5109 30.8799 21.2263 31.1322C23.91 31.3816 26.2928 29.4206 26.5645 26.7391C26.8361 24.0575 24.8949 21.6585 22.2156 21.3647Z" fill="#272114"/>
<path d="M21.7691 22.7197C19.8067 22.6743 18.1809 24.2319 18.1423 26.1945C18.1037 28.157 19.667 29.7773 21.6296 29.8091C23.5826 29.8407 25.1933 28.2868 25.2317 26.3339C25.2701 24.381 23.7218 22.7649 21.7691 22.7197Z" fill="#FEF8ED"/>
<path d="M16.0669 20.231C15.6286 20.1754 15.2627 20.6027 15.0542 20.9355C15.0409 21.2468 14.9898 21.4441 15.1925 21.702C15.4945 22.0865 16.1708 22.1071 16.6325 22.1572C16.8008 22.1407 16.8847 22.1284 17.0189 22.0274C18.5527 20.8724 17.0717 20.3915 16.0669 20.231Z" fill="#FEF8ED"/>
</svg>
