<svg width="20" height="20" viewBox="0 0 20 20" fill="none" xmlns="http://www.w3.org/2000/svg">
<path d="M13.4166 11.083L12.2083 9.87467C12.3333 9.2219 12.1458 8.61079 11.6458 8.04134C11.1458 7.4719 10.4999 7.24967 9.70825 7.37467L8.49992 6.16634C8.73603 6.05523 8.97561 5.9719 9.21867 5.91634C9.46172 5.86079 9.72214 5.83301 9.99992 5.83301C11.0416 5.83301 11.927 6.19759 12.6562 6.92676C13.3853 7.65592 13.7499 8.54134 13.7499 9.58301C13.7499 9.86079 13.7221 10.1212 13.6666 10.3643C13.611 10.6073 13.5277 10.8469 13.4166 11.083ZM16.0833 13.708L14.8749 12.5413C15.4027 12.1386 15.8714 11.6976 16.2812 11.2184C16.6909 10.7393 17.0416 10.1941 17.3333 9.58301C16.6388 8.18023 15.6423 7.06565 14.3437 6.23926C13.0451 5.41287 11.5971 4.99967 9.99992 4.99967C9.59714 4.99967 9.20131 5.02745 8.81242 5.08301C8.42353 5.13856 8.04159 5.2219 7.66659 5.33301L6.37492 4.04134C6.94436 3.80523 7.5277 3.62815 8.12492 3.51009C8.72214 3.39204 9.34714 3.33301 9.99992 3.33301C12.0971 3.33301 13.9652 3.91287 15.6041 5.07259C17.243 6.23231 18.4305 7.73579 19.1666 9.58301C18.8471 10.4025 18.427 11.1629 17.9062 11.8643C17.3853 12.5656 16.7777 13.1802 16.0833 13.708ZM16.4999 18.833L12.9999 15.3747C12.5138 15.5275 12.0242 15.642 11.5312 15.7184C11.0381 15.7948 10.5277 15.833 9.99992 15.833C7.9027 15.833 6.03464 15.2531 4.39575 14.0934C2.75686 12.9337 1.56936 11.4302 0.833252 9.58301C1.12492 8.8469 1.49297 8.16287 1.93742 7.53092C2.38186 6.89898 2.88881 6.33301 3.45825 5.83301L1.16659 3.49967L2.33325 2.33301L17.6666 17.6663L16.4999 18.833ZM4.62492 6.99967C4.22214 7.36079 3.85409 7.75662 3.52075 8.18717C3.18742 8.61773 2.9027 9.08301 2.66659 9.58301C3.36103 10.9858 4.35756 12.1004 5.65617 12.9268C6.95478 13.7531 8.4027 14.1663 9.99992 14.1663C10.2777 14.1663 10.5485 14.149 10.8124 14.1143C11.0763 14.0795 11.3471 14.0413 11.6249 13.9997L10.8749 13.208C10.7221 13.2497 10.5763 13.2809 10.4374 13.3018C10.2985 13.3226 10.1527 13.333 9.99992 13.333C8.95825 13.333 8.07284 12.9684 7.34367 12.2393C6.6145 11.5101 6.24992 10.6247 6.24992 9.58301C6.24992 9.43023 6.26034 9.2844 6.28117 9.14551C6.302 9.00662 6.33325 8.86079 6.37492 8.70801L4.62492 6.99967Z" fill="#767676"/>
</svg>
