<svg width="40" height="40" viewBox="0 0 40 40" fill="none" xmlns="http://www.w3.org/2000/svg">
<path d="M23.1341 3.27639C23.0222 3.27328 22.807 3.24399 22.6941 3.22359C21.0859 2.93291 19.6728 2.97504 18.0533 3.07506C17.2817 3.23565 16.626 3.22064 15.796 3.43351C15.2342 3.58241 14.5855 3.74016 14.0382 3.91723C12.6917 4.35293 11.5394 4.98195 10.321 5.67771C9.82542 5.98464 9.34347 6.27949 8.87301 6.62463C7.65033 7.65459 6.86481 8.36345 5.85706 9.61274L5.84349 9.63757C5.71537 9.86671 5.43765 10.1714 5.25908 10.3893C4.34171 11.5091 3.77872 12.8419 3.19943 14.1655C2.05944 16.7704 1.78998 19.5874 2.14805 22.392C2.66767 26.4621 4.75691 30.3575 7.96304 32.9423C8.57179 33.4364 9.09959 33.9325 9.80444 34.3107C10.7081 34.7957 11.6009 35.3166 12.5448 35.721C14.2889 36.3639 16.4956 36.8985 18.3715 36.9181C19.2872 36.9564 20.1509 36.9188 21.0651 36.8839C21.9648 36.7778 22.841 36.6398 23.738 36.4448C24.2044 36.3435 25.2132 35.9422 25.6226 35.9014C25.7771 35.886 26.912 36.6468 27.1484 36.7763C27.9923 37.2387 29.6541 37.8673 30.6266 37.8881C31.2617 37.8799 31.5945 37.8873 32.1512 37.5834C33.4585 37.0568 32.286 34.6782 32.0488 33.8055C31.9156 33.3156 31.8338 32.7798 31.6574 32.308C32.0324 31.9495 32.8287 31.3055 33.1226 30.9536C34.1721 29.6974 35.4505 28.005 36.0824 26.4966C38.0845 21.7167 37.9341 17.8003 36.0508 13.0619C35.8061 12.5937 35.5265 11.9281 35.2457 11.498C34.8997 10.9681 34.4325 10.4708 34.1229 9.89882C34.0789 9.86695 34.0898 9.87628 34.0589 9.8306C33.5136 8.93032 32.7712 8.34471 32.0472 7.64094C31.1302 6.74959 30.4186 6.29819 29.3558 5.63647C27.3385 4.38052 25.4732 3.70749 23.1341 3.27639Z" fill="#262014"/>
<path d="M20.213 4.34685C17.3169 4.26481 14.2068 5.1896 11.6427 6.50312C11.1868 6.73666 10.7717 7.07748 10.3429 7.36512C8.83689 8.37502 7.52685 9.65615 6.45921 11.1201C6.13521 11.5788 5.24274 13.0115 5.00915 13.4776C3.56979 16.4194 3.11971 19.7477 3.72602 22.9661C4.06611 24.8096 4.58041 26.2971 5.5261 27.9076C6.65796 29.835 8.09861 31.4139 9.93868 32.6782C13.5109 35.1264 17.9017 36.0737 22.1655 35.3162C23.3242 35.1235 24.4355 34.7526 25.5654 34.4907C26.1533 34.3543 27.3212 35.363 27.8816 35.6922C28.3366 35.9582 28.8153 36.1814 29.3114 36.3592C29.7989 36.529 30.999 36.752 31.4313 36.5417C31.6162 36.0771 30.1133 32.381 30.5565 31.7129C31.1533 30.8134 32.4437 29.8079 33.1007 28.8755C34.9259 26.285 36.0019 23.5106 36.1125 20.3281C36.2277 16.3032 34.7315 12.3989 31.956 9.48174C28.9858 6.29752 24.5332 4.49904 20.213 4.34685Z" fill="#FDF7EC"/>
<path d="M23.8977 13.6326C21.7003 13.3473 19.8797 14.842 19.3438 16.9213C17.8438 15.6481 16.8602 14.8512 14.7203 15.2759C12.6343 15.6899 11.3741 18.125 11.8336 20.1176C12.3682 22.4355 14.0224 23.8333 15.95 25.0416C17.6846 25.914 19.2567 26.9433 21.2066 27.3421C22.198 27.5449 23.0244 26.2684 23.5984 25.614C25.2929 23.6818 27.1336 21.6017 27.4761 18.9571C27.8178 16.5576 26.4998 13.9048 23.8977 13.6326Z" fill="#FBB5B3"/>
</svg>
