<svg width="20" height="20" viewBox="0 0 20 20" fill="none" xmlns="http://www.w3.org/2000/svg">
<path d="M10.3877 4.38794L9.94578 3.94597L9.94575 3.946L10.3877 4.38794ZM16.2803 4.38794L16.7223 3.94612L16.7222 3.946L16.2803 4.38794ZM16.2803 10.2805L16.7222 10.7225L16.7222 10.7224L16.2803 10.2805ZM12.9463 13.6135L12.5044 13.1715L12.5043 13.1716L12.9463 13.6135ZM10 16.5598L9.55806 17.0018L10 17.4437L10.4419 17.0018L10 16.5598ZM3.7207 10.2805L3.27876 10.7225V10.7225L3.7207 10.2805ZM3.7207 4.38794L3.27877 3.94599L3.27874 3.94602L3.7207 4.38794ZM9.61328 4.38794L10.0558 3.94656L10.0552 3.946L9.61328 4.38794ZM10 4.77563L9.5575 5.21702L9.99944 5.66008L10.4419 5.21758L10 4.77563ZM10.3877 4.38794L10.8296 4.82991C12.2128 3.44693 14.4553 3.44687 15.8383 4.82988L16.2803 4.38794L16.7222 3.946C14.851 2.07477 11.817 2.07497 9.94578 3.94597L10.3877 4.38794ZM16.2803 4.38794L15.8382 4.82976C17.2207 6.21299 17.2209 8.45585 15.8383 9.8386L16.2803 10.2805L16.7222 10.7224C18.5931 8.85135 18.5924 5.81726 16.7223 3.94612L16.2803 4.38794ZM16.2803 10.2805L15.8384 9.83851L12.5044 13.1715L12.9463 13.6135L13.3882 14.0555L16.7222 10.7225L16.2803 10.2805ZM12.9463 13.6135L12.5043 13.1716L9.55806 16.1179L10 16.5598L10.4419 17.0018L13.3882 14.0555L12.9463 13.6135ZM10 16.5598L10.4419 16.1179L4.16264 9.83858L3.7207 10.2805L3.27876 10.7225L9.55806 17.0018L10 16.5598ZM3.7207 10.2805L4.16264 9.83858C2.7796 8.45553 2.77963 6.213 4.16266 4.82986L3.7207 4.38794L3.27874 3.94602C1.40764 5.81727 1.40752 8.85122 3.27876 10.7225L3.7207 10.2805ZM3.7207 4.38794L4.16264 4.82989C5.54576 3.4468 7.78825 3.44679 9.17134 4.82988L9.61328 4.38794L10.0552 3.946C8.18397 2.07474 5.15003 2.07477 3.27877 3.94599L3.7207 4.38794ZM9.61328 4.38794L9.17078 4.82932L9.5575 5.21702L10 4.77563L10.4425 4.33425L10.0558 3.94656L9.61328 4.38794ZM10 4.77563L10.4419 5.21758L10.8296 4.82988L10.3877 4.38794L9.94575 3.946L9.55806 4.33369L10 4.77563Z" fill="black"/>
</svg>
