<svg width="22" height="22" viewBox="0 0 22 22" fill="none" xmlns="http://www.w3.org/2000/svg">
<path d="M4.58301 3.25H17.417C17.7873 3.25007 18.0915 3.37665 18.3574 3.64258C18.6234 3.90851 18.7499 4.21265 18.75 4.58301V17.417C18.7499 17.7874 18.6234 18.0915 18.3574 18.3574C18.0915 18.6234 17.7874 18.7499 17.417 18.75H4.58301C4.21265 18.7499 3.90851 18.6234 3.64258 18.3574C3.37665 18.0915 3.25007 17.7873 3.25 17.417V4.58301L3.25586 4.44727C3.28366 4.13716 3.40986 3.8753 3.64258 3.64258C3.8753 3.40986 4.13716 3.28366 4.44727 3.25586L4.58301 3.25ZM4.58301 4.08301L4.08301 4.58301V17.417L4.58301 17.917H17.417L17.917 17.417V4.58301L17.417 4.08301H4.58301ZM15.499 15.083H6.50098L8.25 12.75L9.91211 14.9668H10.7129L13.0615 11.833L15.499 15.083Z" fill="#111111" stroke="black" stroke-linejoin="bevel"/>
</svg>
