<svg width="24" height="24" viewBox="0 0 24 24" fill="none" xmlns="http://www.w3.org/2000/svg">
<path d="M4 19C3.45 19 2.97933 18.8043 2.588 18.413C2.19667 18.0217 2.00067 17.5507 2 17V7C2 6.45 2.196 5.97933 2.588 5.588C2.98 5.19667 3.45067 5.00067 4 5H20C20.55 5 21.021 5.196 21.413 5.588C21.805 5.98 22.0007 6.45067 22 7V17C22 17.55 21.8043 18.021 21.413 18.413C21.0217 18.805 20.5507 19.0007 20 19H4ZM4 17H20V7H4V17ZM9 16H15C15.2833 16 15.521 15.904 15.713 15.712C15.905 15.52 16.0007 15.2827 16 15C15.9993 14.7173 15.9033 14.48 15.712 14.288C15.5207 14.096 15.2833 14 15 14H9C8.71667 14 8.47933 14.096 8.288 14.288C8.09667 14.48 8.00067 14.7173 8 15C7.99933 15.2827 8.09533 15.5203 8.288 15.713C8.48067 15.9057 8.718 16.0013 9 16ZM6.713 9.712C6.90433 9.52067 7 9.28333 7 9C7 8.71667 6.904 8.47933 6.712 8.288C6.52 8.09667 6.28267 8.00067 6 8C5.71733 7.99933 5.48 8.09533 5.288 8.288C5.096 8.48067 5 8.718 5 9C5 9.282 5.096 9.51967 5.288 9.713C5.48 9.90633 5.71733 10.002 6 10C6.28267 9.998 6.52033 9.902 6.713 9.712ZM9.713 9.712C9.90433 9.52133 10 9.284 10 9C10 8.716 9.904 8.47867 9.712 8.288C9.52 8.09733 9.28267 8.00133 9 8C8.71733 7.99867 8.48 8.09467 8.288 8.288C8.096 8.48133 8 8.71867 8 9C8 9.28133 8.096 9.519 8.288 9.713C8.48 9.907 8.71733 10.0027 9 10C9.28267 9.99733 9.52033 9.90133 9.713 9.712ZM12.713 9.712C12.9043 9.52133 13 9.284 13 9C13 8.716 12.904 8.47867 12.712 8.288C12.52 8.09733 12.2827 8.00133 12 8C11.7173 7.99867 11.48 8.09467 11.288 8.288C11.096 8.48133 11 8.71867 11 9C11 9.28133 11.096 9.519 11.288 9.713C11.48 9.907 11.7173 10.0027 12 10C12.2827 9.99733 12.5203 9.90133 12.713 9.712ZM15.713 9.712C15.9043 9.52133 16 9.284 16 9C16 8.716 15.904 8.47867 15.712 8.288C15.52 8.09733 15.2827 8.00133 15 8C14.7173 7.99867 14.48 8.09467 14.288 8.288C14.096 8.48133 14 8.71867 14 9C14 9.28133 14.096 9.519 14.288 9.713C14.48 9.907 14.7173 10.0027 15 10C15.2827 9.99733 15.5203 9.90133 15.713 9.712ZM18.713 9.712C18.9043 9.52133 19 9.284 19 9C19 8.716 18.904 8.47867 18.712 8.288C18.52 8.09733 18.2827 8.00133 18 8C17.7173 7.99867 17.48 8.09467 17.288 8.288C17.096 8.48133 17 8.71867 17 9C17 9.28133 17.096 9.519 17.288 9.713C17.48 9.907 17.7173 10.0027 18 10C18.2827 9.99733 18.5203 9.90133 18.713 9.712ZM6.713 12.712C6.90433 12.5213 7 12.284 7 12C7 11.716 6.904 11.4787 6.712 11.288C6.52 11.0973 6.28267 11.0013 6 11C5.71733 10.9987 5.48 11.0947 5.288 11.288C5.096 11.4813 5 11.7187 5 12C5 12.2813 5.096 12.519 5.288 12.713C5.48 12.907 5.71733 13.0027 6 13C6.28267 12.9973 6.52033 12.9013 6.713 12.712ZM9.713 12.712C9.90433 12.5213 10 12.284 10 12C10 11.716 9.904 11.4787 9.712 11.288C9.52 11.0973 9.28267 11.0013 9 11C8.71733 10.9987 8.48 11.0947 8.288 11.288C8.096 11.4813 8 11.7187 8 12C8 12.2813 8.096 12.519 8.288 12.713C8.48 12.907 8.71733 13.0027 9 13C9.28267 12.9973 9.52033 12.9013 9.713 12.712ZM12.713 12.712C12.9043 12.5213 13 12.284 13 12C13 11.716 12.904 11.4787 12.712 11.288C12.52 11.0973 12.2827 11.0013 12 11C11.7173 10.9987 11.48 11.0947 11.288 11.288C11.096 11.4813 11 11.7187 11 12C11 12.2813 11.096 12.519 11.288 12.713C11.48 12.907 11.7173 13.0027 12 13C12.2827 12.9973 12.5203 12.9013 12.713 12.712ZM15.713 12.712C15.9043 12.5213 16 12.284 16 12C16 11.716 15.904 11.4787 15.712 11.288C15.52 11.0973 15.2827 11.0013 15 11C14.7173 10.9987 14.48 11.0947 14.288 11.288C14.096 11.4813 14 11.7187 14 12C14 12.2813 14.096 12.519 14.288 12.713C14.48 12.907 14.7173 13.0027 15 13C15.2827 12.9973 15.5203 12.9013 15.713 12.712ZM18.713 12.712C18.9043 12.5213 19 12.284 19 12C19 11.716 18.904 11.4787 18.712 11.288C18.52 11.0973 18.2827 11.0013 18 11C17.7173 10.9987 17.48 11.0947 17.288 11.288C17.096 11.4813 17 11.7187 17 12C17 12.2813 17.096 12.519 17.288 12.713C17.48 12.907 17.7173 13.0027 18 13C18.2827 12.9973 18.5203 12.9013 18.713 12.712Z" fill="#505050"/>
</svg>
