<svg width="20" height="20" viewBox="0 0 20 20" fill="none" xmlns="http://www.w3.org/2000/svg">
<path d="M9.53799 3H10.2992C10.4212 3.05662 10.7239 3.0508 10.8727 3.07605C11.2764 3.14377 11.6191 3.23909 11.9987 3.39004C12.9168 3.75509 13.649 4.44018 14.1167 5.31272C14.4427 5.92081 14.6819 6.70054 14.7466 7.39542C14.7768 7.71997 14.8366 8.04294 14.8372 8.36896C14.7939 8.92596 14.7226 9.57672 14.5696 10.1149C14.459 10.5039 14.267 11.065 14.1066 11.4378C13.7079 12.3801 13.2292 13.2864 12.6757 14.1469C12.4108 14.552 12.1351 14.9234 11.8508 15.3122L11.8184 15.2794C11.7419 15.2897 11.6342 15.4722 11.593 15.5398L11.5976 15.5572C11.6325 15.5551 11.6211 15.5507 11.6455 15.5688C11.3013 15.9631 10.9958 16.3733 10.5785 16.6892C10.5076 16.7429 10.4439 16.8152 10.3703 16.8665C10.2836 16.9422 10.0283 17.021 9.97133 17.0625H9.86708C9.76255 16.9985 9.5702 16.9421 9.46115 16.855C9.37896 16.799 9.30771 16.7067 9.23008 16.6478C9.0345 16.4993 8.89357 16.3423 8.73011 16.1612C8.51206 15.9205 8.28443 15.6723 8.08469 15.4163C7.94976 15.2433 7.86708 15.1029 7.7099 14.9472C7.60873 14.8469 7.48005 14.5556 7.3796 14.4353C7.31332 14.3345 7.23296 14.2465 7.16986 14.1431C6.87918 13.6666 6.5609 13.1589 6.30254 12.6671C6.07446 12.233 5.88771 11.7895 5.69104 11.344C5.58375 11.101 5.52737 10.8284 5.41096 10.5852C5.19936 10.0585 5.15245 9.5054 5.05794 8.96006C4.95868 8.38735 5.00479 8.19329 5.06398 7.6402C5.14968 6.8393 5.29294 6.16424 5.65826 5.43608C5.8078 5.15578 6.01227 4.82383 6.20935 4.57257C6.31355 4.4397 6.61948 4.13191 6.75174 4.02487C7.26292 3.61117 7.90578 3.30177 8.54723 3.15835C8.70962 3.12204 8.85512 3.09303 9.01847 3.06875C9.16316 3.0432 9.41017 3.05246 9.53799 3ZM10.1727 10.0354C11.385 9.89431 12.2527 8.79625 12.1097 7.58421C11.9667 6.37217 10.8672 5.50621 9.65544 5.65118C8.4464 5.79581 7.58286 6.89222 7.72554 8.1015C7.86822 9.31077 8.96322 10.1761 10.1727 10.0354Z" fill="#505050"/>
</svg>
