<svg width="33" height="33" viewBox="0 0 33 33" fill="none" xmlns="http://www.w3.org/2000/svg">
<path d="M15.9309 7.00473C16.2513 6.99509 16.5819 7.00314 16.9015 7.00333C18.2857 7.00411 19.5728 7.58269 20.5325 8.56988C21.3632 9.42426 21.8652 10.5707 21.9394 11.7578C21.9655 12.1772 21.9523 12.6562 21.9522 13.0832C21.956 13.7731 21.953 14.463 21.943 15.1528C22.5377 15.2129 22.9587 15.3144 23.4029 15.7499C24.0303 16.3647 23.9911 16.9804 23.9963 17.7826L23.9971 21.8923L23.9982 23.1385C23.9992 24.0054 24.0585 24.7271 23.4007 25.3856C22.8165 25.9704 22.2367 25.9986 21.4575 25.9824C21.2539 25.9783 21.029 25.9822 20.8248 25.9844C19.584 26.0005 18.3431 26.0041 17.1022 25.9954L12.9903 25.9945L11.6871 25.9989C10.8997 25.9984 10.3495 26.0257 9.71917 25.4897C8.8696 24.7673 9.00645 23.8225 9.01039 22.8301L9.01072 20.8379L9.01059 18.4298C9.01018 17.9644 8.98788 17.2163 9.06243 16.7867C9.12171 16.4414 9.2745 16.1188 9.50435 15.8535C9.77604 15.5378 10.2078 15.2813 10.617 15.2027C10.7494 15.1773 10.9285 15.1677 11.0652 15.1579C11.0758 14.9379 11.0643 14.6387 11.0643 14.4111L11.0648 12.8266C11.0648 12.4004 11.0552 11.9232 11.0999 11.5033C11.2238 10.4055 11.704 9.37776 12.4675 8.57596C13.3502 7.64507 14.6411 7.04347 15.9309 7.00473ZM13.0848 15.1745C13.4831 15.1553 13.9453 15.1628 14.3483 15.1608L17.2208 15.1653C17.8222 15.1607 18.4237 15.1594 19.0251 15.1615C19.2812 15.1634 19.7014 15.1559 19.9386 15.1882C19.9555 14.9665 19.9459 14.695 19.9456 14.4693L19.9496 13.4663C19.9457 12.1991 20.105 11.0969 19.2082 10.0617C18.2437 8.94832 17.2141 8.96268 15.8574 9.00356C14.9731 9.10638 14.2986 9.44309 13.7355 10.1452C13.121 10.9115 13.0611 11.5836 13.0606 12.5195L13.0605 13.574L13.062 14.5298C13.0627 14.7007 13.0586 14.9656 13.0783 15.1296C13.0801 15.1446 13.0823 15.1596 13.0848 15.1745ZM15.7826 21.1068C15.8094 21.2919 15.7991 21.5285 15.7932 21.7191C15.7869 21.926 15.8009 22.1492 15.7919 22.3518C15.7659 22.935 15.9578 23.3411 16.6231 23.2991C16.8126 23.2676 16.9529 23.2015 17.0696 23.0419C17.132 22.9558 17.1736 22.8564 17.1912 22.7517C17.2199 22.5885 17.2038 22.4451 17.208 22.2864C17.2173 21.9335 17.1765 21.4274 17.2369 21.0874C17.6016 20.7622 17.8692 20.5176 17.8983 19.985C17.921 19.6018 17.7869 19.2258 17.5264 18.9427C17.2878 18.6819 16.9552 18.5258 16.6013 18.5085C16.5284 18.5053 16.4542 18.5073 16.3813 18.51C15.9629 18.5681 15.6597 18.7054 15.3987 19.0475C15.1726 19.3407 15.0754 19.7126 15.1292 20.0783C15.1586 20.2831 15.2419 20.5012 15.3536 20.6764C15.4577 20.8398 15.6651 20.959 15.7826 21.1068Z" fill="#999999"/>
</svg>
