<svg width="28" height="28" viewBox="0 0 28 28" fill="none" xmlns="http://www.w3.org/2000/svg">
<path d="M8.65234 22.4482L9.05408 21.8149C8.86364 21.6941 8.62897 21.6654 8.41504 21.7368L8.65234 22.4482ZM4 24L3.28847 23.7629C3.19865 24.0324 3.26883 24.3295 3.46974 24.5304C3.67065 24.7313 3.96781 24.8014 4.23731 24.7115L4 24ZM5.55078 19.3467L6.26231 19.5838C6.33358 19.37 6.30488 19.1354 6.18417 18.945L5.55078 19.3467ZM14 4V4.75C19.1086 4.75 23.25 8.89137 23.25 14H24H24.75C24.75 8.06294 19.9371 3.25 14 3.25V4ZM24 14H23.25C23.25 19.1086 19.1086 23.25 14 23.25V24V24.75C19.9371 24.75 24.75 19.9371 24.75 14H24ZM14 24V23.25C12.1797 23.25 10.485 22.7226 9.05408 21.8149L8.65234 22.4482L8.25061 23.0816C9.91347 24.1364 11.8854 24.75 14 24.75V24ZM8.65234 22.4482L8.41504 21.7368L3.76269 23.2885L4 24L4.23731 24.7115L8.88965 23.1597L8.65234 22.4482ZM4 24L4.71153 24.2371L6.26231 19.5838L5.55078 19.3467L4.83925 19.1096L3.28847 23.7629L4 24ZM5.55078 19.3467L6.18417 18.945C5.27693 17.5143 4.75 15.8199 4.75 14H4H3.25C3.25 16.114 3.86305 18.0857 4.91739 19.7483L5.55078 19.3467ZM4 14H4.75C4.75 8.89137 8.89137 4.75 14 4.75V4V3.25C8.06294 3.25 3.25 8.06294 3.25 14H4Z" fill="#111111"/>
<circle cx="13.9999" cy="14" r="1.16667" fill="#111111"/>
<circle cx="18.6667" cy="14" r="1.16667" fill="#111111"/>
<circle cx="9.33342" cy="14" r="1.16667" fill="#111111"/>
</svg>

