<svg width="28" height="28" viewBox="0 0 28 28" fill="none" xmlns="http://www.w3.org/2000/svg">
<mask id="path-1-inside-1_358_2886" fill="white">
<path d="M15 3C16.6569 3 18 4.34315 18 6V10H22C23.6569 10 25 11.3431 25 13V15C25 16.6569 23.6569 18 22 18H18V22C18 23.6569 16.6569 25 15 25H13C11.3431 25 10 23.6569 10 22V18H6C4.34315 18 3 16.6569 3 15V13C3 11.3431 4.34315 10 6 10H10V6C10 4.34315 11.3431 3 13 3H15Z"/>
</mask>
<path d="M18 6H19.5V6H18ZM18 10H16.5V11.5H18V10ZM22 10V8.5V8.5V10ZM25 13H23.5H25ZM25 15H26.5V15H25ZM22 18V19.5V19.5V18ZM18 18V16.5H16.5V18H18ZM10 22H8.5V22H10ZM10 18H11.5V16.5H10V18ZM6 18V19.5V19.5V18ZM3 15H4.5H3ZM3 13H1.5V13H3ZM6 10V11.5V10ZM10 10V11.5H11.5V10H10ZM15 3V4.5C15.8284 4.5 16.5 5.17157 16.5 6H18H19.5C19.5 3.51472 17.4853 1.5 15 1.5V3ZM18 6H16.5V10H18H19.5V6H18ZM18 10V11.5H22V10V8.5H18V10ZM22 10V11.5C22.8284 11.5 23.5 12.1716 23.5 13H25H26.5C26.5 10.5147 24.4853 8.5 22 8.5V10ZM25 13H23.5V15H25H26.5V13H25ZM25 15H23.5C23.5 15.8284 22.8284 16.5 22 16.5V18V19.5C24.4853 19.5 26.5 17.4853 26.5 15H25ZM22 18V16.5H18V18V19.5H22V18ZM18 18H16.5V22H18H19.5V18H18ZM18 22H16.5C16.5 22.8284 15.8284 23.5 15 23.5V25V26.5C17.4853 26.5 19.5 24.4853 19.5 22H18ZM15 25V23.5H13V25V26.5H15V25ZM13 25V23.5C12.1716 23.5 11.5 22.8284 11.5 22H10H8.5C8.5 24.4853 10.5147 26.5 13 26.5V25ZM10 22H11.5V18H10H8.5V22H10ZM10 18V16.5H6V18V19.5H10V18ZM6 18V16.5C5.17157 16.5 4.5 15.8284 4.5 15H3H1.5C1.5 17.4853 3.51472 19.5 6 19.5V18ZM3 15H4.5V13H3H1.5V15H3ZM3 13H4.5C4.5 12.1716 5.17157 11.5 6 11.5V10V8.5C3.51472 8.5 1.5 10.5147 1.5 13H3ZM6 10V11.5H10V10V8.5H6V10ZM10 10H11.5V6H10H8.5V10H10ZM10 6H11.5C11.5 5.17157 12.1716 4.5 13 4.5V3V1.5C10.5147 1.5 8.5 3.51472 8.5 6H10ZM13 3V4.5H15V3V1.5H13V3Z" fill="#111111" mask="url(#path-1-inside-1_358_2886)"/>
</svg>
