<svg width="28" height="28" viewBox="0 0 28 28" fill="none" xmlns="http://www.w3.org/2000/svg">
<path d="M12.4893 13.0537C13.5498 12.6253 14.7482 12.6118 16.0332 13.2646C17.199 13.9472 17.8445 14.824 18.6348 16.0537L18.6357 16.0557C19.1798 16.8969 19.8307 17.3865 20.5439 17.8867V17.8877C21.1956 18.3692 21.5906 18.8338 21.7256 19.4395C21.8268 20.2432 21.5899 20.9745 21.0479 21.6768C20.9192 21.8243 20.7897 21.9708 20.6572 22.1143L20.6514 22.1201L20.6455 22.127C20.5886 22.1914 20.532 22.2562 20.4736 22.3223C20.0193 22.8039 19.5119 23.1299 18.9297 23.2471C18.2796 23.263 17.5433 23.0917 16.9023 22.8203L16.8633 22.8047L16.5 22.6875C15.6533 22.441 14.8052 22.3834 13.9863 22.3848H13.6592C12.6266 22.4021 11.7392 22.6005 10.8037 22.9062C9.77855 23.2342 9.16007 23.3298 8.33496 22.9854C7.37413 22.4556 6.72495 21.5827 6.35156 20.5176C6.18813 19.8386 6.21334 19.3041 6.49609 18.8008C6.73354 18.4761 6.98281 18.2164 7.28809 17.9688L7.625 17.7148L7.63477 17.708C8.4977 17.0804 9.08046 16.4634 9.64746 15.5742L9.64648 15.5732C10.4083 14.3919 11.4006 13.4936 12.4893 13.0537Z" stroke="#111111" stroke-width="1.5"/>
<path d="M16.7432 4.78711C16.9253 4.7375 17.1557 4.7299 17.4941 4.81348C18.0924 5.27887 18.4107 5.79559 18.6299 6.5791L18.6328 6.58691L18.6348 6.5957C18.6506 6.64764 18.6664 6.69997 18.6826 6.75293C18.8662 7.71243 18.6647 8.64668 18.1562 9.52539C17.9282 9.83572 17.6418 10.0737 17.3076 10.2285C16.8954 10.2772 16.6261 10.2371 16.3906 10.0869C15.7592 9.55423 15.3736 8.91423 15.2686 8.13184C15.1844 6.99065 15.3707 6.04586 16.0215 5.25684C16.314 4.97343 16.5395 4.8426 16.7432 4.78711Z" stroke="#111111" stroke-width="1.5"/>
<path d="M10.7861 4.77637C10.9665 4.73617 11.1906 4.74025 11.5059 4.81934C12.0991 5.28356 12.4156 5.7998 12.6338 6.58105L12.6367 6.59375C12.6522 6.64583 12.6678 6.69792 12.6836 6.75098C12.8822 7.75518 12.6117 8.75512 12.0342 9.7002C11.7386 10.0256 11.4707 10.192 11.1328 10.2461C10.8928 10.2588 10.7335 10.2233 10.5947 10.1611C10.4374 10.0906 10.2694 9.97092 10.0244 9.76074C9.48065 9.19024 9.25916 8.40615 9.25 7.49121C9.26723 6.54759 9.50928 5.8375 10.1113 5.17578C10.3763 4.92824 10.5908 4.81992 10.7861 4.77637Z" stroke="#111111" stroke-width="1.5"/>
<path d="M21.3076 9.98926C21.6786 9.73471 22.0917 9.68448 22.6826 9.83398C23.256 10.205 23.5476 10.6418 23.71 11.251C23.84 12.2406 23.654 13.0222 22.9814 13.8271C22.7135 14.083 22.4983 14.1963 22.1299 14.2461C21.8273 14.255 21.6392 14.2455 21.4863 14.21C21.3496 14.1782 21.2126 14.1184 21.0361 13.9844C20.428 13.4342 20.2429 12.7335 20.251 11.8438C20.3153 11.1214 20.6504 10.488 21.3076 9.98926Z" stroke="#111111" stroke-width="1.5"/>
<path d="M5.05859 9.99707C5.36168 9.76155 5.68373 9.71099 6.29688 9.77832C6.87616 10.0393 7.25238 10.4977 7.55957 11.1074C7.84179 11.837 7.80985 12.6964 7.45898 13.3857C7.18361 13.7825 6.91473 14.0529 6.53906 14.2207C6.10055 14.2685 5.79203 14.2564 5.46875 14.1436C4.68725 13.5115 4.32664 12.8888 4.25293 12.0342C4.22193 11.2638 4.46129 10.6326 5.05859 9.99707Z" stroke="#111111" stroke-width="1.5"/>
</svg>

