<svg width="28" height="28" viewBox="0 0 28 28" fill="none" xmlns="http://www.w3.org/2000/svg">
<path d="M18.6673 20C18.6673 22.5773 16.578 24.6667 14.0007 24.6667C11.4233 24.6667 9.33398 22.5773 9.33398 20" stroke="#111111" stroke-width="1.75"/>
<path d="M13.999 4.54163C15.0248 4.54168 16.042 4.75717 16.9932 5.17737C17.9447 5.59778 18.8138 6.21565 19.5479 6.99866C20.2309 7.72736 20.762 8.90228 21.2041 10.0406C21.2464 10.1496 21.3347 10.5507 21.4453 11.2633C21.5492 11.9324 21.6605 12.7841 21.7705 13.7125C21.9904 15.5688 22.2009 17.7063 22.3301 19.2477C22.3773 19.8142 21.9491 20.2915 21.333 20.2916H6.66602C6.04903 20.2916 5.61299 19.8119 5.65625 19.2399C5.77596 17.6609 5.97427 15.4504 6.18359 13.5299C6.28831 12.5692 6.39533 11.6878 6.49609 10.9967C6.54654 10.6507 6.59362 10.3594 6.6377 10.1334C6.65973 10.0205 6.68055 9.92859 6.69824 9.85803C6.70693 9.8234 6.71457 9.79638 6.7207 9.776C6.72371 9.766 6.72571 9.75799 6.72754 9.75256C6.72927 9.74744 6.73047 9.74475 6.73047 9.74475C7.13059 8.71446 7.71607 7.78172 8.4502 6.99866C9.18422 6.21576 10.0525 5.59773 11.0039 5.17737C11.9552 4.75707 12.973 4.54163 13.999 4.54163Z" stroke="#111111" stroke-width="1.75"/>
<circle cx="19.8333" cy="8.16668" r="3.20833" fill="#E81B1B" stroke="white" stroke-width="1.75"/>
</svg>
