<svg width="22" height="22" viewBox="0 0 22 22" fill="none" xmlns="http://www.w3.org/2000/svg">
<g clip-path="url(#clip0_4546_97381)">
<path d="M14.3835 3.29004C14.6041 3.31835 14.8962 3.30943 15.1235 3.30884L16.1951 3.30621C16.2987 3.306 16.7336 3.28738 16.7903 3.34036C16.7771 3.4445 16.7013 3.69592 16.6704 3.81236C16.5956 4.09299 16.5243 4.37453 16.4562 4.6569C16.3088 5.28266 16.1575 5.90747 16.0022 6.53132C15.8226 7.24336 15.6345 7.94484 15.467 8.66215L13.9606 15.1575C13.763 16.0474 13.5664 16.9313 13.3361 17.8138C13.2716 18.0608 13.2365 18.442 13.1486 18.6658C13.0659 18.7288 11.0414 18.6904 10.75 18.6898C10.7712 18.5751 10.8421 18.3464 10.8758 18.2248C10.9451 17.9782 11.008 17.73 11.0644 17.4801L12.0886 13.1532C12.2525 12.48 12.3635 11.8494 12.5151 11.1839L13.6543 6.31968C13.7963 5.72372 13.9303 5.12587 14.0562 4.52631C14.1328 4.1718 14.2132 3.81333 14.3007 3.46101C14.3162 3.39847 14.3328 3.33295 14.3835 3.29004Z" fill="black"/>
<path d="M8.80993 3.30823C9.45116 3.29032 10.1134 3.3327 10.7572 3.31437C10.855 3.31159 10.9953 3.31328 11.0863 3.3437C11.1063 3.44863 10.9296 4.1202 10.9018 4.26046C10.6879 5.3385 10.3985 6.38963 10.1267 7.45323C9.97638 8.03667 9.83751 8.62299 9.71018 9.21187C9.63421 9.56271 9.56823 9.93309 9.48534 10.28L9.11734 11.8111C8.9071 12.651 8.69615 13.4525 8.51297 14.3044L7.80796 17.458C7.75028 17.7078 7.6949 17.9583 7.64185 18.2093C7.6123 18.3474 7.57573 18.547 7.53402 18.6763C7.50286 18.7067 7.51147 18.6974 7.46219 18.7086C7.00465 18.7122 6.54707 18.7133 6.08951 18.7119C5.78474 18.7116 5.45372 18.7175 5.15234 18.7062C5.16707 18.5949 5.22192 18.3795 5.24857 18.2673L5.4284 17.5133L5.97508 15.1711L7.04962 10.5625C7.47209 8.86358 7.87384 7.15955 8.25477 5.45082L8.5922 3.91699C8.62899 3.75078 8.66726 3.52229 8.7223 3.36162C8.73586 3.32202 8.77284 3.31874 8.80993 3.30823Z" fill="black"/>
<path d="M3.81963 3.32124C3.8527 3.27306 3.89385 3.22992 3.95167 3.21387C3.9968 3.22051 4.28285 3.49861 4.29589 3.565L4.28235 3.58877C4.19448 3.58898 4.1132 3.47983 4.03447 3.42946C3.95409 3.44032 3.90389 3.44354 3.83209 3.48368L3.82462 3.4878C3.78765 3.50858 3.70743 3.58628 3.69195 3.61764C3.68345 3.62433 3.67483 3.63085 3.66607 3.63719C3.63327 3.66051 3.60926 3.68024 3.57422 3.67388C3.5855 3.57696 3.77075 3.47292 3.81963 3.32124Z" fill="#DAD8DB" fill-opacity="0.87451"/>
<path d="M3.55116 3.57966C3.69541 3.4864 3.71019 3.42268 3.82004 3.32129C3.77116 3.47297 3.58591 3.57702 3.57463 3.67393C3.60967 3.6803 3.63368 3.66056 3.66648 3.63725C3.67524 3.6309 3.68386 3.62438 3.69236 3.61769C3.6077 3.79112 3.71232 3.84459 3.67968 3.98961L3.66347 3.99266C3.58806 3.90638 3.58071 3.88381 3.55044 3.77122C3.48505 3.81717 3.41981 3.85576 3.35156 3.89692C3.44198 3.7407 3.483 3.8286 3.55116 3.57966Z" fill="#DBDADB" fill-opacity="0.192157"/>
<path d="M15.125 11.9255C15.5381 11.9112 16.0418 11.9297 16.468 11.9257C16.7446 11.9223 17.0212 11.9206 17.2978 11.9204C17.4809 11.9204 17.6863 11.915 17.8658 11.9408C17.8537 12.1669 17.3371 14.3083 17.2945 14.3451C17.2524 14.3815 17.1716 14.3706 17.1205 14.3699L15.5598 14.3707C15.4075 14.3723 14.5028 14.401 14.4271 14.3507C14.4132 14.3144 14.5162 13.8707 14.5334 13.8233C14.6223 13.5791 14.8949 12.0516 14.9903 11.9483C15.0281 11.9211 15.0775 11.9262 15.125 11.9255Z" fill="black"/>
<path d="M11.4384 11.9111C11.6333 11.8982 11.9033 11.9138 12.1019 11.9259C11.9608 12.5686 11.7832 13.2103 11.6389 13.853C11.6122 13.9718 11.5551 14.2606 11.4833 14.346C11.3725 14.3801 10.7044 14.3671 10.5415 14.3668L9.37064 14.3697C9.23232 14.3691 8.91203 14.3996 8.7989 14.3707C8.79058 14.3634 8.77946 14.3578 8.77738 14.3465C8.77243 14.3196 9.23476 12.3068 9.28818 12.114C9.30486 12.0538 9.32473 11.9963 9.35964 11.944C9.46188 11.8942 11.1482 11.9172 11.4384 11.9111Z" fill="black"/>
<path d="M6.37965 7.27176C6.54197 7.26416 7.4533 7.24619 7.53146 7.31204C7.53121 7.37214 7.5232 7.44075 7.50942 7.49966C7.35149 8.17403 7.19443 8.849 7.0329 9.52245C7.02296 9.56393 7.00185 9.60869 6.98173 9.64639C6.82846 9.67428 6.52375 9.66824 6.35688 9.66805L5.40588 9.66544C5.02734 9.66519 4.62384 9.67843 4.25 9.67188C4.36614 9.18549 4.49656 8.70273 4.6166 8.21732C4.6805 7.95898 4.72914 7.69439 4.79984 7.43831C4.81127 7.39694 4.82685 7.33087 4.85464 7.29748C4.88908 7.25609 6.20254 7.27381 6.37965 7.27176Z" fill="black"/>
<path d="M10.4317 7.2772C10.513 7.26837 10.6811 7.27444 10.7678 7.27524L11.4049 7.28071L12.42 7.27584C12.6006 7.27469 12.9556 7.26161 13.1188 7.30197C13.1372 7.37671 12.6494 9.47587 12.589 9.66426C12.2092 9.65018 10.0551 9.72027 9.91061 9.63997C9.90919 9.63453 9.90694 9.62705 9.90634 9.62117C9.89849 9.54355 10.3811 7.34299 10.4317 7.2772Z" fill="black"/>
<path d="M16.4473 7.26884C16.6876 7.26366 18.6334 7.25062 18.7526 7.30527C18.7958 7.47214 18.2814 9.3267 18.2069 9.6716C18.1031 9.66159 17.9991 9.66316 17.8949 9.66266L16.3578 9.66181C16.1066 9.66161 15.7822 9.67023 15.5353 9.65516C15.5348 9.61197 15.5352 9.55019 15.5483 9.48309C15.689 8.75932 15.8743 8.02464 16.0604 7.31486C16.0748 7.26017 16.3633 7.26944 16.4473 7.26884Z" fill="black"/>
<path d="M3.86808 11.9238C4.5655 11.9486 5.268 11.937 5.96579 11.9375C6.08927 11.9375 6.31288 11.9266 6.42463 11.9724C6.42569 11.9764 6.42688 11.9804 6.4278 11.9845C6.44379 12.0547 5.93904 14.2898 5.88796 14.3634C5.87256 14.3855 5.86004 14.3826 5.83597 14.3857C5.46619 14.3847 5.02822 14.3603 4.6592 14.3683C4.48241 14.3721 3.30123 14.394 3.24543 14.3544C3.23008 14.313 3.24269 14.2543 3.25307 14.2113C3.43014 13.4772 3.62194 12.7481 3.7796 12.0097C3.79031 11.9595 3.82663 11.9423 3.86808 11.9238Z" fill="black"/>
<path d="M5.38226 5.4394C5.3672 5.48807 5.35602 5.49322 5.37158 5.53314C5.43231 5.5353 5.61294 5.3741 5.68516 5.32129C5.68529 5.43587 5.73489 5.43338 5.82522 5.48046C6.01047 5.57703 5.99411 5.78756 5.99693 5.96488C5.95251 6.04446 5.88796 6.17076 5.79186 6.19043C5.72167 6.07705 6.19598 5.90101 5.74889 5.52984L5.58939 5.50172C5.38241 5.56504 5.15996 5.76988 5.31636 5.98685C5.24571 6.00681 5.275 5.94937 5.23286 6.01372C5.19375 5.94694 5.16654 5.9121 5.11821 5.8509C5.11764 5.83684 5.11729 5.82277 5.11719 5.80871C5.1166 5.66528 5.27868 5.54495 5.38226 5.4394Z" fill="#DAD8DB" fill-opacity="0.890196"/>
<path d="M10.3297 10.0576L10.3497 10.0779C10.336 10.1068 10.329 10.1192 10.3111 10.1456L10.3196 10.1676L10.3343 10.1636C10.3542 10.1583 10.3572 10.1586 10.3784 10.1598L10.3968 10.1876C10.3449 10.2537 10.2019 10.388 10.2024 10.4527L10.2237 10.4697C10.2411 10.4669 10.2687 10.4636 10.2847 10.4588C10.3444 10.4561 10.5082 10.4549 10.5633 10.4735L10.5667 10.4849C10.4812 10.4982 10.311 10.4897 10.2636 10.5321C10.2711 10.5772 10.3058 10.5802 10.348 10.5909C10.2755 10.5845 9.99841 10.6052 9.96666 10.5845C9.83142 10.496 10.0721 10.3209 10.1073 10.2456C10.1812 10.1715 10.2473 10.1218 10.3297 10.0576Z" fill="#343334" fill-opacity="0.2"/>
<path d="M6.97514 6.67871C7.23885 6.77053 7.40863 6.89461 7.428 7.19244C7.38641 7.19513 7.39085 7.20177 7.36342 7.18351C7.36523 7.13541 7.36931 7.11546 7.34597 7.07201L7.33359 7.0719C7.33221 7.11448 7.33007 7.15703 7.3272 7.19954C7.28668 7.20147 7.29535 7.0907 7.28565 7.07559C7.24967 7.01959 7.14809 6.93941 7.09872 6.89685C7.05811 6.88872 6.90335 6.84411 6.88079 6.85188C6.85334 6.91589 6.87786 6.97168 6.86302 7.04931C6.82647 7.0404 6.84442 7.02642 6.82665 6.98912C6.82676 6.98935 6.77994 6.95764 6.77595 6.95493C6.76325 6.88855 6.80112 6.83433 6.83483 6.77926C6.82586 6.82641 6.80904 6.83424 6.81501 6.88364L6.83893 6.89395C6.86496 6.84575 6.88051 6.83819 6.87346 6.79328L6.83483 6.77926L6.824 6.76411C6.87481 6.7364 6.92518 6.70793 6.97514 6.67871Z" fill="#343334" fill-opacity="0.141176"/>
<path d="M5.94141 6.46151C5.97998 6.35781 5.99372 6.22359 6.11342 6.18244C6.50729 6.047 6.81425 6.23191 6.68167 6.65385C6.63541 6.70125 6.53738 6.63332 6.4912 6.59941C6.52404 6.59841 6.51034 6.60438 6.53345 6.58054L6.52496 6.54067C6.55046 6.55829 6.55221 6.55604 6.5824 6.55742C6.64406 6.45475 6.46674 6.2642 6.37248 6.23387C6.34023 6.2235 6.28305 6.22723 6.24916 6.22897C6.33126 6.20186 6.36667 6.1912 6.45147 6.20973L6.46583 6.21296C6.38632 6.15673 6.19123 6.1248 6.15321 6.22443L6.17368 6.2427C6.19275 6.23853 6.20335 6.23627 6.22291 6.23445L6.23798 6.23311C6.16451 6.2774 6.11359 6.31281 6.05132 6.3728L6.04482 6.3507C6.00929 6.35972 5.98437 6.41772 5.94141 6.46151Z" fill="#6C6B6C" fill-opacity="0.278431"/>
<path d="M10.1051 10.2451C10.0698 10.3204 9.82916 10.4955 9.9644 10.5839C9.99615 10.6047 10.2732 10.584 10.3457 10.5904C10.4017 10.6314 10.3643 10.6032 10.3948 10.6757L10.4298 10.6798C10.5011 10.6536 10.5855 10.5939 10.5933 10.5139L10.5645 10.4844L10.561 10.473L10.5732 10.479C10.775 10.5785 10.8266 10.3922 10.9314 10.5041C10.9336 10.5182 10.9411 10.5392 10.931 10.5475C10.781 10.6705 10.6133 10.4243 10.5333 10.6829C10.4562 10.8448 10.4944 10.8243 10.4916 11.0024C10.4906 11.0607 10.4932 11.0703 10.4566 11.1073C10.4153 11.1091 10.4313 11.1132 10.3963 11.0917C10.3616 11.0353 10.3895 10.7382 10.3601 10.6624C10.3084 10.529 10.0249 10.6802 9.89527 10.615C9.80903 10.4916 10.0206 10.3191 10.1051 10.2451Z" fill="#343334" fill-opacity="0.176471"/>
<path d="M16.9712 17.4911C16.8532 17.4798 16.7647 17.4651 16.7091 17.3452C16.6108 17.1332 16.6894 16.8533 16.9368 16.7949C17.008 16.7983 17.177 16.7983 17.2284 16.8483L17.2267 16.8632C17.1823 16.8799 17.1761 16.8789 17.1293 16.8699C17.0027 16.8727 16.8764 16.8903 16.8085 17.0079C16.6849 17.2215 16.8047 17.3797 16.9712 17.4911Z" fill="#DBDADB" fill-opacity="0.92549"/>
<path d="M10.2852 10.4618C10.3618 10.3876 10.9581 10.4106 11.0187 10.4687C11.0711 10.7899 10.7121 10.5694 10.536 10.6865C10.6161 10.4278 10.7838 10.6741 10.9337 10.551C10.9438 10.5427 10.9364 10.5218 10.9342 10.5077C10.8293 10.3958 10.7777 10.582 10.5759 10.4826L10.5638 10.4765C10.5087 10.4579 10.3449 10.4591 10.2852 10.4618Z" fill="#343334" fill-opacity="0.0156863"/>
<path d="M7.03311 6.90146C6.96488 6.89928 6.91918 6.88391 6.89004 6.95081C6.89989 7.04578 7.00474 7.12393 6.97986 7.20376C6.85127 7.26487 6.71392 7.13052 6.7321 6.99711C6.74247 6.92093 6.75917 6.81833 6.81719 6.76367L6.82802 6.77882C6.7943 6.83389 6.75644 6.8881 6.76913 6.95449C6.77312 6.95719 6.81994 6.9889 6.81983 6.98868C6.8376 7.02598 6.81965 7.03996 6.8562 7.04887C6.87105 6.97124 6.84652 6.91545 6.87397 6.85144C6.89653 6.84367 7.0513 6.88828 7.0919 6.89641C7.14128 6.93896 7.24285 7.01915 7.27884 7.07515C7.28853 7.09026 7.27986 7.20102 7.32038 7.1991C7.32326 7.15659 7.32539 7.11403 7.32677 7.07146L7.33915 7.07157C7.3625 7.11502 7.35842 7.13496 7.35661 7.18307C7.38403 7.20132 7.3796 7.19469 7.42118 7.192C7.2904 7.33726 7.22449 7.08177 7.1655 7.01019C7.12787 6.96452 7.08226 6.93439 7.03311 6.90146Z" fill="black" fill-opacity="0.0705882"/>
<path d="M15.1298 15.1428C15.0602 15.2227 14.8366 15.4837 14.732 15.4615C14.6893 15.3371 14.9082 15.0784 15.0088 15.0194L15.0201 15.0468C15.0353 15.0367 15.0507 15.0269 15.0664 15.0176C15.0764 15.0384 15.0761 15.0339 15.0802 15.056C15.0497 15.1114 15.0141 15.1429 15.0062 15.2048C15.051 15.2163 15.0878 15.17 15.1183 15.1394L15.1298 15.1428Z" fill="black" fill-opacity="0.0862745"/>
<path d="M5.38537 5.44028C5.51153 5.3367 5.68386 5.1092 5.84871 5.06641L5.8639 5.07612C5.85412 5.16949 5.75358 5.25901 5.68827 5.32217C5.61604 5.37498 5.43542 5.53618 5.37468 5.53403C5.35913 5.4941 5.3703 5.48895 5.38537 5.44028Z" fill="#DBDADB" fill-opacity="0.976471"/>
<path d="M17.3734 16.8887C17.4486 16.9699 17.5138 17.2196 17.458 17.3056C17.3597 17.3531 17.0457 17.278 16.9687 17.1953L16.957 17.16L16.9708 17.1439C17.0275 17.1528 17.0638 17.2005 17.0949 17.2032C17.1719 17.2099 17.3093 17.1398 17.3438 17.258L17.3574 17.2514C17.3652 17.1781 17.3656 17.1476 17.3611 17.074C17.3666 17.0867 17.3721 17.0994 17.378 17.112C17.3947 17.1476 17.393 17.1605 17.421 17.1709C17.4498 17.1068 17.3953 16.9565 17.3734 16.8887Z" fill="#DBDADB" fill-opacity="0.247059"/>
<path d="M6.0278 6.69629C6.11683 6.7367 6.18438 6.81138 6.28028 6.84117C6.31271 6.85125 6.35537 6.88634 6.36755 6.91845L6.35928 6.93422L6.32989 6.93723C6.31254 6.92138 6.29503 6.90572 6.27736 6.89024C6.23618 6.9159 6.25174 6.96976 6.15643 6.94064C6.05722 6.91034 5.94073 6.84239 5.96392 6.72424L6.0278 6.69629Z" fill="#474849" fill-opacity="0.0941176"/>
<path d="M15.3477 15.3605C15.3559 15.2729 15.5303 15.1042 15.6114 15.1025C15.6553 15.1368 15.6439 15.1199 15.6632 15.1663C15.6608 15.2672 15.5475 15.3729 15.4593 15.4066C15.4145 15.3328 15.422 15.3345 15.3477 15.3605Z" fill="#343334" fill-opacity="0.0470588"/>
<path d="M14.8145 14.7082C14.8581 14.6603 14.9561 14.5506 15.0147 14.5288L15.0411 14.5546L15.0624 14.5496L15.0781 14.5236C15.0724 14.4904 15.0678 14.4779 15.0739 14.4454L15.113 14.4287C15.1524 14.4378 15.1411 14.4292 15.1627 14.4571L15.1545 14.492L15.1242 14.4732C15.0752 14.5328 14.9808 14.7977 14.8593 14.7254C14.8177 14.7201 14.7789 14.7241 14.737 14.7264C14.5433 14.7454 14.5272 14.6719 14.4414 14.6915C14.442 14.6849 14.4478 14.6729 14.4506 14.666C14.6149 14.6611 14.5741 14.6082 14.7357 14.7118L14.8145 14.7082Z" fill="black" fill-opacity="0.129412"/>
<path d="M4.77837 4.64258C4.71475 4.77859 4.49794 4.90268 4.5738 5.00094C4.62034 5.02698 4.67173 5.02175 4.72592 5.02225C4.65045 5.03353 4.54707 5.03993 4.4798 5.06159C4.5637 5.07235 4.6478 5.08133 4.73207 5.08857L4.72841 5.0972C4.63861 5.09922 4.473 5.08295 4.37698 5.07693L4.36719 5.05821C4.38672 4.97644 4.69475 4.69866 4.77837 4.64258Z" fill="#DAD8DB" fill-opacity="0.298039"/>
<path d="M5.31397 5.99099C5.42385 6.07663 5.46381 6.1093 5.59739 6.15897C5.64347 6.14244 5.68762 6.11924 5.73232 6.13026L5.74046 6.15146C5.63105 6.27602 5.39878 6.17455 5.28354 6.11022L5.23047 6.01786C5.27261 5.95351 5.24332 6.01095 5.31397 5.99099Z" fill="#DBDADB" fill-opacity="0.976471"/>
<path d="M16.9375 16.7985C17.1328 16.7699 17.2165 16.763 17.3713 16.8903C17.3932 16.9581 17.4477 17.1084 17.4189 17.1725C17.3909 17.1621 17.3926 17.1491 17.3759 17.1136C17.37 17.101 17.3645 17.0883 17.359 17.0756C17.2993 16.9616 17.2386 16.9304 17.13 16.8735C17.1768 16.8824 17.183 16.8834 17.2275 16.8668L17.2292 16.8518C17.1778 16.8019 17.0087 16.8019 16.9375 16.7985Z" fill="#DBDADB" fill-opacity="0.623529"/>
<path d="M4.75711 5.01758C4.83822 5.02278 4.94744 5.02104 5.01736 5.05311L5.01277 5.0732C4.96267 5.10402 4.9193 5.10789 4.8615 5.11846C4.87055 5.21383 4.87536 5.30814 4.88073 5.40373L4.85465 5.38322C4.81492 5.42225 4.81023 5.50011 4.84244 5.54511C4.8686 5.51838 4.86812 5.50945 4.87868 5.47191C4.87734 5.50694 4.87431 5.52996 4.86942 5.56475L4.83879 5.58661L4.84806 5.60499L4.85633 5.59468L4.83587 5.60142C4.78063 5.51332 4.81913 5.24972 4.83256 5.1402C4.80515 5.11085 4.76735 5.10685 4.72656 5.09638L4.73022 5.08776C4.77029 5.0911 4.79208 5.09532 4.82092 5.07531C4.80651 5.03809 4.79707 5.04196 4.75711 5.01758Z" fill="#DBDADB" fill-opacity="0.376471"/>
<path d="M10.5648 10.4863L10.5937 10.5158C10.5858 10.5959 10.5014 10.6556 10.4302 10.6818L10.3951 10.6777C10.3646 10.6051 10.402 10.6333 10.346 10.5924C10.3039 10.5816 10.2692 10.5786 10.2617 10.5335C10.3091 10.4912 10.4793 10.4996 10.5648 10.4863Z" fill="#474849" fill-opacity="0.290196"/>
<path d="M15.0117 15.0216C15.0667 14.9636 15.1535 14.8599 15.2388 14.8768C15.32 14.967 15.1937 15.0822 15.1327 15.1451L15.1211 15.1416C15.1348 15.1131 15.132 15.1279 15.1288 15.0955L15.0831 15.0583C15.079 15.0361 15.0793 15.0406 15.0693 15.0198C15.0536 15.0292 15.0382 15.0389 15.023 15.0491L15.0117 15.0216Z" fill="#202021" fill-opacity="0.0431373"/>
<path d="M15.3443 15.3601C15.4186 15.334 15.4111 15.3323 15.4559 15.4061C15.3731 15.4646 15.2909 15.5209 15.2514 15.6139C15.2206 15.6865 15.2332 15.7229 15.1505 15.7249L15.1367 15.7102C15.144 15.6255 15.2211 15.4889 15.2981 15.4491C15.343 15.4259 15.337 15.4049 15.3443 15.3601Z" fill="#6C6B6C" fill-opacity="0.470588"/>
<path d="M14.8579 14.7248C14.9794 14.7971 15.0738 14.5323 15.1228 14.4727L15.1531 14.4915C15.0998 14.6109 15.0606 14.7111 14.93 14.7718C14.8725 14.7986 14.625 14.7999 14.5664 14.7892L14.568 14.7693C14.6068 14.7439 14.6369 14.7504 14.6889 14.7465C14.7556 14.7801 14.8027 14.7731 14.8579 14.7248Z" fill="black" fill-opacity="0.396078"/>
<path d="M11.3984 11.6148C11.4168 11.5776 11.422 11.5601 11.4278 11.519C11.4742 11.4531 11.5281 11.4562 11.6029 11.4238C11.5821 11.485 11.5405 11.6227 11.4707 11.6388C11.4498 11.6246 11.4235 11.6209 11.3984 11.6148Z" fill="black" fill-opacity="0.156863"/>
<path d="M5.94412 6.46335C5.98708 6.41956 6.012 6.36156 6.04753 6.35254L6.05403 6.37464C5.99945 6.50182 5.98187 6.56783 6.02973 6.69921L5.96585 6.72716C5.94356 6.62533 5.92805 6.56634 5.94412 6.46335Z" fill="#6C6B6C" fill-opacity="0.843137"/>
<path d="M10.3312 10.0581L10.3517 10.0348C10.3813 10.0349 10.3829 10.0351 10.4117 10.0418L10.4724 9.99512L10.4917 9.99904C10.5083 10.0707 10.4531 10.1473 10.3983 10.1881L10.3799 10.1603C10.3586 10.1591 10.3556 10.1588 10.3357 10.164L10.3211 10.1681L10.3125 10.1461C10.3304 10.1196 10.3374 10.1072 10.3512 10.0784L10.3312 10.0581Z" fill="#343334" fill-opacity="0.145098"/>
<path d="M6.49346 6.59851C6.3965 6.57387 6.30606 6.62151 6.22825 6.55092C6.21202 6.50829 6.21181 6.52475 6.2208 6.48351C6.27161 6.47313 6.29082 6.54056 6.32301 6.53993C6.41389 6.53814 6.43027 6.52498 6.52722 6.53977L6.5357 6.57964C6.51259 6.60348 6.5263 6.59751 6.49346 6.59851Z" fill="#474849" fill-opacity="0.72549"/>
<path d="M11.3965 11.6113C11.4216 11.6173 11.4479 11.6211 11.4687 11.6352C11.3807 11.6915 11.2324 11.7485 11.1317 11.7054L11.1289 11.6912C11.2048 11.6403 11.3149 11.668 11.3965 11.6113Z" fill="black" fill-opacity="0.223529"/>
<path d="M6.24102 6.23327L6.22595 6.23461C6.20639 6.23643 6.19579 6.23869 6.17672 6.24286L6.15625 6.22459C6.19427 6.12496 6.38936 6.15689 6.46887 6.21311L6.45451 6.20989C6.36971 6.19136 6.3343 6.20202 6.2522 6.22913L6.24102 6.23327Z" fill="#747375" fill-opacity="0.376471"/>
<path d="M4.72267 5.02143L4.75571 5.01758C4.79567 5.04196 4.80511 5.03809 4.81953 5.07531C4.79069 5.09532 4.76889 5.0911 4.72882 5.08776C4.64456 5.08052 4.56046 5.07153 4.47656 5.06078C4.54383 5.03911 4.64721 5.03271 4.72267 5.02143Z" fill="#DBDADB" fill-opacity="0.796078"/>
<path d="M16.7013 16.5801C16.7296 16.5916 16.717 16.5826 16.735 16.614C16.7236 16.7013 16.6333 16.7734 16.5699 16.8363L16.5472 16.8241L16.543 16.8078C16.6182 16.7453 16.6648 16.6695 16.7013 16.5801Z" fill="#DBDADB" fill-opacity="0.105882"/>
<path d="M15.1198 15.141C15.0893 15.1716 15.0526 15.2179 15.0078 15.2064C15.0157 15.1445 15.0513 15.113 15.0818 15.0576L15.1275 15.0948C15.1306 15.1272 15.1335 15.1125 15.1198 15.141Z" fill="black" fill-opacity="0.188235"/>
<path d="M5.10156 5.05128C5.15999 5.04225 5.23242 5.02707 5.28325 5.06149L5.28849 5.09137C5.21431 5.10358 5.13949 5.12808 5.10156 5.05128Z" fill="#DAD8DB" fill-opacity="0.521569"/>
<path d="M14.4414 14.6909C14.5272 14.6712 14.5433 14.7448 14.737 14.7258L14.6903 14.7464C14.6384 14.7502 14.6082 14.7438 14.5695 14.7691L14.5679 14.7891C14.5447 14.7769 14.4624 14.7103 14.4414 14.6909Z" fill="black" fill-opacity="0.219608"/>
<path d="M4.8778 5.47248C4.86724 5.51002 4.86771 5.51895 4.84156 5.54568C4.80935 5.50068 4.81403 5.42282 4.85377 5.38379L4.87984 5.4043L4.8778 5.47248Z" fill="#DAD8DB" fill-opacity="0.733333"/>
<path d="M14.7342 14.7263C14.7761 14.724 14.8149 14.72 14.8565 14.7252C14.8013 14.7735 14.7542 14.7805 14.6875 14.7469L14.7342 14.7263Z" fill="black" fill-opacity="0.509804"/>
<path d="M6.83358 6.78125L6.8722 6.79527C6.87926 6.84017 6.86371 6.84774 6.83767 6.89594L6.81375 6.88563C6.80778 6.83623 6.82461 6.8284 6.83358 6.78125Z" fill="#343334" fill-opacity="0.188235"/>
</g>
<defs>
<clipPath id="clip0_4546_97381">
<rect width="16" height="16" fill="white" transform="translate(3 3)"/>
</clipPath>
</defs>
</svg>
