<svg width="50" height="50" viewBox="0 0 50 50" fill="none" xmlns="http://www.w3.org/2000/svg">
<path d="M13.5078 37.0343C13.5931 37.0256 13.6787 37.0188 13.7643 37.0139C17.5093 36.7988 16.6295 39.9951 17.8105 41.0644C19.1137 42.2442 23.8901 42.898 25.7918 42.7078C27.3453 42.5585 31.9125 42.0644 32.469 40.3778C32.9785 38.8339 33.0817 37.1137 35.5285 36.994C36.3331 36.9488 37.1216 37.2306 37.7153 37.7753C38.5986 38.5798 38.7124 39.482 38.7554 40.5844C39.9636 40.9381 40.8282 41.6272 41.1854 42.8762C41.4409 43.7791 41.3224 44.7468 40.8568 45.5614C40.3077 46.5309 39.5593 46.9251 38.5413 47.2017C36.2929 47.6515 35.5717 46.0734 34.5582 45.6935C34.4597 45.6566 30.969 46.7715 30.2763 46.9288C26.249 47.8439 22.3114 47.7263 18.3257 46.6151C17.3147 46.3333 16.2023 45.8451 15.2369 45.6288C14.6402 46.0008 14.1307 46.6603 13.4129 46.9537C12.472 47.3382 11.5409 47.3928 10.5887 46.9964C9.74071 46.645 9.07058 45.9661 8.73022 45.1135C8.38097 44.2646 8.3928 43.31 8.76303 42.47C9.25898 41.3493 10.0308 40.9324 11.087 40.5263C11.1901 38.6924 11.5757 37.6318 13.5078 37.0343Z" fill="#3DACE5"/>
<path d="M24.3121 3.00548C26.82 2.95284 29.3214 3.27994 31.7314 3.97577C32.6797 4.25727 33.6321 4.63455 34.5994 4.93307C35.1282 4.54069 35.5791 3.95164 36.2158 3.62235C37.0476 3.19223 38.0488 3.11212 38.9371 3.38952C39.8042 3.65831 40.5259 4.26616 40.9382 5.07492C41.3636 5.90002 41.4399 6.86136 41.1498 7.74319C40.7274 8.99239 39.8879 9.4318 38.8095 9.97116C38.5087 12.064 37.8906 13.4703 35.3959 13.4793C34.1664 13.4837 33.2266 12.5473 32.8372 11.4399C32.6383 10.8737 32.5603 10.0074 32.1047 9.54391C30.6373 8.37449 27.4652 7.92086 25.7075 7.83151C23.1662 7.78229 20.7709 8.05429 18.4076 9.06964C16.8087 9.75665 17.4719 11.2913 16.4745 12.4305C15.3984 13.6596 13.4156 13.8919 12.1738 12.7459C11.279 11.9201 11.1645 11.1539 11.0825 10.0189C9.87075 9.46516 8.81446 8.8029 8.54615 7.35587C7.95136 4.14769 11.5242 2.0386 14.0916 3.94193C14.5034 4.24729 14.8005 4.623 15.2471 4.92077C16.1766 4.64576 17.0991 4.26951 18.0445 3.98896C20.1852 3.35377 22.1009 3.12442 24.3121 3.00548Z" fill="#3DACE5"/>
<path d="M41.5165 9.68856C43.7232 9.44199 44.3789 11.4588 45.16 13.1076C47.5308 18.1409 48.3592 23.7631 47.541 29.2663C47.0448 32.3878 46.0713 35.4142 44.6544 38.2394C43.8501 39.8839 43.4108 40.9942 41.319 40.6704C39.2856 39.7078 40.1655 39.0024 38.8984 37.2576C39.1807 36.7218 40.0174 35.6106 40.3997 34.9892C41.8415 32.5996 42.75 29.9267 43.0631 27.1535C43.6475 22.0728 42.0966 17.2276 38.9345 13.2461C39.0669 13.0045 39.3213 12.6004 39.4074 12.3576C39.8847 11.0109 39.9726 10.1929 41.5165 9.68856Z" fill="#3DACE5"/>
<path d="M7.55929 9.6931C9.96389 9.50614 9.90962 11.6465 10.9021 13.1634C10.7084 13.5403 9.79183 14.7573 9.48593 15.2392C8.15476 17.376 7.27976 19.765 6.91582 22.2561C6.08614 27.9453 7.52326 32.5841 10.9183 37.1394C10.76 37.4373 10.5642 37.7577 10.4286 38.0578C9.9157 39.1927 10.1474 39.6887 9.07433 40.3728C8.87356 40.5102 8.63971 40.6212 8.4051 40.6862C7.86027 40.8373 7.34259 40.7749 6.85006 40.4947C5.17997 39.5446 3.46716 34.2308 2.95009 32.3127C1.32334 26.2504 1.79557 19.816 4.29 14.0562C4.70036 13.0886 5.15673 12.0633 5.68268 11.1526C6.19729 10.2616 6.61046 9.94439 7.55929 9.6931Z" fill="#3DACE5"/>
</svg>
