<svg width="50" height="50" viewBox="0 0 50 50" fill="none" xmlns="http://www.w3.org/2000/svg">
<path d="M9.08887 3.20794C11.9087 3.04835 13.906 5.73961 12.7249 8.445C12.584 8.76751 12.2518 9.2237 12.0523 9.53115C14.5058 11.518 17.0771 13.9057 19.4872 15.9843L34.7899 29.235C37.2385 31.3869 40.1652 34.0988 42.6708 36.1363C43.4551 35.3908 44.4107 34.9018 45.506 34.8757C46.4837 34.8532 47.4308 35.217 48.142 35.888C48.8358 36.5547 49.2721 37.5787 49.29 38.5396C49.309 39.5254 48.9328 40.4779 48.2453 41.1847C47.1482 42.3152 46.1026 42.2997 44.6689 42.3225C44.6544 43.6546 44.6949 44.6879 43.7617 45.7752C42.9729 46.6941 42.1504 46.9574 40.9878 47.0501C40.0953 47.0216 39.4379 46.881 38.694 46.333C37.9095 45.7553 37.3858 44.8904 37.2373 43.9276C37.0383 42.5609 37.5884 41.629 38.3647 40.59L7.93929 13.9618C7.05663 14.7571 6.32046 15.3232 5.07902 15.4132C4.00836 15.4907 3.04976 15.215 2.23507 14.4983C1.50391 13.846 1.06166 12.9301 1.00548 11.9518C0.930721 10.5252 1.6243 9.21858 2.8664 8.50838C3.80195 7.97344 4.64916 8.03295 5.68896 7.97624C5.65804 6.76113 5.64327 5.67111 6.43043 4.65406C7.1277 3.75324 7.98396 3.35454 9.08887 3.20794Z" fill="#FF8A86"/>
<path d="M19.6894 25.627C20.151 25.8022 23.7243 28.9718 24.3776 29.5244C24.078 29.8841 23.4848 30.3704 23.1184 30.6923C22.4207 31.3013 21.7272 31.9151 21.038 32.5337C18.0787 35.1926 14.9363 37.9142 12.0372 40.6078C12.6719 41.4573 13.0054 42.0928 13.0799 43.1583C13.2622 45.7654 10.7257 47.6285 8.27916 46.8682C7.6302 46.6666 7.21928 46.353 6.72324 45.9066C5.67725 44.8626 5.66867 43.7229 5.65753 42.3654C4.31666 42.164 3.57662 42.4974 2.25708 41.3325C1.5501 40.7038 1.12471 39.8179 1.07634 38.873C1.02022 37.8765 1.35798 36.8979 2.01683 36.1481C2.67181 35.4182 3.59098 34.9798 4.57043 34.9303C5.87407 34.8602 6.81778 35.3556 7.75732 36.1957C9.42297 34.5712 11.5689 32.7984 13.3392 31.2222C15.3746 29.4098 17.5951 27.3288 19.6894 25.627Z" fill="#FF8A86"/>
<path d="M40.5237 3.02725C42.2606 2.82084 43.9487 3.80119 44.4853 5.48298C44.7569 6.3343 44.6907 7.11002 44.6663 7.98785C46.1004 8.05135 47.0358 7.95503 48.2427 8.99531C48.9784 9.62937 49.3682 10.5784 49.4147 11.5428C49.4683 12.5405 49.1139 13.517 48.433 14.2481C47.7562 14.9878 46.821 15.4014 45.8257 15.4307C44.321 15.4749 43.5026 14.9137 42.459 13.9438C41.3599 14.8299 40.1862 15.8885 39.1171 16.8234L33.2335 21.9955C32.4218 22.7534 31.5472 23.5079 30.7155 24.2502C29.4032 23.1585 28.1292 22.0091 26.8203 20.9119C26.5645 20.6975 26.3181 20.4731 26.0781 20.2408C27.8648 18.5965 29.8698 16.8983 31.7092 15.3019C33.8414 13.4515 36.1727 11.2536 38.3666 9.51309C37.7865 8.83071 37.3754 8.13148 37.2473 7.23042C37.1133 6.25221 37.3702 5.26066 37.962 4.4704C38.6403 3.56773 39.4238 3.18309 40.5237 3.02725Z" fill="#FF8A86"/>
</svg>
