<svg width="16" height="12" viewBox="0 0 16 12" fill="none" xmlns="http://www.w3.org/2000/svg">
<path fill-rule="evenodd" clip-rule="evenodd" d="M7.70042 2.29636C9.93483 2.29646 12.0838 3.15501 13.7032 4.69457C13.8251 4.81343 14.02 4.81193 14.1401 4.69121L15.3058 3.51479C15.3666 3.45356 15.4005 3.37063 15.4 3.28433C15.3995 3.19803 15.3646 3.1155 15.3031 3.05498C11.0528 -1.01832 4.3474 -1.01832 0.0970716 3.05498C0.0355014 3.11545 0.000571881 3.19796 7.20154e-06 3.28426C-0.000567562 3.37056 0.033283 3.45352 0.0940465 3.51479L1.26005 4.69121C1.38006 4.81211 1.57513 4.81361 1.697 4.69457C3.31657 3.15491 5.46579 2.29636 7.70042 2.29636V2.29636ZM7.70042 6.12375C8.92809 6.12367 10.1119 6.57999 11.022 7.40403C11.145 7.52098 11.3389 7.51844 11.4589 7.39831L12.6232 6.2219C12.6845 6.16019 12.7186 6.07648 12.7177 5.98949C12.7168 5.90251 12.6811 5.81951 12.6185 5.75906C9.84735 3.18131 5.55584 3.18131 2.78469 5.75906C2.72209 5.81951 2.68637 5.90255 2.68555 5.98956C2.68473 6.07658 2.71887 6.16028 2.78031 6.2219L3.9443 7.39831C4.06427 7.51844 4.25817 7.52098 4.38125 7.40403C5.29065 6.58053 6.47357 6.12426 7.70042 6.12375V6.12375ZM9.93797 8.93135C10.0002 8.87024 10.0345 8.78614 10.0327 8.69891C10.031 8.61168 9.99327 8.52905 9.92855 8.47053C8.64232 7.38263 6.75852 7.38263 5.47229 8.47053C5.40753 8.529 5.36977 8.61161 5.36792 8.69884C5.36608 8.78607 5.40031 8.87019 5.46254 8.93135L7.4769 10.9639C7.53594 11.0236 7.61643 11.0572 7.70042 11.0572C7.78441 11.0572 7.8649 11.0236 7.92394 10.9639L9.93797 8.93135Z" fill="black"/>
</svg>
