<svg width="315" height="207" viewBox="0 0 315 207" fill="none" xmlns="http://www.w3.org/2000/svg">
<path d="M81.4815 45.1938C74.5537 45.895 65.6699 46.1629 59.9847 41.4969C56.9549 39.0104 54.9932 34.8708 54.7761 31.0044C53.8648 14.7656 69.5899 5.32168 83.9835 4.05659C95.5686 3.03835 106.279 5.16837 116.472 10.7923C118.461 11.901 123.233 15.5209 124.951 15.8286C129.077 16.5678 133.925 16.5784 138.294 17.1001C154.374 19.0205 172.965 22.7407 185.743 33.3729C190.366 37.1719 194.257 41.4765 198.711 45.4768C208.198 53.9963 217.693 60.3337 219.175 74.124C220.337 84.9531 216.545 95.3844 204.361 96.6448C197.969 97.306 192.911 94.2897 189.425 88.8883C187.554 102.269 185.366 109.758 176.007 120.089C179.815 122.45 184.635 128.042 187.426 131.671C194.111 131.834 201.362 131.69 208.085 131.69L247.649 131.699L262.746 131.686C266.392 131.683 276.484 130.444 276.035 136.497C275.833 139.219 274.6 143.321 273.906 146.074L269.032 165.193L263.542 186.763C262.932 189.138 261.585 194.976 260.801 197.082C277.492 196.867 294.329 197.143 311.031 197.159C311.599 197.16 312.195 197.305 312.682 197.602L312.955 198.131C312.341 199.571 309.082 199.316 307.671 199.318C305.292 199.322 302.906 199.279 300.525 199.277L274.274 199.297C270.985 199.3 263.611 199.12 260.524 199.448C258.806 201.465 257.492 203.292 254.656 203.361C249.642 203.482 244.486 203.416 239.472 203.418L209.146 203.426C194.071 203.43 178.946 203.497 163.873 203.337C159.502 203.292 154.607 202.797 150.177 202.613L135.849 201.947C133.559 201.826 131.124 201.763 128.853 201.519C127.255 201.348 126.544 200.766 125.33 199.842C123.953 199.925 121.415 200.121 120.154 199.874C114.619 198.788 109.43 199.784 103.986 199.782C99.954 199.78 95.7401 199.35 91.6098 199.298L91.7119 199.134L91.6346 198.864C88.5387 197.989 85.0957 197.054 81.8921 196.713C81.1296 196.631 80.2563 196.814 79.5678 196.59L79.4255 196.052C78.8261 196.623 79.1336 196.986 77.7832 196.896C76.1054 196.785 66.189 197.248 65.2684 196.755C64.5637 197.091 63.2532 196.978 62.4145 197.03C62.1626 194.079 63.0529 189.624 63.0856 186.617C61.7282 184.515 60.164 182.509 59.0374 180.28C55.8499 173.975 55.9021 167.031 56.9674 160.218C59.4789 144.158 67.6926 127.521 80.6897 117.47C71.3278 107.592 67.5426 95.0927 67.9325 81.7005C68.2398 71.1448 71.2065 59.5681 76.97 50.7041C77.8683 49.3226 79.4732 47.06 80.6685 45.9338C80.9351 45.6824 81.206 45.4355 81.4815 45.1938ZM67.2137 189.848C66.4975 189.531 66.6879 189.484 66.0538 189.648C65.415 190.422 65.5354 192.378 65.5138 193.446C65.8269 193.341 66.0131 193.248 66.3048 193.107C67.1902 191.896 65.6949 191.368 67.2137 189.848Z" fill="#09090A"/>
<path d="M65.5156 193.446C65.5373 192.379 65.4168 190.423 66.0556 189.648C66.6897 189.484 66.4993 189.531 67.2155 189.848C65.6967 191.368 67.192 191.896 66.3066 193.108C66.0149 193.248 65.8288 193.341 65.5156 193.446Z" fill="#F8EFE5" fill-opacity="0.788235"/>
<path d="M67.2148 189.848C68.6517 190.83 70.1532 191.714 71.709 192.494C72.8283 193.043 78.9675 195.599 79.4266 196.052C78.8272 196.623 79.1347 196.986 77.7843 196.896C76.1065 196.785 66.1901 197.248 65.2695 196.755L65.5149 193.446C65.8281 193.341 66.0142 193.248 66.3059 193.107C67.1914 191.896 65.6961 191.368 67.2148 189.848Z" fill="#F8EFE5"/>
<path d="M83.889 6.95114C84.8078 6.78742 87.7468 6.84562 88.8463 6.8122C98.2543 6.52614 107.267 9.08633 115.461 13.634C117.747 14.9026 121.517 18.016 123.686 18.6081C127.786 19.67 132.209 19.4381 136.387 19.836C147.285 20.8738 158.173 23.0136 168.435 26.8793C173.419 28.7572 177.891 30.9402 182.105 34.2286C187.3 38.2824 191.782 43.0445 196.609 47.5024C201.481 51.9881 206.976 55.888 210.944 61.2698C215.351 67.1587 217.235 74.1703 216.232 81.4723C215.705 85.2749 213.942 88.989 210.76 91.2799C205.773 94.8715 198.626 94.5654 194.161 90.2566C188.939 85.2159 189.922 78.9798 188.464 72.511C188.221 71.4301 187.99 70.2534 187.347 69.3231C186.988 68.8242 186.793 68.8404 186.306 68.7778C185.003 69.4335 185.326 70.1002 185.564 71.4388C187.941 84.8063 186.682 98.3276 179.891 110.273C163.956 138.485 113.198 136.403 89.008 120.411C65.8414 105.096 66.3601 69.1709 82.0278 48.8081C83.2854 47.1737 86.2584 45.5719 86.5867 43.4536C86.1268 41.699 81.0254 42.3529 79.4757 42.3778C72.3265 42.4924 63.2416 43.4033 59.277 35.9575C56.2032 30.1848 58.0166 22.9398 61.8506 17.9923C67.0941 11.226 75.6682 8.05774 83.889 6.95114Z" fill="#F8EFE5"/>
<path d="M125.491 97.1183C131.103 96.9065 138.32 97.8293 143.765 98.9884C149.527 100.215 151.422 105.541 149.626 110.74C147.705 116.301 144.647 119.636 139.495 122.343C134.157 124.531 127.212 124.349 122.652 120.489C118.916 117.259 116.433 112.423 116.181 107.446C115.81 100.096 118.58 97.5643 125.491 97.1183Z" fill="#131414"/>
<path d="M112.389 77.2729C113.589 76.9021 114.895 77.2066 115.807 78.0693C116.719 78.9323 117.095 80.2198 116.791 81.4379C116.487 82.6561 115.55 83.6159 114.339 83.949C112.508 84.4532 110.611 83.3945 110.078 81.5709C109.545 79.7476 110.574 77.834 112.389 77.2729Z" fill="#131414"/>
<path d="M156.737 81.8714C159.567 81.4297 160.515 82.872 161.448 85.1777C160.772 86.893 160.443 87.5831 158.872 88.5445L156.235 88.5526C155.007 87.4927 154.676 86.9865 154.021 85.5042C154.06 85.376 154.099 85.2481 154.139 85.1203C154.73 83.2341 155.024 82.7667 156.737 81.8714Z" fill="#131414"/>
<path d="M186.444 134.269C190.805 134.054 196.382 134.211 200.812 134.216L226.449 134.233L254.501 134.221C258.483 134.218 270.054 133.802 273.008 134.811C274.172 137.223 270.113 150.779 269.333 153.817L263.153 178.026C262.114 182.04 261.101 186.06 260.113 190.087C259.411 192.906 258.716 195.889 257.681 198.609C257.315 199.572 256.312 200.279 255.492 200.84C254.313 201.025 248.766 200.943 247.276 200.943L229.892 200.947C210.752 200.948 191.594 200.959 172.453 200.935C171.989 200.898 169.577 200.908 169.274 200.669C167.985 199.651 169.107 194.946 169.361 193.821C171.606 183.862 173.993 173.953 176.324 164.025L180.044 148.053C180.844 144.537 181.705 139.378 183.159 136.037C183.628 134.957 185.312 134.484 186.444 134.269Z" fill="#7C838C"/>
<path d="M223.358 161.379C232.356 163.175 231.054 172.736 223.667 175.752C223.255 175.92 221.798 176.049 221.276 176.109C219.55 175.971 218.517 175.829 217.055 174.775C215.772 173.858 214.925 172.451 214.714 170.888C213.942 165.536 218.533 162.093 223.358 161.379Z" fill="#50575F"/>
<path d="M82.4878 119.611C83.4523 119.565 84.5415 120.73 85.2789 121.385C81.8529 129.301 83.8717 139.443 85.4374 147.523C79.8019 151.724 78.9417 159.899 85.6472 163.802C88.2667 165.327 94.3681 166.481 97.5566 167.302C104.393 169.063 111.245 170.669 118.085 172.546C117.286 172.978 116.507 173.508 115.739 173.989C109.641 177.807 104.733 190.24 109.1 196.585C107.007 196.948 104.829 196.885 102.705 196.884C102.137 196.881 101.6 196.841 101.027 196.797C88.7829 195.842 72.9905 192.826 64.5449 183.289C59.8302 177.965 58.7991 170.359 59.5209 163.481C60.7714 151.567 65.8603 138.823 73.1025 129.262C76.1638 125.22 78.7109 122.791 82.4878 119.611Z" fill="#F8EFE5"/>
<path d="M166.391 127.035L166.843 127.265C168.942 130.346 169.794 139.306 169.713 143.148C169.677 144.82 169.449 146.955 169.429 148.799C168.894 148.988 168.365 149.193 167.843 149.413C159.931 152.774 160.152 161.622 160.548 168.779C160.843 174.111 160.817 175.256 158.325 179.955C156.819 182.797 157.304 187.008 158.604 189.987C153.836 190.735 149.129 190.195 144.06 190.871C145.91 182.136 139.155 175.817 131.682 172.95C132.766 168.763 134.984 166.027 137.23 162.343C138.769 159.785 140.288 157.215 141.786 154.632C144.587 149.828 147.249 144.945 149.769 139.988C150.844 137.72 152.515 134.297 153.754 132.223C157.929 131.008 160.241 130.131 164.21 128.448C164.689 130.456 165.117 134.349 165.512 136.637C163.638 137.329 157.531 138.858 156.679 140.178C156.588 141.449 159.955 145.276 160.939 146.532C153.792 153.869 145.848 160.29 138.447 167.573C147.689 162.021 155.433 154.702 162.857 146.939C161.966 144.347 160.463 142.829 158.6 140.862C160.769 140.137 165.088 138.804 166.931 137.793C166.983 136.64 166.994 135.77 166.929 134.62C166.821 132.688 165.891 128.738 166.391 127.035Z" fill="#F8EFE5"/>
<path d="M90.4259 124.766L90.9497 125.042C91.4267 125.775 91.5838 135.342 91.8571 137.295C94.352 138.273 100.043 139.85 102.703 140.399C101.142 142.208 99.7419 144.135 98.3127 146.049C99.8739 148.061 102.945 150.559 104.94 152.203C109.005 155.552 113.221 158.939 117.592 161.876C119.985 163.484 122.64 164.942 125.116 166.491C122.213 163.273 115.383 158.234 111.782 155.347C107.934 152.262 104.329 149.227 100.555 146.038C101.497 145.155 105.232 140.68 104.681 139.57C102.934 138.304 95.8781 136.672 93.3846 136.06C93.372 132.837 93.3825 129.613 93.4161 126.39C95.2362 127.411 99.17 128.899 101.151 129.671C103.668 130.517 106.2 131.319 108.745 132.077C114.143 141.304 119.729 150.42 125.5 159.418C126.547 161.018 128.183 163.603 129.306 165.068C132.192 168.834 130.199 168.746 130.094 172.623C126.539 171.783 125.292 171.731 121.589 171.863C118.863 169.242 113.492 168.259 109.835 167.366C105.514 166.356 101.207 165.285 96.9155 164.154C102.483 160.042 103.273 153.304 97.9652 148.35C96.5836 147.061 93.5558 146.267 91.71 145.838C91.509 145.435 91.3105 145.031 91.1146 144.626C88.5397 139.29 88.5217 130.237 90.4259 124.766Z" fill="#F8EFE5"/>
<path d="M121.179 174.687C123.324 174.57 125.704 174.565 127.81 174.951C135.717 176.399 142.727 181.818 141.199 190.639C140.357 190.797 139.27 190.835 138.398 190.892C138.262 188.917 137.512 183.492 134.562 184.617C134.007 185.682 135.753 186.941 136.048 188.035C136.258 188.814 136.343 190.241 136.414 191.069C134.213 191.223 131.485 191.22 129.238 191.268C129.118 190.531 128.999 190.017 128.811 189.293C128.091 188.101 126.789 186.593 125.296 186.486L125.048 186.778C125.003 188.123 126.522 189.63 127.341 191.171C125.131 193.2 125.246 194.085 124.439 197.113C122.402 198.041 114.077 196.142 111.919 194.784C110.119 193.652 110.255 192.269 110.326 190.42C110.585 183.614 114.03 176.309 121.179 174.687Z" fill="#F8EFE5"/>
<path d="M138.058 193.459C141.408 193.312 144.405 192.742 147.686 192.61C149.539 192.535 151.56 192.646 153.446 192.608L152.477 192.938L152.401 193.16C153.346 193.473 154.447 193.294 155.471 193.443L158.292 193.32C157.967 193.812 157.959 193.893 157.894 194.482C160.048 194.815 164.222 194.77 166.602 194.86C166.13 196.765 166.094 199.042 166.328 200.983C162.828 200.953 158.606 200.602 155.059 200.413L136.962 199.464C134.495 199.318 130.129 199.518 128.012 198.936C126.995 198.011 127.152 195.242 127.686 194.121C129.244 193.329 135.953 193.445 138.058 193.459Z" fill="#7C838C"/>
<path d="M138.059 193.459C141.408 193.312 144.406 192.742 147.687 192.61C149.54 192.535 151.561 192.646 153.447 192.608L152.477 192.938L152.401 193.16C153.347 193.473 154.448 193.294 155.471 193.443L155.055 194.327C153.93 194.073 151.845 194.399 150.612 194.24C146.567 193.718 142.017 193.994 138.059 193.459Z" fill="#50575F"/>
<path d="M155.471 193.444L158.292 193.32C157.968 193.812 157.959 193.893 157.894 194.483C156.946 194.464 155.999 194.412 155.055 194.327L155.471 193.444Z" fill="#131414"/>
<path d="M172.068 169.183L172.227 169.244C172.615 170.16 168.358 187.475 167.682 189.609C166.393 189.635 162.237 189.897 161.422 189.259C161.312 189.058 161.209 188.853 161.113 188.645C157.417 180.674 165.296 172.316 172.068 169.183Z" fill="#F8EFE5"/>
<path d="M129.412 146.94C133.2 147.371 130.401 149.324 131.471 151.063L131.808 151.135C132.611 149.905 131.706 147.652 133.545 146.861C134.187 146.881 134.382 147.049 134.915 147.378C135.723 148.733 137.693 154.816 137.949 156.475L137.971 156.621C138.176 157.959 135.882 160.833 135.026 162.161C134.181 163.704 133.211 165.206 132.274 166.697C131.363 164.063 127.112 159.395 126.362 156.867C126.074 155.893 128.431 148.165 129.412 146.94Z" fill="#26618D"/>
<path d="M174.022 122.02C176.622 123.143 182.41 129.752 184.115 132.203C179.245 135.217 179.14 140.945 177.975 146.203C177.846 147.045 177.323 148.898 177.094 149.799C176.404 149.475 175.712 149.083 175.041 148.716C175.975 141.47 175.024 130.476 171.697 123.907C172.415 123.284 173.274 122.624 174.022 122.02Z" fill="#F8EFE5"/>
<path d="M170.268 124.947L170.554 125.053C172.705 128.979 173.889 138.25 173.977 142.786C174.019 144.937 173.822 147.681 173.891 150.059C174.856 150.52 175.921 151.149 176.865 151.677C176.749 152.084 176.489 153.33 176.221 153.599C176.037 153.784 170.954 152.498 168.257 154.118C166.456 155.199 165.483 157.153 165.013 159.13C164.861 159.989 164.799 161.081 164.093 161.577C163.423 161.732 163.116 161.575 162.459 161.37C160.605 158.915 165.444 151.319 168.189 150.812C169.285 150.609 169.729 150.27 170.987 150.095C171.362 140.585 171.635 135.675 168.404 126.1C168.956 125.727 169.688 125.305 170.268 124.947Z" fill="#50575F"/>
<path d="M91.5507 147.753C93.8732 148.335 94.5623 148.427 96.5062 149.815C101.283 154.435 99.7258 160.943 93.5083 163.253C91.5798 162.795 89.3532 162.769 87.5015 162.195C83.8379 160.951 82.3358 156.428 83.5978 152.959C84.5604 150.314 86.199 149.128 88.6093 147.997C89.1312 147.97 89.3184 147.997 89.8373 148.071C90.3667 148.537 90.432 148.601 90.7421 149.249C90.5165 151.148 86.699 151.75 86.1202 154.196C85.5356 156.666 87.2858 159.365 89.5957 160.091C90.9477 160.51 92.4109 160.373 93.6612 159.71C94.8435 159.079 95.8268 157.983 96.2159 156.689C96.5606 155.569 96.433 154.357 95.863 153.334C95.0538 151.893 93.8888 151.211 92.3706 150.781L91.5507 147.753Z" fill="#AFADAD"/>
<path d="M164.741 165.512C164.908 162.95 166.651 157.446 168.667 155.694C169.748 154.742 171.173 154.275 172.608 154.403C173.802 154.499 174.608 154.925 175.645 155.455C175.023 159.066 174.105 162.636 173.254 166.203C170.526 167.182 166.907 168.757 164.79 170.814C164.472 170.158 164.704 166.462 164.741 165.512Z" fill="#F8EFE5"/>
<path d="M111.578 132.605C119.019 134.135 121.613 134.463 129.079 134.744C127.692 136.288 125.549 138.161 123.987 139.713C122.255 141.547 120.639 143.236 118.823 144.988C117.757 143.399 111.998 133.961 111.578 132.605Z" fill="#A8C8DB"/>
<path d="M150.326 133.083L150.503 133.084L150.699 133.321C149.522 136.304 146.41 142.294 144.762 145.018C143.41 143.696 141.851 141.875 140.56 140.448C138.639 138.402 136.73 136.771 134.619 134.923C137.097 134.686 139.679 134.737 142.037 134.497C144.495 134.246 147.874 133.565 150.326 133.083Z" fill="#A8C8DB"/>
<path d="M131.624 134.981L131.732 134.994C132.883 135.128 136.784 139.09 137.825 140.088C136.784 142.1 136.059 143.745 135.19 145.82C134.187 145.617 133.706 145.575 132.68 145.528C131.436 145.521 130.042 145.661 128.792 145.754C128.288 144.468 126.717 141.394 125.939 140.322C127.856 138.32 129.419 136.678 131.624 134.981Z" fill="#26618D"/>
<path d="M86.7072 122.545C87.3436 122.764 88.2203 123.48 88.7915 123.902C88.1089 126.451 87.6953 129.436 87.8726 132.067C87.99 133.807 89.1607 141.706 88.851 142.947L88.0838 143.313C87.7733 143.426 87.3905 143.512 87.064 143.595C86.1861 143 85.9744 141.8 85.807 140.788C84.7265 134.254 84.7643 128.905 86.7072 122.545Z" fill="#686E75"/>
<path d="M124.644 141.65C125.056 141.89 127.011 145.864 127.371 146.549C126.446 149.268 125.641 151.515 125.007 154.317L124.716 154.362L124.12 153.515C122.618 151.167 121.289 148.889 119.695 146.574C121.221 144.843 122.969 143.242 124.644 141.65Z" fill="#A8C8DB"/>
<path d="M138.954 141.772C139.915 142.178 143.014 145.713 143.954 146.692C142.859 148.769 141.716 150.822 140.526 152.847L139.381 154.768C138.547 152.388 137.761 148.676 136.539 146.669C137.525 145.092 138.201 143.465 138.954 141.772Z" fill="#A8C8DB"/>
<path d="M90.5084 152.126C91.7223 151.867 92.9821 152.279 93.8071 153.207C94.6323 154.134 94.8953 155.433 94.496 156.609C94.097 157.784 93.0969 158.655 91.8778 158.888C90.0208 159.243 88.2239 158.037 87.8486 156.184C87.4734 154.331 88.6596 152.521 90.5084 152.126Z" fill="#AFADAD"/>
<path d="M162.627 162.704C163.322 162.767 163.838 162.748 164.402 163.153C164.789 163.813 164.133 164.892 164.742 165.512C164.705 166.462 164.473 170.158 164.791 170.814C164.486 171.218 164.174 171.159 163.778 171.405C163.44 172.043 162.06 173.398 161.5 173.985C161.497 169.835 161.785 166.98 162.204 162.877L162.627 162.704Z" fill="#AFADAD"/>
<path d="M162.627 162.704C163.322 162.767 163.838 162.748 164.403 163.153C164.789 163.813 164.133 164.892 164.742 165.512C164.705 166.462 164.473 170.158 164.791 170.814C164.487 171.218 164.174 171.159 163.778 171.405C163.49 168.71 164.207 165.738 163.656 163.21C163.6 162.951 162.971 162.823 162.627 162.704Z" fill="#131414"/>
<path d="M153.446 192.608C155.352 192.675 166.783 191.805 167.269 192.034C166.945 192.918 166.173 193.139 165.287 193.144C162.939 193.158 160.623 192.958 158.292 193.32L155.47 193.444C154.447 193.295 153.346 193.473 152.4 193.16L152.477 192.939L153.446 192.608Z" fill="#6D737B"/>
<path d="M87.8186 144.744C88.7873 144.734 89.0927 144.715 89.7552 145.467L89.7131 145.871C89.1522 146.433 89.1491 146.282 88.2322 146.478C87.931 146.672 87.8018 146.658 87.4511 146.695C86.9198 146.279 87.0652 146.518 86.957 145.758C87.2471 145.002 87.1022 145.247 87.8186 144.744Z" fill="#AFADAD"/>
<path d="M65.2697 196.755C66.1902 197.248 76.1066 196.785 77.7845 196.896C79.1348 196.986 78.8274 196.623 79.4267 196.052L79.569 196.59C80.2576 196.814 81.1308 196.631 81.8933 196.712C85.097 197.054 88.54 197.989 91.6359 198.864L91.7131 199.134L91.611 199.298C85.1398 199.376 77.9862 199.46 71.5413 199.311C73.1793 199.034 74.2663 199.388 76.1554 198.909L76.1208 198.784C74.6209 198.624 66.8774 198.264 66.0762 199.029L66.6471 199.346L24.8612 199.296C18.326 199.298 11.7835 199.344 5.25028 199.245C4.44207 199.232 3.81502 199.18 3.64453 198.344C4.64345 196.388 8.66782 197.009 10.6272 197.031L19.3923 197.05L47.1885 197.086C51.8771 197.094 57.813 197.27 62.4157 197.03C63.2544 196.978 64.565 197.091 65.2697 196.755Z" fill="#131414"/>
<path d="M66.647 199.346L66.0762 199.03C66.8773 198.264 74.6208 198.625 76.1207 198.785L76.1553 198.909C74.2662 199.389 73.1793 199.034 71.5413 199.311C70.5875 199.419 67.7401 199.346 66.647 199.346Z" fill="#131414" fill-opacity="0.968627"/>
</svg>
