<svg width="81" height="182" viewBox="0 0 81 182" fill="none" xmlns="http://www.w3.org/2000/svg">
<path d="M12.726 0.478983C16.1236 0.00504306 21.0398 2.05211 23.8981 3.85899C24.6829 4.35519 25.5588 4.73118 26.381 5.26623C27.5396 6.0201 29.2822 7.50616 30.515 7.90402C31.6646 8.27502 33.8862 8.38466 35.1457 8.50593C37.0397 8.6883 39.0384 8.81916 40.9118 9.15999C43.2564 9.58651 45.5186 9.92044 47.7449 10.7933C48.8045 11.2087 49.825 11.7766 50.8219 12.164C51.8581 12.5666 52.754 12.8586 53.7931 13.302C58.5389 15.3268 61.3424 18.1831 64.738 21.9207C65.5635 22.8294 66.29 23.8965 67.1103 24.8082C67.7703 25.5418 68.7163 26.2665 69.406 26.9872C70.8327 28.4781 72.7648 30.5448 73.909 32.2504C76.9107 36.7245 78.5104 42.4893 77.5953 47.8524C77.1624 49.9552 76.2529 52.3757 74.4245 53.6294C72.2389 55.1279 70.3948 55.1218 68.1057 53.9194C65.9921 52.8094 65.5762 51.3876 64.3354 49.5596C64.4395 50.7466 64.2012 52.6913 64.0575 53.9047C63.6221 57.5811 62.7624 61.1904 61.2179 64.568C60.4628 66.2192 59.4489 67.7461 58.6599 69.3718C58.0927 70.5405 58.839 71.3764 59.2811 72.4637C60.1026 74.4842 59.8987 75.8367 59.1419 77.7644C59.7426 79.0806 60.5746 80.7411 61.0636 82.0632C64.4203 91.1399 65.558 101.232 65.8026 110.862C65.8897 114.292 65.99 118.594 65.3421 121.964C64.7759 124.909 63.5413 126.891 61.0685 128.526C63.3112 129.917 66.1986 129.68 68.7509 129.52C70.4145 129.416 71.1583 129.107 72.7877 129.602C74.4523 131.103 73.953 134.042 72.985 135.804C71.6677 138.202 69.6252 140.135 66.9317 140.813C65.8668 141.081 64.8253 141.426 63.6998 141.455C60.9138 141.614 57.9615 140.864 55.5154 139.555C55.5596 141.001 55.2771 143.004 55.2618 144.533C55.2456 146.156 55.2023 147.859 55.1375 149.483C54.9739 153.587 54.7002 157.701 54.6176 161.807C54.5824 163.557 54.5348 165.566 54.6293 167.326C54.6575 167.852 55.2539 168.939 55.4644 169.504C56.2697 171.641 56.4681 174.954 55.5575 177.089C53.1294 182.782 42.1609 181.714 39.9598 176.469C38.7412 173.668 38.8589 164.983 38.7851 161.484C38.6493 156.052 38.4279 150.622 38.1207 145.197C38.0117 143.151 38.0591 141.061 37.8196 139.038C37.6875 138.423 37.7536 136.736 36.8851 136.694C36.2014 136.685 34.9808 136.453 34.8539 137.412C34.3772 141.012 34.2058 144.628 34.0766 148.253C33.9513 151.77 33.6705 155.29 33.5494 158.809L33.2829 168.386C33.2055 170.463 33.0966 172.537 32.7923 174.594C32.0126 179.579 25.9846 181.501 21.5974 180.716C16.0671 179.725 15.0048 174.889 16.5277 170.122C16.8073 169.246 17.3584 168.21 17.5366 167.342L17.5515 167.268C17.7214 166.441 17.6219 164.084 17.5938 163.118C17.4906 160.057 17.3617 156.997 17.2071 153.938L16.4722 137.802C16.328 134.736 16.2701 131.801 16 128.713C15.9604 128.728 15.9206 128.742 15.8805 128.756C11.7634 130.181 8.54648 127.794 7.2961 123.882C6.32617 120.847 6.52105 117.687 6.54604 114.543C6.59497 107.879 7.07293 101.226 7.97694 94.6239C8.83455 88.6793 10.377 83.1115 13.0554 77.7284C11.0973 74.3097 13.9693 71.4362 13.6676 70.3188C13.4375 69.4667 11.6534 67.171 11.0805 66.1554C9.89902 64.0266 8.92575 61.7889 8.17417 59.4733C5.61312 51.5099 6.0534 40.6663 8.84962 32.7756C9.47029 31.0242 10.419 28.8232 11.274 27.1605C11.7187 26.2961 12.3531 25.476 12.8373 24.5321C12.5152 24.5649 12.193 24.5953 11.8704 24.6235C9.23398 24.8602 6.06818 24.822 3.95426 22.9843C-1.02359 18.6569 0.835525 9.41173 4.59289 4.87144C6.68178 2.34728 9.43974 0.72774 12.726 0.478983Z" fill="#101010"/>
<path d="M14.0858 79.1432C22.3377 86.1806 33.9072 87.9388 44.2881 85.8585C48.7999 84.9544 54.5842 82.0382 58.0745 79.1157C61.7642 86.9712 63.2403 95.3101 63.8909 103.927C64.3518 110.033 65.1586 117.178 63.4192 123.16C62.5753 126.062 59.0693 128.398 56.2432 126.158C56.2371 124.969 56.382 123.045 56.4259 121.883C56.5517 118.551 56.7904 94.5183 54.9517 93.5135C54.1687 93.7523 54.31 94.6461 54.3571 95.303C54.4277 96.2829 54.5048 97.2611 54.5542 98.2429L54.9133 106.719C55.189 113.284 54.9275 118.411 54.6679 124.91L53.6654 147.538C53.3631 153.974 53.0737 160.415 53.0837 166.863C53.0868 168.853 54.5609 170.645 54.6798 173.026C54.882 177.076 52.947 178.842 48.9662 178.974C45.7947 179.079 42.0138 178.236 41.0393 174.832C40.4979 172.809 40.5416 170.53 40.4604 168.429L40.148 160.208C40.002 154.898 39.9856 149.595 39.5922 144.289C39.3941 141.702 39.5088 139.06 38.9506 136.517C38.5101 134.511 36.0024 134.797 34.4596 135.087C34.0541 135.505 33.7609 135.805 33.6097 136.4C32.9425 139.025 32.9099 142.204 32.7698 144.89L31.924 164.646C31.7844 167.649 31.7597 170.715 31.3845 173.702C31.2849 174.495 30.8977 175.628 30.422 176.286C29.2802 177.865 27.739 178.412 25.8862 178.726C23.8811 179.093 20.8705 179.071 19.1483 177.861C16.8889 176.233 17.1592 172.343 18.1899 170.101C18.8742 168.613 19.0849 167.952 19.0919 166.328C19.1197 159.871 18.7718 153.427 18.401 146.983C18.287 145.002 18.3073 143.006 18.1977 141.018L17.6144 129.815C17.4547 127.076 17.2159 124.308 17.1228 121.567C17.0454 118.371 17.0214 115.174 17.0509 111.976C17.0668 107.218 17.5331 102.58 17.7165 97.8372C17.7542 96.8617 18.361 93.9316 17.5623 93.3732C16.8736 93.5002 16.8427 94.126 16.7096 94.7189C16.452 95.8666 16.4358 97.0135 16.3271 98.1763C15.6819 104.602 15.4226 111.06 15.5505 117.516C15.5821 120.555 15.7938 123.589 15.813 126.68C12.8419 128.219 9.7281 126.518 8.77286 123.478C7.27576 118.712 8.05412 113.091 8.27915 108.175C8.46704 104.069 8.78615 99.9374 9.36428 95.8578C9.76451 93.1833 10.2819 90.5275 10.9147 87.8982C11.6913 84.7446 12.7614 82.0751 14.0858 79.1432Z" fill="#F6EDE0"/>
<path d="M34.2521 55.4277C34.3212 55.4156 34.3937 55.4158 34.4699 55.4093C41.4775 54.8127 49.5413 61.0377 44.2469 68.1063C42.7875 70.0548 39.016 70.6529 36.5792 70.8024C31.987 70.9327 25.4057 69.6788 24.8211 64.0406C24.2275 58.3167 29.2829 55.8178 34.2521 55.4277Z" fill="#F6EDE0"/>
<path d="M33.7994 56.8491C35.4051 56.761 39.1483 57.0026 40.556 57.8378C41.2917 58.254 41.9476 59.0463 42.1269 59.8875C42.8614 63.3335 40.5035 68.7417 36.9222 69.6802C35.0799 70.0712 32.7863 69.7502 31.3783 68.4497C29.6462 66.8498 28.4347 63.7998 28.321 61.4825C28.1223 57.4348 30.5373 57.0128 33.7994 56.8491Z" fill="#101010"/>
<path d="M19.1479 41.2174C21.7461 40.8867 26.5639 41.8789 28.6436 43.6456C33.2545 47.5622 29.219 52.3954 24.5312 53.6027C21.8578 54.2871 18.0131 54.5964 15.6697 52.8272C13.042 50.8432 12.7044 45.9235 14.6664 43.3726C15.6812 42.0533 17.5522 41.429 19.1479 41.2174Z" fill="#F6EDE0"/>
<path d="M23.6456 44.8343C25.4593 44.7172 25.7066 46.2805 25.6436 47.681C25.2012 48.2783 24.965 48.5208 24.2949 48.8621C23.3919 48.9961 22.9103 48.4157 22.3898 47.8007C22.3243 46.3873 22.2271 45.5416 23.6456 44.8343Z" fill="#101010"/>
<path d="M48.2555 42.6393C50.7822 42.3765 53.9071 42.5252 55.8299 44.3839C58.1693 46.6455 58.2889 51.1587 56.0724 53.5394C54.732 54.9792 52.9866 55.3385 51.1113 55.3604C40.6148 54.7603 37.4575 43.9669 48.2555 42.6393Z" fill="#F6EDE0"/>
<path d="M47.2694 45.8973C47.9972 45.8743 48.5791 46.1543 48.9457 46.8058C49.2344 47.3268 49.2999 47.9424 49.1275 48.5126C48.9183 49.2044 48.5065 49.5899 47.8905 49.9186C45.7824 50.3158 44.9779 46.8873 47.2694 45.8973Z" fill="#101010"/>
<path d="M56.1425 128.411C57.0658 128.987 58.0088 128.94 58.994 129.396C59.7756 129.757 60.5465 130.178 61.3291 130.522C63.381 131.416 65.6363 131.74 67.857 131.459C69.1692 131.306 72.5536 130.113 72.474 132.288C72.4028 134.235 71.2884 135.728 69.9829 137.067C68.7857 138.16 67.3377 138.942 65.7666 139.344C62.0662 140.326 58.9302 139.453 55.7324 137.588C55.7784 134.665 55.8447 131.278 56.1425 128.411Z" fill="#F6EDE0"/>
</svg>
