<svg width="147" height="222" viewBox="0 0 147 222" fill="none" xmlns="http://www.w3.org/2000/svg">
<g clip-path="url(#clip0_8165_11368)">
<path d="M8.44176 70.2471C8.86323 60.9692 9.73048 53.8688 13.5113 45.2622C14.6319 42.7112 15.967 40.2744 16.9406 37.7011C17.4915 35.8394 17.052 32.3735 17.362 30.4099C18.3711 22.3583 17.8138 0.567961 30.0737 1.20101C38.0167 1.61116 45.5792 9.41239 51.3047 14.3084C52.9093 15.6445 54.686 17.4964 56.4122 18.5407C58.9506 17.9299 61.0264 17.951 63.5561 17.8791C70.9441 17.6689 78.1774 18.5297 85.357 20.2706C86.6895 20.5936 88.7043 20.9713 89.9506 21.4209C92.2821 20.3241 93.6357 19.084 95.6871 17.8346C102.72 13.7098 112.036 6.58659 120.608 9.17116C122.19 9.64812 123.922 11.2635 124.484 12.8296C127.035 19.9449 127.167 28.1107 127.668 35.6074C127.866 38.5576 127.752 41.2136 128.065 44.1351C128.335 46.5401 130.16 50.3586 130.932 53.0229C133.925 63.3633 133.787 70.8381 131.989 81.2288C133.068 81.4257 134.15 81.6478 135.229 81.8573C136.339 82.0729 137.886 83.1425 136.434 84.2027C135.468 84.4402 132.462 83.7851 131.301 83.5936C129.733 87.4978 129.436 89.0647 127.434 93.2317C128.94 93.7377 133.316 95.1441 134.28 96.4941C134.492 96.7914 134.4 97.0329 134.338 97.3474C134.042 97.7213 133.947 97.7393 133.507 97.8879C131.987 97.7689 128.383 95.9655 126.227 95.3685C125.297 96.5062 124.529 97.8257 123.657 99.0255C122.133 101.099 120.441 103.044 118.597 104.839C117.956 105.459 116.154 106.724 116.073 107.437C116.485 108.552 119.119 111.736 119.9 113.283C121.062 115.581 122.037 117.17 122.944 119.734C125.57 127.159 126.171 136.082 122.844 143.381C122.115 144.98 121.223 146.391 120.24 147.823C119.781 148.49 118.257 149.943 118.112 150.559C117.799 151.882 117.919 154.336 117.923 155.754C117.93 158.137 117.881 160.521 117.774 162.903C117.7 164.283 117.457 166.749 117.549 168.031C122.061 169.45 127.149 169.891 131.17 167.075C138.635 161.846 147.66 165.597 144.451 175.606C140.87 186.78 124.349 190.483 113.997 187.346C112.498 192.969 110.84 198.608 109.572 204.257C108.814 207.635 109.932 211.219 108.411 214.459C106.34 218.872 102.229 220.665 97.6219 221.159C97.0662 221.219 95.582 221.41 95.1467 221.648H89.3151C88.8804 221.45 88.6118 221.417 88.1476 221.383C83.934 221.057 79.0845 219.402 76.5946 215.744C74.7222 212.993 74.8844 209.017 74.4358 205.75L72.6544 193.426C72.3943 191.73 72.1752 189.633 71.5921 188.042C71.2322 186.849 67.561 187.056 66.8006 187.419C65.8316 187.881 65.3578 192.662 65.1801 193.794L63.5358 204.102C63.0977 206.957 62.8129 209.753 61.9771 212.518C60.3618 217.864 55.7612 220.085 50.6314 221.107C49.5993 221.314 47.9968 221.228 47.1736 221.648H42.5522C41.1977 221.259 39.6463 221.142 38.2514 220.863C34.8573 220.181 31.616 218.721 29.8863 215.569C28.4478 212.946 28.5272 209.911 29.3981 207.134C29.7716 205.942 30.3591 204.341 30.3763 203.151C30.4261 199.707 29.7643 196.235 29.3619 192.847C28.434 185.033 27.2742 177.487 26.5595 169.643C25.8483 161.839 25.7161 155.864 26.1719 148.044C16.0589 147.017 10.5061 138.852 11.3641 129.013C12.0227 121.461 15.8104 115.072 20.6688 109.45C21.8737 108.068 23.6166 106.478 24.96 105.128C19.7848 100.542 16.2037 96.6855 13.1868 90.2417C12.2914 88.3296 11.5903 85.8059 10.7687 84.156C8.26847 84.4549 6.01798 85.1441 3.56371 85.5558C3.10058 85.6336 2.69044 85.4862 2.32729 85.218C2.11457 84.6843 2.14137 84.917 2.24565 84.3329C3.25405 82.8406 8.16308 82.2485 10.0849 81.8746C9.3994 78.2074 9.09423 76.1734 8.68973 72.5433C7.09079 72.3608 2.9119 72.4023 2.08817 71.4543C2.00151 70.8324 1.95214 71.0393 2.18033 70.4793C3.27316 69.4306 6.98758 70.0658 8.44176 70.2471Z" fill="#010101"/>
<path d="M28.6909 4.32425C36.9754 3.71829 48.4315 16.6833 54.825 21.68C56.6358 21.7316 58.4953 21.3588 60.2921 21.1513C61.8145 20.9755 63.331 20.9354 64.8616 20.9326C70.2924 20.9222 76.9453 21.579 82.2699 22.725C84.5402 23.2136 86.7485 23.9926 89.0148 24.4706C91.7734 25.0523 95.666 21.6063 97.9531 20.1017C102.601 17.0434 112.784 10.5746 118.417 11.7983C119.555 12.0457 120.493 12.5971 121.124 13.5935C124.046 18.2093 124.415 35.0358 124.793 41.1949C124.877 42.55 124.694 43.9945 124.907 45.3284C125.298 47.7866 126.685 50.2624 127.455 52.6436C128.989 57.3898 129.723 62.2474 130.083 67.2093C130.391 71.4535 129.625 76.532 128.676 80.6737C125.985 80.7316 123.18 80.3691 120.476 80.5812C118.957 80.7005 115.989 80.3801 115.471 82.1322C115.689 83.7334 117.087 83.4658 118.298 83.3206C121.597 82.9249 124.603 83.0266 127.901 83.3223C126.888 86.8849 125.915 88.9307 124.261 92.1736C122.718 91.6948 113.127 88.7452 114.783 92.4631C114.98 92.9066 121.709 94.3161 122.753 94.5C118.178 102.361 111.202 107.635 102.998 111.088C102.332 111.368 102.039 112.069 102.262 112.757C104.214 114.827 111.149 110.5 113.171 109.288C114.802 111.147 116.248 113.161 117.489 115.3C122.746 124.365 124.445 137.423 117.698 146.242C115.592 148.995 113.051 150.777 110.093 152.481C103.487 155.953 94.4454 157.281 87.0533 156.308C82.965 155.77 76.8572 154.219 74.369 150.691C73.1994 149.031 72.1866 146.344 72.6413 144.307C74.3341 136.285 82.7616 137.274 89.0483 136.177C91.4233 135.762 97.6448 134.081 98.4218 131.051C98.513 130.696 98.2978 130.49 98.0813 130.252C96.2843 129.569 93.7032 131.835 91.4169 132.473C88.1224 133.394 86.4375 133.434 83.1808 133.789C82.4428 129.666 82.2195 125.235 81.4405 121.1C80.9782 118.646 79.2261 119.112 77.2576 119.165C76.8512 118.344 75.944 116.995 74.9165 116.961C73.9595 116.929 73.2899 117.955 72.6822 118.565C72.4745 118.939 71.6032 119.157 71.2007 118.895C68.2603 116.985 68.3982 115.612 65.0531 119.18C62.908 116.157 61.7082 116.483 59.3813 119.129C57.8607 116.369 56.1164 116.385 54.2996 118.822C51.5755 118.59 49.7363 119.364 48.9147 122.115C48.3508 121.828 38.6355 101.816 36.9247 99.051C36.8003 98.9952 36.6747 98.9415 36.548 98.8902C35.2213 98.356 33.8387 98.3447 32.5525 98.9715C29.5698 100.425 28.9616 102.363 30.2974 105.18C22.3984 100.119 17.0631 92.9733 14.2287 84.049C15.482 84.0056 17.6841 84.1661 18.2349 82.8485C18.2263 80.6191 14.848 81.2252 13.3262 81.2297C12.6421 78.2551 12.2507 76.2709 11.8711 73.2427C13.0868 73.4909 17.2286 74.6108 17.6624 74.2623C20.6529 71.8596 12.5837 70.6819 11.7658 70.5629C11.5604 61.306 13.1315 54.1742 16.7968 45.6521C17.4228 43.6855 20.0026 40.0526 20.1858 38.117C21.1439 27.9936 20.454 17.1156 24.6702 7.60525C25.396 5.96819 26.9516 4.82925 28.6909 4.32425Z" fill="#F8F0E1"/>
<path d="M57.8786 83.0508C61.5793 83.0514 72.753 84.3388 76.0931 85.8666C77.7536 86.6263 78.8859 87.7799 79.5134 89.5148C80.4102 91.9945 79.8967 94.7578 78.8166 97.0913C77.0133 100.987 73.6814 103.374 69.7411 104.806C64.1344 106.161 58.0177 105.604 53.407 101.845C50.3387 99.3164 48.3988 95.6735 48.0129 91.716C47.8128 89.7058 48.2517 87.3617 49.5643 85.7812C51.6255 83.2991 54.9264 83.2983 57.8786 83.0508Z" fill="#010101"/>
<path d="M42.5575 68.4245C44.5213 68.0458 46.4234 69.32 46.8206 71.2801C47.2177 73.2402 45.9616 75.1544 44.0052 75.5699C42.0228 75.9911 40.0773 74.7144 39.6749 72.728C39.2724 70.7416 40.5674 68.8082 42.5575 68.4245Z" fill="#010101"/>
<path d="M86.5588 71.608C88.5175 71.2983 90.3613 72.62 90.6971 74.5744C91.0329 76.5286 89.736 78.3901 87.7864 78.752C86.8269 78.93 85.8361 78.7136 85.038 78.1518C83.8312 77.3021 83.2601 75.8054 83.5943 74.3675C83.9285 72.9298 85.1011 71.8384 86.5588 71.608Z" fill="#010101"/>
<path d="M46.3912 134.206C46.872 134.515 49.2932 137.078 49.8786 137.637C50.4859 140.659 52.0741 155.961 53.2731 157.393C54.314 158.636 77.9697 158.458 81.6029 158.664C82.6455 158.724 83.6906 158.974 84.7203 159.143C94.5882 160.764 106.617 159.145 114.836 153.23C114.916 165.104 113.827 175.773 110.841 187.301C109.408 192.833 107.787 198.27 106.516 203.863C105.645 207.701 107.205 211.826 104.386 214.985C102.121 217.521 97.1947 218.298 93.9614 218.48C89.7732 218.717 83.5744 218.12 80.2953 215.24C78.2208 213.417 77.8808 210.646 77.7882 208.044C77.089 201.569 76.0107 194.799 75.0092 188.347C74.8014 187.009 74.1908 185.814 73.2951 184.794C71.861 184.248 70.2042 183.905 68.6655 183.916C67.2433 183.927 65.1422 184.13 64.1415 185.236C62.0578 187.538 60.5535 207.317 58.6576 212.333C58.308 213.259 57.846 214.083 57.1379 214.782C54.2367 217.65 48.5657 218.493 44.6815 218.444C41.1636 218.4 36.115 217.861 33.5289 215.161C29.6252 211.087 33.7795 206.736 33.5995 202.247C33.438 198.223 32.7132 194.133 32.1406 190.147C31.5507 186.04 31.0537 181.901 30.532 177.784C30.0507 173.985 29.8111 170.178 29.5127 166.365C29.3625 164.448 29.0651 162.525 29.0073 160.605C28.8832 156.459 29.0478 152.301 29.1512 148.157C36.7953 146.822 43.1571 141.145 46.3912 134.206Z" fill="#F8F0E1"/>
<path d="M27.6172 107.059C27.9733 107.083 29.2721 108.143 29.652 108.206C30.0768 108.277 31.2201 108.177 31.6841 108.143C32.0149 108.545 34.7718 114.086 35.2423 115.007C31.4132 116.174 28.0554 118.251 25.3598 121.243C24.7219 121.951 24.2054 122.65 24.6479 123.566C26.3724 125.053 28.3232 122.141 29.8731 120.999C34.2537 117.77 40.5276 115.827 44.6133 120.625C45.2973 121.429 44.4967 122.071 44.347 122.865C44.5328 123.544 45.5507 124.126 46.1366 124.472C46.6953 126.046 46.5052 126.988 46.171 128.529C44.1947 130.419 44.219 130.942 43.4158 133.508C43.2716 133.968 42.4476 135.208 42.1519 135.675C38.014 141.383 32.4123 146.106 24.8974 144.845C21.6361 144.273 18.7351 142.429 16.8306 139.721C9.71627 129.624 18.9575 113.164 27.6172 107.059Z" fill="#F8F0E1"/>
<path d="M53.1227 121.995C53.3523 122.203 53.3431 124.58 54.2124 125.062C55.1058 125.556 55.8006 125.305 56.3412 124.536C56.475 123.275 55.4701 123.275 55.2887 122.342C55.8856 121.842 57.5809 122.016 58.4536 122.031C58.1948 123.421 58.324 126.048 60.4439 125.303C61.7815 124.267 60.6929 122.956 59.9667 122C61.1397 122.046 62.6796 122.158 63.8114 121.997C63.3709 123.017 62.7756 124.466 64.0782 125.203C64.4131 125.394 64.8148 125.428 65.1771 125.297C66.6253 124.756 65.9045 123.173 65.5003 122.235C66.4302 122.233 67.2567 122.229 68.1853 122.166C67.8603 123.436 67.3086 125.867 69.6314 125.425C71.5882 125.054 69.6901 123.155 70.2815 122.277C71.2077 122.041 71.6612 122.497 71.7871 123.36C72.0309 125.029 72.8524 126.184 74.5701 125.095C74.8641 124.908 74.8424 124.68 74.8712 124.384C74.6124 123.593 73.794 122.917 73.1815 122.32L76.0729 122.303C76.0666 124.712 76.9825 132.27 77.3852 134.845C75.6615 135.646 74.7926 136.039 73.3414 137.229C69.4667 140.812 68.3801 146.17 70.8727 150.892C72.0732 153.167 73.4839 154.419 75.5541 155.892C68.6863 155.88 61.7129 155.48 55.0109 155.507C54.5186 153.383 53.9596 148.457 53.6384 146.099C52.5702 138.255 51.3474 129.879 51.2832 121.981C51.8357 122.024 52.5557 121.999 53.1227 121.995Z" fill="#F8F0E1"/>
<path d="M137.288 167.692C137.538 167.674 137.789 167.662 138.041 167.659C139.11 167.655 140.377 167.961 141.091 168.786C144.042 172.201 140.633 177.691 137.987 180.025C132.43 184.926 125.849 185.494 118.828 185.167C117.951 185.13 115.745 184.587 114.801 184.373C115.952 179.946 116.345 175.641 117.211 171.14C122.346 172.75 126.691 172.595 131.577 170.167C133.857 169.033 134.806 168.215 137.288 167.692Z" fill="#F8F0E1"/>
<path d="M38.0146 106.372C38.3189 106.537 42.3839 114.71 42.9155 115.758C41.8432 115.255 41.2332 115.186 40.0849 115.011C39.3225 114.931 38.5594 114.858 37.7956 114.791C36.6748 112.698 35.4175 110.339 34.498 108.168C35.2374 107.894 37.109 106.814 38.0146 106.372Z" fill="#F1CF50"/>
<path d="M35.1719 100.926C35.5923 101.154 37.1613 104.094 36.858 104.581C36.6042 104.988 34.4725 105.919 33.895 106.234L33.6483 106.199C33.1253 105.784 32.1418 103.525 31.8184 102.841C33.1368 101.683 33.5242 101.568 35.1719 100.926Z" fill="#F1CF50"/>
<path d="M78.3805 121.606L78.8843 121.707C79.3201 122.158 80.6312 132.836 80.8116 134.191C80.4484 134.223 79.8432 134.298 79.5769 134.065C79.1617 130.75 78.298 124.79 78.3805 121.606Z" fill="#F8F0E1"/>
<path d="M49.0317 130.163L49.1418 130.267C49.3923 130.951 49.6349 133.003 49.333 133.765L49.0651 133.797L48.5426 133.358L47.1602 131.96C47.7602 131.489 48.4794 130.719 49.0317 130.163Z" fill="#F1CF50"/>
</g>
<defs>
<clipPath id="clip0_8165_11368">
<rect width="147" height="221.648" fill="white"/>
</clipPath>
</defs>
</svg>
