<svg width="81" height="182" viewBox="0 0 81 182" fill="none" xmlns="http://www.w3.org/2000/svg">
<path d="M16.259 1.53877C20.7442 0.725272 27.9324 7.79957 30.7968 10.9097C32.3348 10.7116 33.8013 10.2849 35.3838 10.0892C40.6061 9.44364 44.5828 10.0336 49.6251 11.1025C51.0341 9.46237 52.5437 7.9115 54.1452 6.4587C56.2845 4.50076 59.5878 1.86358 62.6445 2.01135C63.6964 2.06221 64.7459 2.511 65.4524 3.30228C67.9266 6.07291 68.4619 16.8917 68.5233 20.6872C68.5443 21.983 68.1973 23.4226 68.4277 24.6939C68.6015 25.6532 69.8217 27.4937 70.2553 28.5689C72.0069 32.9124 72.5454 37.6656 72.3033 42.3204C73.3999 42.2375 76.9675 41.9749 77.5027 42.9784C77.4452 43.2946 77.5035 43.2051 77.2992 43.4306C76.6615 43.6762 73.1753 43.5657 72.2524 43.5741C72.0744 45.321 71.5072 47.7495 70.9548 49.4132C72.1657 49.7357 75.3795 50.5218 76.1183 51.4163C76.1929 51.7019 76.0114 52.0757 75.9057 52.3677C74.105 51.712 72.3522 51.1491 70.5353 50.5464C68.2248 55.8139 66.4544 57.7413 62.2193 61.4068C62.4434 62.4117 63.1744 63.3399 63.3417 64.4311C63.5483 65.7781 63.3834 66.675 62.6087 67.7862C66.9323 74.5946 68.4571 84.1248 69.377 92.0165C70.0874 98.112 70.9465 111.885 69.5332 117.533C69.237 118.716 68.6785 119.907 67.9169 120.863C66.688 122.405 65.0622 123.127 63.1302 123.349C66.2913 125.121 68.1148 125.823 71.8145 125.615C73.6154 125.513 76.2617 124.962 77.8359 125.969C79.5627 127.071 79.3454 129.981 78.2754 131.494C75.0924 135.928 67.8284 136.769 62.9451 135.263C61.9588 134.959 60.7665 134.597 59.9315 134.039C59.6717 136.996 59.6519 139.828 59.5615 142.785C59.4777 144.917 59.3768 147.049 59.2588 149.179C59.0264 153.323 58.8333 157.47 58.6793 161.618C58.61 163.3 58.482 164.984 58.4441 166.667C58.3786 167.77 58.99 168.747 59.3519 169.748C62.6618 178.909 53.9179 181.512 46.8381 178.843C45.5518 178.359 44.6308 177.456 43.8526 176.363C41.9736 173.732 42.3496 166.381 42.2361 162.988L41.5129 141.236C41.4037 138.455 41.49 135.615 41.0969 132.848C41.0445 132.48 40.963 131.955 40.6335 131.771C39.946 131.388 38.6308 131.575 37.9148 131.723C37.2674 133.422 37.0384 139.933 36.9637 141.919C36.7493 148.285 36.3428 154.637 36.2265 161.008C36.2119 161.806 36.1939 162.609 36.1762 163.405C36.1055 166.596 36.2885 169.805 35.7367 172.964C35.4505 174.603 35.0122 175.918 33.8889 177.175C32.2871 178.97 29.8 179.695 27.4683 179.829C24.8669 179.96 22.1868 179.831 20.1174 178.035C17.928 176.135 18.0887 172.702 18.9675 170.2C19.3561 169.093 20.0665 168.037 20.028 166.817C19.958 164.595 19.8374 162.376 19.7589 160.155L18.942 141.278C18.8144 138.569 18.8069 135.978 18.7317 133.28C18.6202 129.817 18.4757 126.355 18.2979 122.895C16.2323 123.754 13.9344 123.456 12.0797 122.29C7.66777 119.515 8.30763 111.139 8.48177 106.577C8.93382 94.7327 10.0922 78.2325 16.5873 68.0142C15.2836 65.9676 16.2185 64.4306 17.0773 62.4611C17.1714 62.3248 17.1885 61.6183 17.0811 61.5155C15.6033 60.1013 14.1274 58.8635 12.7727 57.3C11.114 55.3855 10.1457 53.2944 8.94243 51.1168C7.0885 51.4706 5.48673 52.4405 3.68083 52.8971C3.3504 52.9806 3.11978 52.5115 3.14357 52.1972C3.70975 51.2475 7.19652 50.264 8.41748 49.7908C7.86135 48.3328 7.21206 45.359 7.00522 43.8348C6.03992 43.8074 5.14847 43.7582 4.17945 43.8029C3.60091 43.8297 1.91864 44.077 1.49229 43.8697C1.26771 43.6683 1.25955 43.627 1.19727 43.3326C1.43772 42.5317 2.80569 42.5861 3.52487 42.5707C4.61042 42.5474 5.84765 42.4581 6.91831 42.5867C6.86928 38.8561 7.0373 35.8277 7.98577 32.2039C8.32019 30.9262 8.75821 29.5747 9.28796 28.3664C9.79716 27.205 10.9185 25.5601 11.093 24.3585C11.2225 23.4668 10.9637 22.4218 10.846 21.5314C10.2893 17.3186 11.1506 6.25563 13.6345 3.04198C14.3474 2.11972 15.1005 1.68637 16.259 1.53877Z" fill="#151414"/>
<path d="M61.4989 68.8818C61.8872 69.0789 62.607 70.5957 62.8025 71.0184C66.6101 79.2763 67.6115 88.5397 68.4432 97.4945C68.8874 102.278 68.7227 107.373 68.7209 112.17C68.7195 115.705 68.1326 120.788 64.0669 121.849C62.677 122.212 61.7246 121.964 60.5098 121.247C60.4975 120.115 60.5447 118.898 60.5804 117.767C60.9273 106.788 60.6537 95.8337 59.3515 84.9212C59.2718 84.2528 59.0573 81.9354 57.9047 82.9315C57.6815 83.1244 57.7294 83.7417 57.738 84.0187C57.9526 86.3093 58.272 88.5933 58.4984 90.8833C58.7794 93.5196 58.8566 96.0965 58.9831 98.7381C59.2333 103.286 59.336 107.842 59.2912 112.396C59.2484 115.704 59.0567 118.961 58.9505 122.262L57.794 150.704C57.6484 154.065 57.4624 157.423 57.236 160.778C57.1178 162.652 56.956 165.427 57.0031 167.291C57.031 168.398 58.596 171.042 58.6986 172.727C58.792 174.263 58.5554 175.162 57.6245 176.489C56.736 177.638 55.0868 178.187 53.7229 178.338C49.8648 178.765 44.9672 178.017 44.2024 173.438C43.5641 169.616 43.6599 165.632 43.5492 161.746L43.0762 143.484C42.9499 139.849 42.7807 136.242 42.4549 132.615C42.3403 131.339 42.0404 131.122 41.0745 130.344C40.0086 130.212 37.6016 130.028 36.9741 130.828C35.857 132.253 35.9019 136.505 35.7869 138.202C35.4245 143.411 35.205 148.63 35.1289 153.851C34.9274 159.425 34.84 165.04 34.5244 170.603C34.3978 172.833 34.1772 175.2 32.3539 176.734C30.2083 178.502 27.368 178.599 24.7488 178.427C20.3134 178.138 18.744 174.609 20.2886 170.706C20.7523 169.534 21.5026 168.229 21.4833 166.97C21.4095 162.157 21.0395 157.352 20.8237 152.548L20.1211 133.107C19.4872 116.696 18.9054 100.372 21.2848 84.049C21.5175 83.3078 20.8317 82.2244 20.1597 82.9756C19.6589 83.5355 19.578 85.9487 19.4866 86.6768C18.1234 98.1851 17.6979 109.785 18.214 121.362C17.9182 121.532 17.5976 121.701 17.273 121.809C16.0018 122.234 14.5424 122.06 13.3606 121.457C11.9752 120.75 11.066 119.513 10.5926 118.051C9.02637 113.216 10.1768 98.1274 10.8225 92.8131C11.2711 89.1205 11.8855 85.3255 12.7865 81.7125C13.9093 77.2104 15.4671 73.0518 17.587 68.9267C27.8758 75.8198 45.0798 75.6168 56.3603 71.3761C58.2315 70.6727 59.7556 69.8225 61.4989 68.8818Z" fill="#F6EDE1"/>
<path d="M38.7329 46.2886C43.0852 46.3026 50.6961 47.5864 50.9656 53.1558C51.0301 54.5859 50.5195 55.9824 49.5478 57.0341C47.0987 59.7312 42.8521 60.3364 39.4013 60.5078C35.9468 60.6066 31.5388 59.8358 28.9266 57.4266C26.6619 55.3379 26.4244 51.9076 28.668 49.6808C31.2951 47.0733 35.1575 46.3724 38.7329 46.2886Z" fill="#F6EDE1"/>
<path d="M37.4484 47.6171C39.7118 47.5147 43.191 47.5232 45.1734 48.5213C47.6971 49.7919 46.3605 53.8752 45.2919 55.663C44.1448 57.5825 42.648 58.8397 40.5148 59.4017C38.3509 59.9263 36.007 59.2287 34.33 57.8106C32.2217 56.0278 30.2784 51.4655 32.1016 48.9911C32.993 47.7814 36.0721 47.6772 37.4484 47.6171Z" fill="#151414"/>
<path d="M22.9607 34.9178C26.877 34.6579 32.8779 35.8337 33.9768 40.2734C32.9571 43.242 29.8306 44.6014 26.9683 45.182C24.225 45.7075 20.3707 45.4649 18.2154 43.5774C13.2724 39.2485 18.3723 35.4125 22.9607 34.9178Z" fill="#F6EDE1"/>
<path d="M25.4189 37.9708C26.0674 37.7621 26.7765 37.874 27.3291 38.2723C27.8817 38.6705 28.2121 39.3076 28.219 39.9886C28.2283 40.9133 27.643 41.7398 26.7672 42.0382C25.6399 42.4222 24.4156 41.8142 24.041 40.6841C23.6665 39.5541 24.2852 38.3355 25.4189 37.9708Z" fill="#151414"/>
<path d="M53.4164 35.0108C53.5487 34.9992 53.6815 34.9917 53.8142 34.9882C56.436 34.9216 59.0501 35.2882 61.0406 37.1851C64.3243 40.3145 61.4981 43.9188 58.0192 45.0037C56.5852 45.4508 55.658 45.5278 54.1576 45.534C52.0725 45.523 50.0218 45.002 48.1844 44.0164C46.5765 43.1527 45.3421 42.0896 44.8066 40.311C45.5596 36.6732 50.1679 35.2129 53.4164 35.0108Z" fill="#F6EDE1"/>
<path d="M52.1475 37.9574C53.2929 37.7956 54.3604 38.5707 54.5604 39.7097C54.7605 40.8485 54.021 41.9409 52.8889 42.1787C52.0284 42.3595 51.1445 41.997 50.6591 41.264C50.1738 40.5311 50.185 39.5763 50.6876 38.855C51.0283 38.3661 51.5572 38.0408 52.1475 37.9574Z" fill="#151414"/>
<path d="M60.4463 122.966C61.2394 123.508 61.9559 124.215 62.8652 124.781C65.8789 126.656 68.6022 127.114 72.0732 126.937C73.0598 127.048 74.9493 126.554 75.8357 126.742C79.6541 127.555 77.0726 131.149 75.4289 132.434C71.1778 135.323 64.3735 135.208 60.0365 132.564C60.0124 129.714 60.3152 125.883 60.4463 122.966Z" fill="#F6EDE1"/>
</svg>
